<svg width="19" height="10" viewBox="0 0 19 10" fill="none" xmlns="http://www.w3.org/2000/svg">
<path d="M1.69187 0.277981C1.29311 -0.10413 0.660092 -0.0906334 0.277981 0.308126C-0.10413 0.706887 -0.0906332 1.33991 0.308127 1.72202L1.69187 0.277981ZM9.34857 9L8.6567 9.72202C9.03204 10.0817 9.62037 10.0938 10.0102 9.74985L9.34857 9ZM18.6616 2.11654C19.0757 1.75115 19.1152 1.11922 18.7499 0.705085C18.3845 0.290954 17.7525 0.251445 17.3384 0.616841L18.6616 2.11654ZM0.308127 1.72202L8.6567 9.72202L10.0404 8.27798L1.69187 0.277981L0.308127 1.72202ZM17.3384 0.616841L8.68696 8.25015L10.0102 9.74985L18.6616 2.11654L17.3384 0.616841Z" fill="white"/>
</svg>
