<svg width="114" height="115" viewBox="0 0 114 115" fill="none" xmlns="http://www.w3.org/2000/svg">
<path d="M41.25 70.5C41.25 57.6 58.95 28.65 71.4 28.65C75.3 28.65 77.7 32.4 77.7 36.6C77.7 39.15 76.35 43.05 73.65 48.3C71.25 53.25 54 75.3 44.85 75.3C42.45 75.3 41.25 73.5 41.25 70.5ZM83.4 98.7C74.85 104.1 64.5 104.85 54.9 104.85C33.45 105 17.1 90.9 17.1 66.6C17.1 37.5 41.1 5.4 71.7 5.4C91.95 5.4 104.1 16.35 104.1 38.4C104.1 64.05 87.6 76.2 79.5 76.2C76.8 76.2 75.15 75.3 75.15 73.2C75.15 68.4 79.5 56.85 81.45 52.5C82.35 50.4 90.3 30.75 92.4 27.15C92.7 26.55 92.85 25.65 91.65 25.65H85.95C85.35 25.65 85.05 25.8 84.45 26.7L82.5 29.55C81.45 27.45 79.2 24.3 73.35 24.3C55.95 24.3 30.75 53.4 30.75 73.35C30.75 79.2 34.65 82.05 38.4 82.05C49.8 82.05 63.75 67.35 69.75 58.95L70.35 59.25C66.3 69.45 65.1 75 65.1 77.1C65.1 79.65 67.8 82.05 70.65 82.05C97.2 82.05 113.25 59.55 113.25 40.05C113.25 15.6 99.45 0 73.35 0C39.75 0 6 33.15 6 68.7C6 93.3 23.4 110.7 52.65 110.7C66.6 110.7 80.7 106.65 85.35 102.45L83.4 98.7Z" fill="#A4B83D"/>
<path d="M35.25 74.5C35.25 61.6 52.95 32.65 65.4 32.65C69.3 32.65 71.7 36.4 71.7 40.6C71.7 43.15 70.35 47.05 67.65 52.3C65.25 57.25 48 79.3 38.85 79.3C36.45 79.3 35.25 77.5 35.25 74.5ZM77.4 102.7C68.85 108.1 58.5 108.85 48.9 108.85C27.45 109 11.1 94.9 11.1 70.6C11.1 41.5 35.1 9.4 65.7 9.4C85.95 9.4 98.1 20.35 98.1 42.4C98.1 68.05 81.6 80.2 73.5 80.2C70.8 80.2 69.15 79.3 69.15 77.2C69.15 72.4 73.5 60.85 75.45 56.5C76.35 54.4 84.3 34.75 86.4 31.15C86.7 30.55 86.85 29.65 85.65 29.65H79.95C79.35 29.65 79.05 29.8 78.45 30.7L76.5 33.55C75.45 31.45 73.2 28.3 67.35 28.3C49.95 28.3 24.75 57.4 24.75 77.35C24.75 83.2 28.65 86.05 32.4 86.05C43.8 86.05 57.75 71.35 63.75 62.95L64.35 63.25C60.3 73.45 59.1 79 59.1 81.1C59.1 83.65 61.8 86.05 64.65 86.05C91.2 86.05 107.25 63.55 107.25 44.05C107.25 19.6 93.45 4 67.35 4C33.75 4 0 37.15 0 72.7C0 97.3 17.4 114.7 46.65 114.7C60.6 114.7 74.7 110.65 79.35 106.45L77.4 102.7Z" fill="#A4B83D" fill-opacity="0.4"/>
</svg>
