<svg width="145" height="145" viewBox="0 0 145 145" fill="none" xmlns="http://www.w3.org/2000/svg">
<circle cx="72.1884" cy="72.1884" r="72.1884" fill="#D04C29"/>
<path d="M100.098 33.0007C99.9932 33.0039 99.8887 33.0168 99.7858 33.0393L75.4297 38.2584C75.2351 38.2986 75.0534 38.3726 74.883 38.4771C74.7142 38.5816 74.5663 38.7103 74.4408 38.8646C74.3154 39.0206 74.219 39.191 74.153 39.3791C74.0871 39.5672 74.0533 39.7602 74.0533 39.9596V53.8773C74.0517 53.9931 74.0614 54.1073 74.0823 54.2214C74.1048 54.334 74.137 54.4449 74.1788 54.551C74.2222 54.6588 74.2752 54.7601 74.3379 54.8565C74.4023 54.953 74.473 55.0414 74.555 55.1234C74.6354 55.2054 74.7238 55.2794 74.8187 55.3437C74.9152 55.408 75.0165 55.4627 75.1226 55.5077C75.2287 55.5527 75.338 55.5865 75.4506 55.609C75.5647 55.6315 75.6789 55.6428 75.7931 55.6428C75.9088 55.6428 76.023 55.6315 76.1355 55.609C76.2497 55.5865 76.359 55.5527 76.4652 55.5077C76.5713 55.4627 76.6726 55.408 76.7674 55.3437C76.8639 55.2794 76.9523 55.2054 77.0327 55.1234C77.1131 55.0414 77.1855 54.953 77.2482 54.8565C77.3125 54.7601 77.3656 54.6588 77.4074 54.551C77.4508 54.4449 77.4829 54.334 77.5038 54.2214C77.5247 54.1073 77.5344 53.9931 77.5328 53.8773V41.3665L98.4094 36.895V75.6046C98.4078 75.7187 98.4175 75.8345 98.4384 75.947C98.4593 76.0612 98.4914 76.1705 98.5349 76.2783C98.5783 76.3844 98.6313 76.4857 98.694 76.5822C98.7567 76.6786 98.8291 76.7687 98.9111 76.8507C98.9915 76.9327 99.0799 77.005 99.1748 77.0709C99.2713 77.1353 99.371 77.1899 99.4787 77.2333C99.5848 77.2784 99.6941 77.3121 99.8067 77.3346C99.9192 77.3571 100.033 77.3684 100.149 77.3684C100.265 77.3684 100.379 77.3571 100.492 77.3346C100.604 77.3121 100.715 77.2784 100.821 77.2333C100.927 77.1899 101.029 77.1353 101.124 77.0709C101.218 77.005 101.307 76.9327 101.389 76.8507C101.469 76.7687 101.542 76.6786 101.604 76.5822C101.667 76.4857 101.72 76.3844 101.763 76.2783C101.807 76.1705 101.839 76.0612 101.86 75.947C101.881 75.8345 101.89 75.7187 101.889 75.6046V34.7404C101.889 34.6246 101.878 34.5089 101.855 34.3947C101.831 34.2806 101.797 34.1696 101.752 34.0635C101.707 33.9558 101.651 33.8545 101.585 33.758C101.519 33.6615 101.445 33.5731 101.362 33.4927C101.278 33.4107 101.188 33.3399 101.09 33.2756C100.992 33.2129 100.889 33.1615 100.779 33.1181C100.672 33.0763 100.559 33.0457 100.445 33.0264C100.331 33.0055 100.215 32.9975 100.098 33.0007ZM48.8274 41.6993C48.5717 41.6993 48.3161 41.7122 48.0604 41.7379C47.8064 41.762 47.5523 41.8006 47.3015 41.8504C47.0491 41.9003 46.8015 41.963 46.5555 42.0369C46.3111 42.1109 46.0699 42.1977 45.8319 42.2958C45.5956 42.3939 45.364 42.5032 45.1373 42.6238C44.9122 42.7444 44.6919 42.8763 44.4781 43.0194C44.2658 43.1625 44.06 43.3136 43.8623 43.4776C43.6629 43.64 43.4732 43.812 43.2931 43.9921C43.1114 44.1738 42.9393 44.3635 42.7769 44.5613C42.6146 44.7607 42.4618 44.9665 42.3187 45.1787C42.1772 45.3926 42.0454 45.6113 41.9232 45.838C41.8026 46.0647 41.6932 46.2962 41.5952 46.5326C41.4971 46.7689 41.4103 47.0101 41.3363 47.2561C41.2623 47.5021 41.1996 47.7497 41.1498 48.0006C41.0999 48.253 41.063 48.5054 41.0372 48.7611C41.0115 49.0167 41.0002 49.2724 41.0002 49.528C41.0002 49.7853 41.0115 50.0409 41.0372 50.2966C41.063 50.5506 41.0999 50.8047 41.1498 51.0555C41.1996 51.308 41.2623 51.5556 41.3363 51.8016C41.4103 52.046 41.4971 52.2872 41.5952 52.5251C41.6932 52.7615 41.8026 52.993 41.9232 53.2197C42.0454 53.4448 42.1772 53.6651 42.3187 53.8773C42.4618 54.0912 42.6146 54.297 42.7769 54.4948C42.9393 54.6941 43.1114 54.8839 43.2931 55.064C43.4732 55.2456 43.6629 55.4177 43.8623 55.5801C44.06 55.7425 44.2658 55.8952 44.4781 56.0383C44.6919 56.1798 44.9122 56.3117 45.1373 56.4323C45.364 56.5545 45.5956 56.6638 45.8319 56.7619C46.0699 56.86 46.3111 56.9452 46.5555 57.0207C46.8015 57.0947 47.0491 57.1574 47.3015 57.2073C47.5523 57.2571 47.8064 57.2941 48.0604 57.3198C48.3161 57.3455 48.5717 57.3568 48.8274 57.3568C49.0846 57.3568 49.3403 57.3455 49.5959 57.3198C49.85 57.2941 50.104 57.2571 50.3549 57.2073C50.6073 57.1574 50.8549 57.0947 51.1009 57.0207C51.3453 56.9452 51.5865 56.86 51.8245 56.7619C52.0608 56.6638 52.2924 56.5545 52.5191 56.4323C52.7442 56.3117 52.9644 56.1798 53.1783 56.0383C53.3905 55.8952 53.5963 55.7425 53.7941 55.5801C53.9935 55.4177 54.1832 55.2456 54.3633 55.064C54.545 54.8839 54.717 54.6941 54.8794 54.4948C55.0418 54.297 55.1946 54.0912 55.3377 53.8773C55.4792 53.6651 55.611 53.4448 55.7332 53.2197C55.8538 52.993 55.9631 52.7615 56.0612 52.5251C56.1593 52.2872 56.2445 52.046 56.3201 51.8016C56.394 51.5556 56.4568 51.308 56.5066 51.0555C56.5564 50.8047 56.5934 50.5506 56.6191 50.2966C56.6449 50.0409 56.6561 49.7853 56.6561 49.528C56.6561 49.2724 56.6449 49.0167 56.6191 48.7611C56.5934 48.5054 56.5564 48.253 56.5066 48.0006C56.4568 47.7497 56.394 47.5021 56.3201 47.2561C56.2445 47.0101 56.1593 46.7689 56.0612 46.5326C55.9631 46.2962 55.8538 46.0647 55.7332 45.838C55.611 45.6113 55.4792 45.3926 55.3377 45.1787C55.1946 44.9665 55.0418 44.7607 54.8794 44.5613C54.717 44.3635 54.545 44.1738 54.3633 43.9921C54.1832 43.812 53.9935 43.64 53.7941 43.4776C53.5963 43.3136 53.3905 43.1625 53.1783 43.0194C52.9644 42.8763 52.7442 42.7444 52.5191 42.6238C52.2924 42.5032 52.0608 42.3939 51.8245 42.2958C51.5865 42.1977 51.3453 42.1109 51.1009 42.0369C50.8549 41.963 50.6073 41.9003 50.3549 41.8504C50.104 41.8006 49.85 41.762 49.5959 41.7379C49.3403 41.7122 49.0846 41.6993 48.8274 41.6993ZM61.237 56.4435C59.7867 56.4596 58.338 56.876 57.1465 57.6558C53.9485 59.7879 53.0834 64.1083 55.2155 67.3063C58.5293 72.2747 63.0603 80.3205 64.5058 84.6569C64.5058 84.6569 64.5251 84.6682 64.5299 84.6698C64.5588 84.7405 64.5733 84.8161 64.6039 84.8868C65.8066 87.5141 68.9114 88.6718 71.5402 87.4691L83.4289 82.0329L97.255 89.7121C99.2713 90.8328 101.812 90.1028 102.932 88.0881C104.051 86.0734 103.323 83.5346 101.308 82.4139L85.651 73.7153C84.7136 73.1976 83.5671 73.0368 82.4609 73.3648L82.1538 73.4564L75.7352 75.3634C74.645 72.5271 73.2092 69.776 71.6078 67.086L89.7993 70.6025C90.071 70.6523 90.3379 70.6764 90.6048 70.6764C90.8926 70.6764 91.1756 70.6411 91.4506 70.5848V73.0143C91.449 73.13 91.4586 73.2442 91.4795 73.3584C91.5004 73.4709 91.5326 73.5819 91.576 73.688C91.6194 73.7957 91.6724 73.897 91.7352 73.9935C91.7979 74.0899 91.8702 74.1784 91.9522 74.262C92.0326 74.344 92.121 74.4163 92.2159 74.4807C92.3124 74.545 92.4121 74.5996 92.5198 74.6447C92.6259 74.6897 92.7353 74.7234 92.8478 74.746C92.962 74.7685 93.0761 74.7797 93.1903 74.7797C93.306 74.7797 93.4202 74.7685 93.5328 74.746C93.6453 74.7234 93.7563 74.6897 93.8624 74.6447C93.9685 74.5996 94.0698 74.545 94.1647 74.4807C94.2611 74.4163 94.348 74.344 94.43 74.262C94.5103 74.1784 94.5827 74.0899 94.6454 73.9935C94.7097 73.897 94.7628 73.7957 94.8046 73.688C94.848 73.5819 94.8802 73.4709 94.9011 73.3584C94.922 73.2442 94.9316 73.13 94.93 73.0143V66.4879C94.9348 66.348 94.938 66.2097 94.93 66.0731V65.9911C94.9332 65.8158 94.9107 65.6438 94.8625 65.4749C94.8609 65.4733 94.8609 65.4701 94.8593 65.4685C94.5184 63.7819 93.1967 62.3862 91.4039 62.0502L62.6776 56.5625C62.2033 56.4789 61.7209 56.4371 61.237 56.4435ZM78.2129 88.2376L72.9761 90.6398C72.0724 91.0579 71.0981 91.3183 70.0883 91.3875L70.6077 92.2027L69.0416 104.677C68.7457 106.973 70.381 109.064 72.6609 109.343C74.957 109.638 77.0472 108.002 77.3254 105.723L79.0651 91.8055C79.1358 91.1784 79.0812 90.4983 78.8384 89.8712L78.6647 89.4194L78.2129 88.2376ZM100.122 93.8684C100.008 93.87 99.8951 93.8829 99.7842 93.907C99.6716 93.9311 99.5639 93.9649 99.4594 94.0099C99.3549 94.0549 99.2552 94.1112 99.1619 94.1755C99.0671 94.2398 98.9802 94.3138 98.9015 94.3958C98.8211 94.4778 98.7503 94.5662 98.6892 94.6627C98.6265 94.7576 98.5751 94.8589 98.5333 94.965C98.4898 95.0711 98.4593 95.1804 98.4384 95.2914C98.4175 95.4039 98.4078 95.5181 98.4094 95.6323V107.395L82.9401 104.082C82.8259 104.054 82.7118 104.04 82.596 104.035C82.4802 104.032 82.3661 104.038 82.2503 104.058C82.1361 104.077 82.0252 104.107 81.9175 104.148C81.8081 104.189 81.7052 104.241 81.6071 104.302C81.5091 104.365 81.4174 104.435 81.3338 104.514C81.2502 104.595 81.1746 104.683 81.1087 104.778C81.0428 104.873 80.9865 104.972 80.9399 105.08C80.8932 105.186 80.8579 105.296 80.8338 105.408C80.8096 105.522 80.7968 105.636 80.7952 105.752C80.7936 105.868 80.8032 105.984 80.8257 106.098C80.8466 106.212 80.8788 106.321 80.9222 106.429C80.9672 106.537 81.0203 106.638 81.0846 106.736C81.1489 106.833 81.2213 106.921 81.3033 107.003C81.3853 107.085 81.4753 107.159 81.5718 107.223C81.6682 107.288 81.7695 107.341 81.8773 107.386C81.985 107.429 82.0943 107.461 82.2085 107.484L99.7858 111.251C99.9128 111.278 100.041 111.291 100.17 111.29C100.3 111.288 100.429 111.272 100.554 111.242C100.68 111.213 100.802 111.168 100.918 111.111C101.035 111.053 101.143 110.984 101.244 110.902C101.345 110.82 101.435 110.729 101.516 110.627C101.596 110.526 101.664 110.417 101.72 110.299C101.776 110.182 101.818 110.06 101.847 109.934C101.874 109.807 101.889 109.679 101.889 109.55V95.6323C101.89 95.5149 101.881 95.3991 101.86 95.285C101.837 95.1708 101.805 95.0599 101.762 94.9521C101.717 94.8444 101.664 94.7415 101.599 94.645C101.534 94.5486 101.461 94.4585 101.379 94.3765C101.296 94.2945 101.207 94.2205 101.109 94.1562C101.013 94.0919 100.91 94.0389 100.802 93.9954C100.694 93.9504 100.583 93.9183 100.469 93.8974C100.353 93.8765 100.239 93.8668 100.122 93.8684Z" fill="white"/>
</svg>
