<svg width="145" height="145" viewBox="0 0 145 145" fill="none" xmlns="http://www.w3.org/2000/svg">
<circle cx="72.1884" cy="72.1884" r="72.1884" fill="#D04C29"/>
<path d="M33.2959 111.866H96.0803C96.7974 111.866 97.3762 111.284 97.3762 110.567V79.0908C97.3762 78.3737 96.7974 77.7917 96.0803 77.7917H88.7307C88.1052 73.7366 84.6 70.6222 80.3842 70.6222C76.1667 70.6222 72.6616 73.735 72.0377 77.7917H65.9857V70.5193C65.9857 69.8021 65.4068 69.2201 64.6913 69.2201C61.4595 69.2201 58.8322 66.5864 58.8322 63.3481C58.8322 60.1099 61.4595 57.4778 64.6913 57.4778C65.4068 57.4778 65.9857 56.8957 65.9857 56.1786V47.6118C65.9857 46.8947 65.4068 46.3127 64.6913 46.3127H33.2959C32.5804 46.3127 32 46.8947 32 47.6118V110.563C32 111.285 32.5804 111.866 33.2959 111.866ZM63.3954 102.001V109.269H34.5919V80.39H40.6472C41.2726 84.4451 44.7778 87.5595 48.9936 87.5595C53.2111 87.5595 56.7147 84.4467 57.3385 80.39H63.3954V87.6576C63.3954 88.3747 63.9742 88.9568 64.6913 88.9568C67.9183 88.9568 70.5456 91.5921 70.5456 94.8303C70.5456 98.0686 67.9199 100.702 64.6913 100.702C63.9758 100.702 63.3954 101.283 63.3954 102.001ZM73.234 80.39C73.9511 80.39 74.5299 79.8079 74.5299 79.0908C74.5299 75.8542 77.1556 73.2189 80.3842 73.2189C83.6144 73.2189 86.2401 75.8526 86.2401 79.0908C86.2401 79.8079 86.8189 80.39 87.536 80.39H94.7875V109.267H65.9857V103.199C70.0311 102.574 73.1375 99.059 73.1375 94.8303C73.1375 90.6 70.0311 87.0836 65.9857 86.4565V80.39H73.234ZM34.5919 48.9142H63.3954V54.9807C59.3484 55.6078 56.2403 59.1226 56.2403 63.3497C56.2403 67.5784 59.3484 71.0933 63.3954 71.7187V77.7917H56.1423C55.4251 77.7917 54.8463 78.3737 54.8463 79.0908C54.8463 82.3275 52.2206 84.9612 48.992 84.9612C45.765 84.9612 43.1378 82.3291 43.1378 79.0908C43.1378 78.3737 42.5589 77.7917 41.8418 77.7917H34.5919V48.9142Z" fill="white"/>
<path d="M111.484 44.3382L82.1687 33.0863C81.8488 32.9625 81.4902 32.9721 81.1767 33.1136C80.8647 33.2535 80.6171 33.514 80.4965 33.8356L77.8693 40.7173C77.2904 40.5935 76.6987 40.5292 76.1022 40.5292C72.6212 40.5292 69.4488 42.7191 68.2075 45.975C67.4004 48.0878 67.4631 50.3887 68.3828 52.4548C69.124 54.1189 70.3508 55.4711 71.9024 56.3555L69.2784 63.2372C69.0227 63.9077 69.3572 64.6585 70.0244 64.9158L78.0043 67.9772C78.6668 68.2329 79.4209 67.8984 79.6765 67.2295C80.5383 64.9705 82.7379 63.4526 85.1449 63.4526C85.8588 63.4526 86.5631 63.5845 87.2384 63.8434C88.6983 64.4029 89.856 65.4995 90.4927 66.9321C91.131 68.3647 91.1728 69.9597 90.6133 71.4261C90.4895 71.7477 90.4991 72.1046 90.6406 72.4198C90.7805 72.7349 91.0394 72.9809 91.361 73.1031L99.3408 76.1661C99.4904 76.2224 99.6463 76.2513 99.8039 76.2513C99.9824 76.2513 100.162 76.2127 100.33 76.1388C100.643 75.9973 100.889 75.7384 101.011 75.4152L112.233 46.0136C112.487 45.3464 112.152 44.5939 111.484 44.3382ZM99.0546 73.2752L93.403 71.1077C93.7824 69.3584 93.5975 67.5399 92.8563 65.8741C91.9366 63.808 90.2692 62.2258 88.1629 61.4187C87.1917 61.044 86.1772 60.8559 85.1433 60.8559C82.1076 60.8559 79.3035 62.5297 77.8146 65.1248L72.1581 62.9542L74.75 56.1641C75.004 55.4937 74.6712 54.7428 74.0039 54.4871C72.5424 53.9244 71.3847 52.8294 70.748 51.3968C70.1113 49.9642 70.0679 48.3692 70.6274 46.9044C71.4876 44.6453 73.6872 43.1275 76.1022 43.1275C76.8161 43.1275 77.5171 43.2577 78.1908 43.515C78.8549 43.7706 79.6058 43.4362 79.8614 42.7657L82.4517 35.9773L109.35 46.2998L99.0546 73.2752Z" fill="white"/>
</svg>
