<?xml version="1.0" encoding="UTF-8"?>
<svg xmlns="http://www.w3.org/2000/svg" id="Layer_1" data-name="Layer 1" viewBox="0 0 1061 251"><defs><style>.cls-1{fill:#1e3a5b;}.cls-2{fill:#496791;}.cls-3{fill:none;stroke:#fff;stroke-miterlimit:10;stroke-width:1.16px;}.cls-4{fill:#fff;}</style></defs><path class="cls-1" d="M257.28,95.18v58.7h11.6v14.69H238.2V95.18Z"/><path class="cls-1" d="M292.59,95.18v73.39H273.51V95.18Z"/><path class="cls-1" d="M300.25,95.18h32.32v14.69H319.34v13.91h11.78v14H319.34v30.82H300.25Z"/><path class="cls-1" d="M337.2,95.18H369v14.69H356.28v13.91h11.93v14H356.28v16.13h14v14.69H337.2Z"/><path class="cls-1" d="M430.58,95.18v14.69H419.25v58.7H400.16v-58.7H388.88V95.18Z"/><path class="cls-1" d="M434.93,95.18h13.51q13.51,0,18.29,1a12.6,12.6,0,0,1,7.8,5.33q3,4.29,3,13.67,0,8.57-2.13,11.51c-1.42,2-4.21,3.14-8.38,3.54,3.77.93,6.31,2.19,7.61,3.76a11.24,11.24,0,0,1,2.43,4.33c.32,1.31.47,4.93.47,10.86v19.35H459.82V144.18c0-3.92-.31-6.36-.93-7.29s-2.24-1.41-4.87-1.41v33.09H434.93ZM454,107.74v16.32a8.39,8.39,0,0,0,4.51-.89q1.29-.89,1.29-5.73v-4c0-2.32-.42-3.85-1.25-4.57S456.22,107.74,454,107.74Z"/><path class="cls-1" d="M517.92,95.18l10.92,73.39H509.33l-1-13.19h-6.83l-1.15,13.19H480.6l9.74-73.39Zm-10.11,47.19q-1.46-12.47-2.91-30.82-2.91,21.08-3.66,30.82Z"/><path class="cls-1" d="M574.69,95.18v73.39H558L548,135.21v33.36H532.08V95.18H548l10.7,33v-33Z"/><path class="cls-1" d="M622.78,117.39H605.06V112c0-2.54-.23-4.15-.68-4.85a2.51,2.51,0,0,0-2.27-1,2.87,2.87,0,0,0-2.6,1.41,8.12,8.12,0,0,0-.89,4.26,11.93,11.93,0,0,0,1,5.53c.63,1.25,2.43,2.74,5.39,4.49q12.74,7.56,16,12.42t3.31,15.63q0,7.84-1.84,11.56t-7.09,6.24a28.19,28.19,0,0,1-12.24,2.51,27.29,27.29,0,0,1-13.08-2.9q-5.42-2.9-7.09-7.39t-1.68-12.74v-4.8h17.73v8.93q0,4.13.74,5.3a2.9,2.9,0,0,0,2.66,1.18,3.11,3.11,0,0,0,2.83-1.49,8.55,8.55,0,0,0,.93-4.45q0-6.48-1.77-8.47t-8.93-6.67a88.08,88.08,0,0,1-9.43-6.84,16.05,16.05,0,0,1-3.83-5.89,26,26,0,0,1-1.52-9.61q0-8.44,2.16-12.34a14.46,14.46,0,0,1,7-6.09,27.74,27.74,0,0,1,11.61-2.2A30.28,30.28,0,0,1,614.15,96q5.24,2.4,6.93,6t1.7,12.4Z"/><path class="cls-1" d="M630.36,95.18h32.32v14.69H649.44v13.91h11.79v14H649.44v30.82H630.36Z"/><path class="cls-1" d="M710.91,138.15q0,11.07-.52,15.67a17.54,17.54,0,0,1-10.68,14.25,27,27,0,0,1-10.88,2,27.71,27.71,0,0,1-10.58-1.92,17.64,17.64,0,0,1-11-14.17,156.1,156.1,0,0,1-.54-15.87V125.6q0-11.07.52-15.66A17.53,17.53,0,0,1,678,95.68a27,27,0,0,1,10.88-2,27.57,27.57,0,0,1,10.59,1.93,17.66,17.66,0,0,1,10.94,14.16,152.31,152.31,0,0,1,.55,15.87ZM691.82,114q0-5.13-.56-6.55a2.27,2.27,0,0,0-2.34-1.43,2.62,2.62,0,0,0-2.29,1.16q-.79,1.16-.79,6.82v34.27q0,6.39.52,7.89a2.28,2.28,0,0,0,2.43,1.49,2.34,2.34,0,0,0,2.49-1.72c.36-1.15.54-3.88.54-8.21Z"/><path class="cls-1" d="M718,95.18h13.5q13.51,0,18.29,1a12.6,12.6,0,0,1,7.8,5.33q3,4.29,3,13.67,0,8.57-2.13,11.51c-1.42,2-4.22,3.14-8.39,3.54,3.78.93,6.32,2.19,7.62,3.76a11.33,11.33,0,0,1,2.42,4.33q.48,2,.48,10.86v19.35H742.91V144.18c0-3.92-.31-6.36-.93-7.29s-2.24-1.41-4.87-1.41v33.09H718Zm19.08,12.56v16.32a8.39,8.39,0,0,0,4.51-.89q1.29-.89,1.29-5.73v-4c0-2.32-.41-3.85-1.24-4.57S739.32,107.74,737.11,107.74Z"/><path class="cls-1" d="M826.91,95.18v73.39H810.23l0-49.55-6.64,49.55H791.73l-7-48.41,0,48.41H768V95.18h24.69q1.1,6.61,2.27,15.6l2.71,18.67,4.38-34.27Z"/><path class="cls-1" d="M867.56,95.18l10.91,73.39H859l-1-13.19h-6.83L850,168.57H830.24L840,95.18Zm-10.11,47.19q-1.46-12.47-2.91-30.82-2.91,21.08-3.66,30.82Z"/><path class="cls-1" d="M915,95.18v14.69H903.7v58.7H884.62v-58.7H873.33V95.18Z"/><path class="cls-1" d="M938.47,95.18v73.39H919.39V95.18Z"/><path class="cls-1" d="M991.51,95.18l-9.71,73.39h-29l-11-73.39h20.13q3.51,30.33,5,51.32,1.47-21.23,3.14-37.67l1.32-13.65Z"/><path class="cls-1" d="M994.73,95.18h31.82v14.69h-12.74v13.91h11.92v14h-11.92v16.13h14v14.69H994.73Z"/><path class="cls-2" d="M275.66,34.78l3.73,11.38h-1.08A32.39,32.39,0,0,0,275,41a18.48,18.48,0,0,0-3.57-3.52,13.4,13.4,0,0,0-4-2,16.6,16.6,0,0,0-4.75-.63,17.1,17.1,0,0,0-7,1.43,16.58,16.58,0,0,0-5.64,4,18.63,18.63,0,0,0-3.71,6.18,22,22,0,0,0-1.32,7.68,25.76,25.76,0,0,0,2.45,11.32,19.76,19.76,0,0,0,6.74,8A16.94,16.94,0,0,0,270.52,75a17.29,17.29,0,0,0,5.59-4,24.63,24.63,0,0,0,4.27-6.66h1.3A21.78,21.78,0,0,1,273.62,75a22.92,22.92,0,0,1-13.16,3.65q-9.07,0-15-4.91a21.37,21.37,0,0,1-4.29-4.84A22.46,22.46,0,0,1,238.48,63a23.94,23.94,0,0,1-.92-6.65,21.8,21.8,0,0,1,3.2-11.59,22.54,22.54,0,0,1,8.82-8.27,25.93,25.93,0,0,1,12.45-3,44.79,44.79,0,0,1,7.55.83,29.39,29.39,0,0,0,4.71.6A7.53,7.53,0,0,0,275.66,34.78ZM259.25,77.61a27.34,27.34,0,0,1-7.32-3.19,20.72,20.72,0,0,1-5.48-4.94A20.46,20.46,0,0,1,243.12,63,26.61,26.61,0,0,1,242,55a26.35,26.35,0,0,1,.58-5.74,18,18,0,0,1,1.86-4.86,19.23,19.23,0,0,1,3.27-4.28,32.1,32.1,0,0,1,4.81-3.89,26.56,26.56,0,0,0-5.89,3.55,21.59,21.59,0,0,0-4.31,4.62A19.77,19.77,0,0,0,239.66,50a22.32,22.32,0,0,0-.89,6.36,22.55,22.55,0,0,0,1,6.81,21.55,21.55,0,0,0,2.9,6,18.21,18.21,0,0,0,4.55,4.59,21.19,21.19,0,0,0,5.53,2.76A26.2,26.2,0,0,0,259.25,77.61Z"/><path class="cls-2" d="M284.17,64.73a12.63,12.63,0,0,1,2-6.86,14.11,14.11,0,0,1,5.39-5A15.3,15.3,0,0,1,299,51a15.73,15.73,0,0,1,5.71,1A14.66,14.66,0,0,1,309.4,55a13.39,13.39,0,0,1,3.17,4.43,13,13,0,0,1-.82,12.15,13.93,13.93,0,0,1-5.36,5A15.28,15.28,0,0,1,299,78.43a15.62,15.62,0,0,1-7.46-1.81,14,14,0,0,1-5.4-5A12.69,12.69,0,0,1,284.17,64.73Zm9.43,11.89a22.92,22.92,0,0,1-2.09-1.8,10.58,10.58,0,0,1-1.19-1.58,16.07,16.07,0,0,1-2-8.54q0-8.67,5.89-12.17a14,14,0,0,0-4.7,2.87,13.47,13.47,0,0,0-3.12,4.27,12.19,12.19,0,0,0,0,10.1,12.41,12.41,0,0,0,3,4.17,21,21,0,0,0,1.69,1.28C291.48,75.49,292.33,76,293.6,76.62Zm-2.45-12.08a22,22,0,0,0,.55,5.1,13.19,13.19,0,0,0,1.61,4,8,8,0,0,0,2.5,2.53,6,6,0,0,0,6.33,0,7.73,7.73,0,0,0,2.48-2.51,13,13,0,0,0,1.58-4,22.2,22.2,0,0,0,.56-5.1,20,20,0,0,0-1-6.5,10.05,10.05,0,0,0-2.74-4.39,6,6,0,0,0-4.1-1.57,6.45,6.45,0,0,0-5.67,3.45A16.93,16.93,0,0,0,291.15,64.54ZM302.2,77.13a14.74,14.74,0,0,0,6.42-5,12.59,12.59,0,0,0,2.22-7.35,13.6,13.6,0,0,0-2.15-7.55A11.67,11.67,0,0,0,303,52.5q4.88,3.57,4.87,12.14a18.75,18.75,0,0,1-1.22,7.23,11.66,11.66,0,0,1-3.91,4.88Z"/><path class="cls-2" d="M333.33,74.83a12.79,12.79,0,0,1-8.41,3.32,8.43,8.43,0,0,1-5.75-1.87A6.16,6.16,0,0,1,317,71.39c0-2.86,1.4-5.12,4.2-6.75s6.84-2.56,12.11-2.77V60.53a29.81,29.81,0,0,0-.22-4.06,7.58,7.58,0,0,0-.64-2.38,3.85,3.85,0,0,0-1.35-1.48,3.51,3.51,0,0,0-1.9-.56,3,3,0,0,0-2.36,1,5.44,5.44,0,0,0-1.08,3,5.86,5.86,0,0,1-.83,2.72,2.38,2.38,0,0,1-2,.72,2.42,2.42,0,0,1-1.82-.77,2.73,2.73,0,0,1-.73-2,4.3,4.3,0,0,1,1.18-3,7.89,7.89,0,0,1,3.26-2.09,13.2,13.2,0,0,1,4.57-.76,11.8,11.8,0,0,1,5.64,1.29,8.25,8.25,0,0,1,3.6,3.58,8.83,8.83,0,0,1,.91,2.65,23.4,23.4,0,0,1,.27,4v9.18a6.8,6.8,0,0,0,.78,3.76,4.4,4.4,0,0,0,2.95,1.5v.86H333.33Zm-7,2.43c-3.61-.75-5.41-2.72-5.41-5.93A6.89,6.89,0,0,1,323.42,66a20.83,20.83,0,0,1,4.3-2.52,18.79,18.79,0,0,0-6,2,6.69,6.69,0,0,0-3.63,5.89A5.37,5.37,0,0,0,320,75.65a7.44,7.44,0,0,0,5,1.64C325.5,77.29,325.94,77.28,326.32,77.26Zm0-25.18A8,8,0,0,0,322.74,54a3.89,3.89,0,0,0-1.36,2.88,1.49,1.49,0,0,0,.29,1,1,1,0,0,0,.77.35.8.8,0,0,0,.66-.27,2.72,2.72,0,0,0,.39-1.1,8.29,8.29,0,0,1,.9-2.69A8.57,8.57,0,0,1,326.32,52.08Zm7,21.35V62.89a17.6,17.6,0,0,0-5.3,1.59,8.83,8.83,0,0,0-3.4,2.83,6.64,6.64,0,0,0-1.18,3.8,5,5,0,0,0,1.26,3.48A4.09,4.09,0,0,0,327.88,76Q330.24,76,333.33,73.43Zm1.08,3h4.72l-.73-.58c-.07-.06-.11-.09-.13-.09l-.41-.32a1.64,1.64,0,0,1-.48-1.21v-.64l0-.32V62.41a16.51,16.51,0,0,0-1-6.63,6.82,6.82,0,0,0-4.5-3.76,6.07,6.07,0,0,1,2.39,4.56c.13,1.27.19,3.25.19,5.92Z"/><path class="cls-2" d="M346.46,77.8v-.86a4.49,4.49,0,0,0,3-1.48,6.72,6.72,0,0,0,.8-3.78V40.9a6.78,6.78,0,0,0-.81-3.81,4.29,4.29,0,0,0-3-1.45v-.7l10.26-1.18V71.68a6.8,6.8,0,0,0,.78,3.76,4.38,4.38,0,0,0,2.95,1.5v.86Zm3.18-1.4H356l-.77-.58a.38.38,0,0,0-.13-.09l-.41-.32a1.73,1.73,0,0,1-.48-1.21V35.1l-5.22.58,1.24.89s.06,0,.13.09l.41.32a1.09,1.09,0,0,1,.42.66,8.47,8.47,0,0,1,.09,1.51V73.24a5.79,5.79,0,0,1-.13,1.63,2.72,2.72,0,0,1-.76.86c-.06,0-.1.07-.1.09Z"/><path class="cls-2" d="M363.47,77.8v-.86a4.52,4.52,0,0,0,3-1.48,6.73,6.73,0,0,0,.79-3.78V58.3a6.74,6.74,0,0,0-.81-3.81A4.21,4.21,0,0,0,363.47,53v-.7l10.26-1.18V71.68a6.8,6.8,0,0,0,.78,3.76,4.38,4.38,0,0,0,2.95,1.5v.86Zm3.19-1.4H373l-.76-.58-.13-.09-.42-.32a1.77,1.77,0,0,1-.47-1.21V52.5l-5.23.57,1.24.89s.07,0,.13.1l.42.32a1,1,0,0,1,.41.65,8.33,8.33,0,0,1,.1,1.52V73.24a6.22,6.22,0,0,1-.13,1.63,2.79,2.79,0,0,1-.77.86q-.09.06-.09.09Zm-.29-33.94a3.74,3.74,0,0,1,1.09-2.71,3.85,3.85,0,0,1,5.41,0A3.77,3.77,0,0,1,374,42.46a3.79,3.79,0,1,1-7.58,0Zm3.63-3a2.77,2.77,0,0,0-1.92.94,2.91,2.91,0,0,0,0,4.06,2.52,2.52,0,0,0,1.91.89.64.64,0,0,0,.71-.73c0-.38,0-1.16,0-2.32s0-1.85,0-2.17A.65.65,0,0,0,370,39.5Z"/><path class="cls-2" d="M388.8,52.66V69.54a20.43,20.43,0,0,0,.31,4,4.59,4.59,0,0,0,.95,2.22,2.25,2.25,0,0,0,1.74.7c1.29,0,2.89-.77,4.78-2.3l.47.77a18,18,0,0,1-3.88,2.68,8.37,8.37,0,0,1-3.6.82,6.52,6.52,0,0,1-5.44-2.37q-1.86-2.37-1.86-6.9V52.56h-2.93V51.8a8.44,8.44,0,0,0,4.17-1.72,10.1,10.1,0,0,0,2.89-3.87A22,22,0,0,0,388,40.14h.8V51.7h7v1Zm-2.51-4.11a8.25,8.25,0,0,1-2.94,2.9v17a29.81,29.81,0,0,0,.16,3.2,8.63,8.63,0,0,0,.5,2.22,5.89,5.89,0,0,0,1,1.62,5.82,5.82,0,0,0,4.62,2.07c.34,0,.64,0,.89,0a6.76,6.76,0,0,1-2.18-.83,3.42,3.42,0,0,1-1.23-1.48,9,9,0,0,1-.63-2.66,37.54,37.54,0,0,1-.19-4.17V48.55Z"/><path class="cls-2" d="M398.27,77.8v-.86a4.49,4.49,0,0,0,3-1.48,6.73,6.73,0,0,0,.79-3.78V58.3a6.74,6.74,0,0,0-.81-3.81A4.2,4.2,0,0,0,398.27,53v-.7l10.25-1.18V71.68a6.7,6.7,0,0,0,.79,3.76,4.38,4.38,0,0,0,2.94,1.5v.86Zm3.18-1.4h6.37l-.76-.58a.51.51,0,0,0-.13-.09l-.41-.32A1.73,1.73,0,0,1,406,74.2V52.5l-5.23.57,1.25.89s.06,0,.12.1l.42.32A1,1,0,0,1,403,55a7.5,7.5,0,0,1,.1,1.52V73.24a5.79,5.79,0,0,1-.13,1.63,2.72,2.72,0,0,1-.76.86c-.07,0-.1.07-.1.09Zm-.29-33.94a3.78,3.78,0,0,1,1.09-2.71,3.85,3.85,0,0,1,5.41,0,3.74,3.74,0,0,1,1.09,2.71,3.83,3.83,0,0,1-6.5,2.71A3.68,3.68,0,0,1,401.16,42.46Zm3.64-3a2.77,2.77,0,0,0-1.93.94,2.92,2.92,0,0,0,0,4.06,2.5,2.5,0,0,0,1.91.89c.46,0,.7-.24.7-.73s0-1.16,0-2.32,0-1.85,0-2.17A.64.64,0,0,0,404.8,39.5Z"/><path class="cls-2" d="M415,64.73a12.64,12.64,0,0,1,2-6.86,14.08,14.08,0,0,1,5.38-5A15.31,15.31,0,0,1,429.84,51a15.63,15.63,0,0,1,5.7,1A14.6,14.6,0,0,1,440.26,55a13.54,13.54,0,0,1,3.17,4.43,12.94,12.94,0,0,1,1.13,5.3,12.79,12.79,0,0,1-2,6.85,13.9,13.9,0,0,1-5.35,5,15.29,15.29,0,0,1-7.38,1.83,15.58,15.58,0,0,1-7.45-1.81,13.9,13.9,0,0,1-5.4-5A12.7,12.7,0,0,1,415,64.73Zm9.44,11.89a22.92,22.92,0,0,1-2.09-1.8,11.28,11.28,0,0,1-1.2-1.58,16.07,16.07,0,0,1-2-8.54q0-8.67,5.9-12.17a13.93,13.93,0,0,0-4.7,2.87,13.31,13.31,0,0,0-3.12,4.27,11.85,11.85,0,0,0-1.1,5.06,12.44,12.44,0,0,0,4.11,9.21,19.31,19.31,0,0,0,1.69,1.28C422.33,75.49,423.18,76,424.46,76.62ZM422,64.54a22,22,0,0,0,.56,5.1,12.94,12.94,0,0,0,1.61,4,7.85,7.85,0,0,0,2.5,2.53,5.89,5.89,0,0,0,3.17.89,5.8,5.8,0,0,0,3.15-.91,7.76,7.76,0,0,0,2.49-2.51,13.27,13.27,0,0,0,1.58-4,22.21,22.21,0,0,0,.55-5.1,20,20,0,0,0-1-6.5,10.05,10.05,0,0,0-2.74-4.39,6,6,0,0,0-4.09-1.57,6.43,6.43,0,0,0-5.67,3.45A16.83,16.83,0,0,0,422,64.54Zm11.06,12.59a14.86,14.86,0,0,0,6.42-5,12.65,12.65,0,0,0,2.21-7.35,13.52,13.52,0,0,0-2.15-7.55,11.63,11.63,0,0,0-5.72-4.68q4.88,3.57,4.88,12.14a18.55,18.55,0,0,1-1.23,7.23,11.71,11.71,0,0,1-3.9,4.88Z"/><path class="cls-2" d="M458.13,57.63a32.16,32.16,0,0,1,3.79-3.84,12.41,12.41,0,0,1,3.51-2.15,10.17,10.17,0,0,1,3.66-.64,9.14,9.14,0,0,1,4.51,1.15,8,8,0,0,1,3.2,3.09,11.52,11.52,0,0,1,1.28,5.86V71.68a6.8,6.8,0,0,0,.78,3.76,4.38,4.38,0,0,0,2.95,1.5v.86h-14v-.86a4.4,4.4,0,0,0,2.95-1.5,6.8,6.8,0,0,0,.78-3.76V60.91a17.3,17.3,0,0,0-.45-4.81,4.58,4.58,0,0,0-1.53-2.28,4,4,0,0,0-2.52-.81,6.76,6.76,0,0,0-4,1.37,30.28,30.28,0,0,0-5,4.94V71.68a6.8,6.8,0,0,0,.78,3.76,4.4,4.4,0,0,0,2.95,1.5v.86h-14v-.86a4.49,4.49,0,0,0,3-1.48,6.73,6.73,0,0,0,.79-3.78V58.3a6.74,6.74,0,0,0-.81-3.81A4.21,4.21,0,0,0,447.87,53v-.7l10.26-1.18ZM451.06,76.4h6.37l-.76-.58-.13-.09-.41-.32a1.73,1.73,0,0,1-.48-1.21V52.5l-5.23.57,1.25.89s.06,0,.12.1l.42.32a1,1,0,0,1,.41.65,8.33,8.33,0,0,1,.1,1.52V73.24a6.22,6.22,0,0,1-.13,1.63,2.79,2.79,0,0,1-.77.86q-.09.06-.09.09Zm19.94,0h6.35l-.74-.58q-.09-.09-.12-.09l-.42-.32a1.64,1.64,0,0,1-.48-1.21v-.64l0-.32V61.07a18.16,18.16,0,0,0-.32-3.82,6.55,6.55,0,0,0-1.08-2.46A6.11,6.11,0,0,0,469,52.12q-.31,0-1.47.12a6.24,6.24,0,0,1,3.06,1.17A4.86,4.86,0,0,1,472.17,56a19.73,19.73,0,0,1,.46,4.84V73.24a7.17,7.17,0,0,1-.11,1.63,2.65,2.65,0,0,1-.75.86.21.21,0,0,1-.08.06l-.05,0Z"/><path class="cls-2" d="M516.31,51.7h6.82v1h-6.82v19a8.1,8.1,0,0,0,.4,2.8,3.06,3.06,0,0,0,1.35,1.64,7.4,7.4,0,0,0,2.65.82v.86H506.05v-.86a4.41,4.41,0,0,0,3-1.5,6.8,6.8,0,0,0,.78-3.76v-19h-2.74v-1h2.74V48.8a43.06,43.06,0,0,1,.32-5.78,13.69,13.69,0,0,1,1.05-3.84,9.45,9.45,0,0,1,3.57-4.06A9.65,9.65,0,0,1,520,33.64a9.11,9.11,0,0,1,4.12,1,7.43,7.43,0,0,1,3,2.62,6.55,6.55,0,0,1,1.06,3.63,3.54,3.54,0,0,1-.81,2.44,2.69,2.69,0,0,1-2.09.9,2.5,2.5,0,0,1-2-.89,3.54,3.54,0,0,1-.77-2.39l.07-1.56v-.61q0-3.94-2.46-3.95a2.73,2.73,0,0,0-2.35,1.45,9.29,9.29,0,0,0-1.18,4.1q-.26,2.39-.26,7.49Zm-7.07,24.7h6.37l-.76-.58-.13-.09-.38-.32a1.57,1.57,0,0,1-.48-1.21l0-.64V48.23c0-2,0-3.73.17-5.27a19.31,19.31,0,0,1,.64-3.89,7.58,7.58,0,0,1,1.26-2.58,9.06,9.06,0,0,1,1.94-1.8,11.77,11.77,0,0,0-3.39,1.81,7.59,7.59,0,0,0-2.14,2.73,13.73,13.73,0,0,0-1.1,4,45.77,45.77,0,0,0-.31,5.91V73.24a6.41,6.41,0,0,1-.12,1.63,2.42,2.42,0,0,1-.75.86l-.07.06s0,0,0,0Zm12.84-41.55a3.25,3.25,0,0,1,1.15,1.54,8.23,8.23,0,0,1,.35,2.66c0,.53,0,1.09,0,1.66V41c0,1.34.44,2,1.31,2s1.27-.65,1.27-2A7.07,7.07,0,0,0,525,37.09,5.22,5.22,0,0,0,522.08,34.85Z"/><path class="cls-2" d="M525,64.73a12.63,12.63,0,0,1,2-6.86,14.11,14.11,0,0,1,5.39-5A15.31,15.31,0,0,1,539.83,51a15.71,15.71,0,0,1,5.7,1A14.66,14.66,0,0,1,550.24,55a13.39,13.39,0,0,1,3.17,4.43,12.92,12.92,0,0,1-.82,12.15,13.86,13.86,0,0,1-5.36,5,15.28,15.28,0,0,1-7.37,1.83,15.62,15.62,0,0,1-7.46-1.81,14,14,0,0,1-5.4-5A12.69,12.69,0,0,1,525,64.73Zm9.43,11.89a24.44,24.44,0,0,1-2.09-1.8,10.58,10.58,0,0,1-1.19-1.58,16.07,16.07,0,0,1-2-8.54q0-8.67,5.89-12.17a14,14,0,0,0-4.7,2.87,13.62,13.62,0,0,0-3.12,4.27,12.19,12.19,0,0,0,0,10.1,12.41,12.41,0,0,0,3,4.17,21,21,0,0,0,1.69,1.28C532.32,75.49,533.17,76,534.44,76.62ZM532,64.54a21.42,21.42,0,0,0,.56,5.1,12.93,12.93,0,0,0,1.6,4,8,8,0,0,0,2.51,2.53,6,6,0,0,0,6.32,0,7.73,7.73,0,0,0,2.48-2.51,13,13,0,0,0,1.58-4,22.2,22.2,0,0,0,.56-5.1,20,20,0,0,0-1-6.5,10.05,10.05,0,0,0-2.74-4.39,6,6,0,0,0-4.1-1.57,6.46,6.46,0,0,0-5.67,3.45A16.93,16.93,0,0,0,532,64.54Zm11,12.59a14.74,14.74,0,0,0,6.42-5,12.59,12.59,0,0,0,2.22-7.35,13.6,13.6,0,0,0-2.15-7.55,11.67,11.67,0,0,0-5.72-4.68q4.88,3.57,4.87,12.14a18.75,18.75,0,0,1-1.22,7.23,11.66,11.66,0,0,1-3.91,4.88Z"/><path class="cls-2" d="M568.12,57.37a19.47,19.47,0,0,1,3.33-5A4.79,4.79,0,0,1,574.87,51a5.1,5.1,0,0,1,4,1.91,7.11,7.11,0,0,1,1.62,4.75,4.62,4.62,0,0,1-.74,2.8,2.51,2.51,0,0,1-2.12,1,2.46,2.46,0,0,1-1.91-.8,2.89,2.89,0,0,1-.74-2,6.2,6.2,0,0,1,.16-1.27l.29-1.21a8.92,8.92,0,0,0,.25-2,1.89,1.89,0,0,0-.46-1.35,1.6,1.6,0,0,0-1.23-.49,2.79,2.79,0,0,0-1.75.68,9.32,9.32,0,0,0-1.83,2.2q-1,1.52-2.34,4.22v12.3a5.85,5.85,0,0,0,.94,3.76,5.53,5.53,0,0,0,3.45,1.5v.86H557.86v-.86a4.49,4.49,0,0,0,3-1.48,6.72,6.72,0,0,0,.8-3.78V58.3a6.74,6.74,0,0,0-.81-3.81A4.25,4.25,0,0,0,557.86,53v-.7l10.26-1.18ZM561,76.4h6.38l-.77-.58a.47.47,0,0,0-.12-.09l-.42-.32a1.73,1.73,0,0,1-.48-1.21V52.5l-5.22.57,1.24.89s.06,0,.13.1l.41.32a1.1,1.1,0,0,1,.42.65,8.6,8.6,0,0,1,.09,1.52V73.24a5.79,5.79,0,0,1-.13,1.63,2.72,2.72,0,0,1-.76.86c-.06,0-.1.07-.1.09Zm14.85-24a3.52,3.52,0,0,1,.74,2.14,10.33,10.33,0,0,1-.36,2.42,10.24,10.24,0,0,0-.31,1.81c0,.9.36,1.34,1.08,1.34.91,0,1.37-.86,1.37-2.58A6,6,0,0,0,575.89,52.37Z"/><path class="cls-2" d="M796,184.81l1.21,11.85h-1q-1.66-5.47-4.92-8.08a13.25,13.25,0,0,0-8.49-2.59H781c-2.78,0-4.75.53-5.91,1.61s-1.74,2.86-1.74,5.37V203.8h4.24q4.82,0,7-1.52c1.47-1,2.47-2.83,3-5.46h1v16.12h-1a14.73,14.73,0,0,0-1.71-4.86,5.7,5.7,0,0,0-3-2.35,16,16,0,0,0-5.24-.69h-4.34v13.8a15.27,15.27,0,0,0,.59,4.82A3.88,3.88,0,0,0,776,226a10.53,10.53,0,0,0,4.16.66h2.93a14.27,14.27,0,0,0,8.22-2.67,39.46,39.46,0,0,0,8.45-8.35l.25-.35h1.12l-3.76,13H759.78v-1a7.49,7.49,0,0,0,5-2.64q1.22-1.53,1.21-6.09V194.53a19.15,19.15,0,0,0-.32-4.21,4.86,4.86,0,0,0-1.18-2.23,7.74,7.74,0,0,0-4.71-2.29v-1Zm-31.8,41.86h9.3l-1.24-.92a6.26,6.26,0,0,1-1.39-1.27,2.76,2.76,0,0,1-.3-1.44c0-.34,0-.57,0-.68s0-.24,0-.37V191.12c0-.13,0-.26,0-.39s0-.35,0-.66a2.72,2.72,0,0,1,.34-1.49,4.77,4.77,0,0,1,1.35-1.22l1.82-1.34H763.67l1.81,1.34a5.81,5.81,0,0,1,1.39,1.27,2.76,2.76,0,0,1,.3,1.44q0,.54,0,1.05V222q0,.51,0,1a2.74,2.74,0,0,1-.29,1.45,5.36,5.36,0,0,1-1.4,1.26Zm22.08-24.24a10.24,10.24,0,0,1-1.39,1.13,16.41,16.41,0,0,1-2,.91,8.41,8.41,0,0,1,3.44,2.07ZM793.65,186h-4.59a12.22,12.22,0,0,1,2.87,1.59,14.75,14.75,0,0,1,2.42,2.64Zm1.5,40.68,1.78-5.92c-.77.85-1.52,1.62-2.28,2.31a19.46,19.46,0,0,1-2.55,2,27.7,27.7,0,0,1-2.88,1.65Z"/><path class="cls-2" d="M824.49,225.05l-.13.1a13.67,13.67,0,0,1-9.14,3.79,12.56,12.56,0,0,1-6.34-1.64,11.9,11.9,0,0,1-4.51-4.56,12.72,12.72,0,0,1-1.64-6.39,14.73,14.73,0,0,1,1.89-7.26,14.9,14.9,0,0,1,5.12-5.45,12.19,12.19,0,0,1,14.75,1V191.4a6.87,6.87,0,0,0-.8-3.79,4.13,4.13,0,0,0-2.93-1.46v-.7L831,184.27v37.91a6.57,6.57,0,0,0,.81,3.76,4.46,4.46,0,0,0,3,1.5v.86H824.49Zm-11,2.93a20.59,20.59,0,0,1-2.87-1.94,10,10,0,0,1-1.81-2.2,15.07,15.07,0,0,1-2.17-8.16,16.6,16.6,0,0,1,1.18-6.62,18.37,18.37,0,0,1,4.08-5.64,16.91,16.91,0,0,0-6.07,5.62,13.62,13.62,0,0,0-2.06,7.34,11.31,11.31,0,0,0,2.57,7.46A12.6,12.6,0,0,0,813.53,228Zm11-21.57-.26-.22a18.85,18.85,0,0,0-3.74-2.62,7.32,7.32,0,0,0-3.27-.82,6,6,0,0,0-4,1.48,9.49,9.49,0,0,0-2.71,4.2,19.64,19.64,0,0,0-1,6.42,20.09,20.09,0,0,0,.92,6.34,10.15,10.15,0,0,0,2.63,4.38,5.59,5.59,0,0,0,3.93,1.58c2.32,0,4.8-1.45,7.46-4.36Zm1.08,20.49h4.72l-.73-.58a.38.38,0,0,1-.13-.09l-.42-.32a1.63,1.63,0,0,1-.47-1.21l0-.64V185.6l-5.22.58,1.24.89s.06,0,.13.1l.41.31a1.08,1.08,0,0,1,.42.59,8.49,8.49,0,0,1,.09,1.58Z"/><path class="cls-2" d="M859.6,222.66a20.56,20.56,0,0,1-5.19,4.86A10.32,10.32,0,0,1,849,229a9.24,9.24,0,0,1-4.57-1.13,8.24,8.24,0,0,1-3.17-3.11,11.81,11.81,0,0,1-1.18-5.86V208.8a6.86,6.86,0,0,0-.79-3.79,4.16,4.16,0,0,0-2.94-1.47v-.7l10.26-1.18v17.43a17.06,17.06,0,0,0,.45,4.81,4.62,4.62,0,0,0,1.51,2.28A3.79,3.79,0,0,0,851,227a6.69,6.69,0,0,0,3.74-1.21,23,23,0,0,0,4.35-4.17l.51-.61V208.8a6.85,6.85,0,0,0-.8-3.79,4.11,4.11,0,0,0-2.93-1.47v-.7l10.26-1.18v20.52a6.77,6.77,0,0,0,.78,3.76,4.36,4.36,0,0,0,3,1.5v.86H859.6ZM844.12,203l-5.23.6,1.28.9h0l.08.08.42.32a.93.93,0,0,1,.38.57,8.83,8.83,0,0,1,.09,1.6v11.88a14.05,14.05,0,0,0,.42,3.75,7.67,7.67,0,0,0,1.34,2.66,8.9,8.9,0,0,0,2.56,2.1,5.74,5.74,0,0,0,2.69.73l.93-.06a5.63,5.63,0,0,1-3-1.23,5.43,5.43,0,0,1-1.55-2.77,21.08,21.08,0,0,1-.47-5Zm16.56,23.93h4.72l-.73-.58c-.07-.06-.11-.09-.13-.09l-.41-.32a1.64,1.64,0,0,1-.48-1.21v-.64l0-.32V203l-5.23.57,1.27.9h.05l.08.08.42.32a.93.93,0,0,1,.38.57,8.83,8.83,0,0,1,.09,1.6Z"/><path class="cls-2" d="M896.53,221.86l.73.9a29.39,29.39,0,0,1-3.87,3.71,11.71,11.71,0,0,1-3.58,1.92,14.86,14.86,0,0,1-10.84-1,11.57,11.57,0,0,1-4.59-4.56,13.23,13.23,0,0,1-1.65-6.58,15.17,15.17,0,0,1,4.17-10.45,13.9,13.9,0,0,1,4.64-3.14,14.43,14.43,0,0,1,5.62-1.13,12.82,12.82,0,0,1,5.07,1A9.52,9.52,0,0,1,896,205.2a5.74,5.74,0,0,1,1.39,3.7,3.28,3.28,0,0,1-.78,2.21,2.49,2.49,0,0,1-2,.91,2.75,2.75,0,0,1-2.58-1.66,9.14,9.14,0,0,1-.61-2.9,8,8,0,0,0-.83-3.06,3.6,3.6,0,0,0-1.46-1.35,4.66,4.66,0,0,0-2.17-.5,5.63,5.63,0,0,0-3.89,1.53,9.8,9.8,0,0,0-2.59,4.27,20.16,20.16,0,0,0-.91,6.38,18.31,18.31,0,0,0,1,6.42,9.67,9.67,0,0,0,3,4.33A6.84,6.84,0,0,0,888,227a7.49,7.49,0,0,0,2.77-.52,11.17,11.17,0,0,0,2.79-1.69A24.49,24.49,0,0,0,896.53,221.86Zm-11,6.25q-8.7-2.27-8.69-12.94a16.79,16.79,0,0,1,1.16-6.69,14.57,14.57,0,0,1,4.09-5.16q-8.19,4.2-8.19,12.84a12.42,12.42,0,0,0,1.5,6.1,11,11,0,0,0,4.16,4.27A11.87,11.87,0,0,0,885.5,228.11Zm5.42-24.79a7.46,7.46,0,0,1,1.19,2,15.65,15.65,0,0,1,.53,2.79,7.24,7.24,0,0,0,.56,2.2,1,1,0,0,0,1,.51q1.05,0,1.05-1.53Q895.22,206.16,890.92,203.32Z"/><path class="cls-2" d="M916.54,225.34a12.82,12.82,0,0,1-8.41,3.31,8.5,8.5,0,0,1-5.76-1.86,6.2,6.2,0,0,1-2.15-4.9c0-2.86,1.41-5.11,4.21-6.75s6.84-2.56,12.11-2.77V211a29.58,29.58,0,0,0-.23-4.06,7.78,7.78,0,0,0-.63-2.38,3.8,3.8,0,0,0-1.36-1.48,3.45,3.45,0,0,0-1.89-.56,3,3,0,0,0-2.36,1,5.3,5.3,0,0,0-1.08,3,5.82,5.82,0,0,1-.83,2.72,2.78,2.78,0,0,1-3.79,0,2.72,2.72,0,0,1-.74-2,4.36,4.36,0,0,1,1.18-3,8,8,0,0,1,3.27-2.09,13.16,13.16,0,0,1,4.57-.76,11.82,11.82,0,0,1,5.64,1.29,8.41,8.41,0,0,1,3.6,3.58,9.11,9.11,0,0,1,.91,2.65,23.53,23.53,0,0,1,.27,4v9.17a6.77,6.77,0,0,0,.78,3.76,4.34,4.34,0,0,0,2.95,1.5v.86H916.54Zm-7,2.42c-3.61-.75-5.42-2.72-5.42-5.93a6.91,6.91,0,0,1,2.52-5.35,20.28,20.28,0,0,1,4.3-2.52,18.7,18.7,0,0,0-6,2q-3.63,2.24-3.63,5.89a5.35,5.35,0,0,0,1.93,4.29,7.42,7.42,0,0,0,5,1.64C908.71,227.79,909.14,227.78,909.53,227.76Zm0-25.17a8,8,0,0,0-3.59,1.86,3.91,3.91,0,0,0-1.35,2.88,1.41,1.41,0,0,0,.29,1,.94.94,0,0,0,.76.35.82.82,0,0,0,.67-.27,2.6,2.6,0,0,0,.38-1.1,8.51,8.51,0,0,1,.91-2.69A8,8,0,0,1,909.53,202.59Zm7,21.34V213.39a18.05,18.05,0,0,0-5.31,1.59,8.73,8.73,0,0,0-3.39,2.84,6.52,6.52,0,0,0-1.18,3.79,5,5,0,0,0,1.26,3.49,4.1,4.1,0,0,0,3.17,1.38Q913.45,226.48,916.54,223.93Zm1.08,3h4.72l-.74-.58q-.09-.09-.12-.09l-.42-.32a1.64,1.64,0,0,1-.48-1.21v-.64l0-.32V212.91a16.51,16.51,0,0,0-1-6.63,6.81,6.81,0,0,0-4.49-3.76,6.1,6.1,0,0,1,2.39,4.56q.2,1.9.19,5.93Z"/><path class="cls-2" d="M938.23,203.16v16.89a21.32,21.32,0,0,0,.31,4,4.6,4.6,0,0,0,1,2.21,2.27,2.27,0,0,0,1.74.7c1.29,0,2.89-.76,4.78-2.29l.48.76a18,18,0,0,1-3.89,2.68,8.38,8.38,0,0,1-3.6.83,6.47,6.47,0,0,1-5.43-2.38q-1.87-2.37-1.87-6.9v-16.6h-2.93v-.76a8.48,8.48,0,0,0,4.18-1.72,9.91,9.91,0,0,0,2.88-3.87,22.38,22.38,0,0,0,1.58-6.07h.79V202.2h7v1Zm-2.51-4.11a8.22,8.22,0,0,1-2.93,2.9v17a27.42,27.42,0,0,0,.16,3.2,8.58,8.58,0,0,0,.49,2.22,6.14,6.14,0,0,0,1,1.62,5.82,5.82,0,0,0,4.62,2.07q.51,0,.9,0a6.73,6.73,0,0,1-2.19-.83,3.34,3.34,0,0,1-1.22-1.48,8.92,8.92,0,0,1-.64-2.66,37.41,37.41,0,0,1-.19-4.17V199.05Z"/><path class="cls-2" d="M947.7,228.3v-.86a4.49,4.49,0,0,0,3-1.48,6.69,6.69,0,0,0,.8-3.78V208.8a6.69,6.69,0,0,0-.82-3.81,4.24,4.24,0,0,0-2.94-1.45v-.7L958,201.66v20.52a6.77,6.77,0,0,0,.78,3.76,4.34,4.34,0,0,0,2.94,1.5v.86Zm3.18-1.4h6.38l-.77-.58a.38.38,0,0,0-.13-.09l-.41-.32a1.73,1.73,0,0,1-.48-1.21V203l-5.22.57,1.24.9s.06,0,.13.09l.41.32a1.1,1.1,0,0,1,.42.65,8.68,8.68,0,0,1,.09,1.52v16.69a5.74,5.74,0,0,1-.13,1.63,2.72,2.72,0,0,1-.76.86c-.07,0-.1.07-.1.09ZM950.6,193a3.73,3.73,0,0,1,1.08-2.71,3.84,3.84,0,0,1,5.42,0,3.73,3.73,0,0,1,1.08,2.71,3.79,3.79,0,1,1-7.58,0Zm3.63-3a2.79,2.79,0,0,0-1.93.94,2.91,2.91,0,0,0-.81,2,2.86,2.86,0,0,0,.83,2,2.53,2.53,0,0,0,1.91.9c.47,0,.7-.25.7-.74s0-1.15,0-2.32,0-1.85,0-2.17A.65.65,0,0,0,954.23,190Z"/><path class="cls-2" d="M964.46,215.24a12.64,12.64,0,0,1,2-6.87,14.16,14.16,0,0,1,5.38-5,15.41,15.41,0,0,1,7.44-1.83,15.63,15.63,0,0,1,5.7,1,14.6,14.6,0,0,1,4.72,2.93,13.5,13.5,0,0,1,3.17,4.43,13,13,0,0,1-.83,12.16,13.88,13.88,0,0,1-5.35,5,15.19,15.19,0,0,1-7.38,1.84,15.61,15.61,0,0,1-7.45-1.82,14,14,0,0,1-5.4-5A12.68,12.68,0,0,1,964.46,215.24Zm9.43,11.88a22.92,22.92,0,0,1-2.09-1.8,10.58,10.58,0,0,1-1.19-1.58,16.07,16.07,0,0,1-2-8.54q0-8.65,5.89-12.17a14,14,0,0,0-4.7,2.87,13.42,13.42,0,0,0-3.12,4.27,12,12,0,0,0-1.1,5.07,12.44,12.44,0,0,0,4.11,9.2,19.31,19.31,0,0,0,1.69,1.28C971.76,226,972.61,226.46,973.89,227.12ZM971.43,215a22,22,0,0,0,.56,5.1,12.83,12.83,0,0,0,1.61,4,7.85,7.85,0,0,0,2.5,2.53,6,6,0,0,0,6.33,0,8,8,0,0,0,2.48-2.52,12.91,12.91,0,0,0,1.58-4,22.2,22.2,0,0,0,.56-5.1,20,20,0,0,0-1-6.5,10,10,0,0,0-2.74-4.39,6,6,0,0,0-4.09-1.56,6.42,6.42,0,0,0-5.67,3.44A16.92,16.92,0,0,0,971.43,215Zm11.06,12.59a14.86,14.86,0,0,0,6.42-5,12.55,12.55,0,0,0,2.21-7.34,13.53,13.53,0,0,0-2.15-7.56,11.68,11.68,0,0,0-5.72-4.68q4.88,3.57,4.88,12.14a18.55,18.55,0,0,1-1.23,7.23,11.65,11.65,0,0,1-3.9,4.88Z"/><path class="cls-2" d="M1007.56,208.13a32.18,32.18,0,0,1,3.8-3.84,12.46,12.46,0,0,1,3.5-2.15,10.43,10.43,0,0,1,3.66-.64,9.25,9.25,0,0,1,4.51,1.15,8.24,8.24,0,0,1,3.21,3.09,11.66,11.66,0,0,1,1.27,5.86v10.58a6.77,6.77,0,0,0,.78,3.76,4.34,4.34,0,0,0,3,1.5v.86h-14v-.86a4.36,4.36,0,0,0,3-1.5,6.77,6.77,0,0,0,.78-3.76V211.41a17.3,17.3,0,0,0-.45-4.81,4.62,4.62,0,0,0-1.53-2.28,4,4,0,0,0-2.51-.81,6.79,6.79,0,0,0-4,1.37,30.28,30.28,0,0,0-5,4.94v12.36a6.67,6.67,0,0,0,.79,3.76,4.34,4.34,0,0,0,2.94,1.5v.86h-14v-.86a4.49,4.49,0,0,0,3-1.48,6.71,6.71,0,0,0,.79-3.78V208.8a6.78,6.78,0,0,0-.81-3.81,4.25,4.25,0,0,0-3-1.45v-.7l10.26-1.18Zm-7.07,18.77h6.37l-.76-.58a.51.51,0,0,0-.13-.09l-.41-.32a1.73,1.73,0,0,1-.48-1.21V203l-5.23.57,1.25.9s.06,0,.12.09l.42.32a1,1,0,0,1,.41.65,7.56,7.56,0,0,1,.1,1.52v16.69a5.74,5.74,0,0,1-.13,1.63,2.72,2.72,0,0,1-.76.86c-.07,0-.1.07-.1.09Zm20,0h6.34l-.74-.58q-.09-.09-.12-.09l-.42-.32a1.64,1.64,0,0,1-.48-1.21v-.64l0-.32V211.57a17.51,17.51,0,0,0-.32-3.82,6.62,6.62,0,0,0-1.08-2.46,6.11,6.11,0,0,0-5.13-2.67c-.21,0-.7,0-1.46.13a6.23,6.23,0,0,1,3,1.16,4.8,4.8,0,0,1,1.55,2.63,19.78,19.78,0,0,1,.46,4.84v12.36a7.11,7.11,0,0,1-.11,1.63,2.42,2.42,0,0,1-.75.86l-.08.06,0,0Z"/><rect class="cls-2" x="15" y="31.04" width="198.21" height="198.46"/><rect class="cls-3" x="20.95" y="37" width="186.32" height="186.55"/><path class="cls-4" d="M82.15,90.75,99.43,96A31.93,31.93,0,0,1,94,108.12a23.84,23.84,0,0,1-9.29,7.35Q79.11,118,70.53,118q-10.39,0-17-3T42.15,104.3q-4.78-7.62-4.79-19.49,0-15.84,8.43-24.34T69.62,52q12,0,18.95,4.87t10.25,15L81.41,75.69a15.12,15.12,0,0,0-1.91-4.27,11.34,11.34,0,0,0-4-3.48,12.45,12.45,0,0,0-15.63,4.17q-2.7,4-2.7,12.57,0,10.6,3.23,14.54t9.05,3.93q5.66,0,8.55-3.17T82.15,90.75Z"/><path class="cls-4" d="M81.63,89.83h19.71v48.1h30.78v15.71H81.63Z"/><path class="cls-4" d="M87.78,137.89h59.93v15.76H127.6v48H107.88v-48H87.78Z"/><path class="cls-4" d="M130.67,89.81h52.84v13.62H150.43v10.15h30.69v13H150.43v12.58h34v14.45h-53.8Z"/></svg>