<svg width="145" height="145" viewBox="0 0 145 145" fill="none" xmlns="http://www.w3.org/2000/svg">
<circle cx="72.1884" cy="72.1884" r="72.1884" fill="#990000"/>
<path d="M71.3364 46.7043C71.8121 46.5149 72.6039 46.5149 73.0796 46.7043L115.006 63.0168C116.591 63.6363 116.575 64.6361 115.006 65.2385L73.0796 81.5666C72.6039 81.7418 71.8434 81.7575 71.3834 81.5823L35.6866 67.6824V99.863C35.6866 100.688 35.0058 101.401 34.1655 101.401C33.3566 101.401 32.6431 100.719 32.6431 99.8943V66.5074L29.3946 65.2385C27.8565 64.6361 27.8408 63.6363 29.4259 63.0168L71.3364 46.7043ZM72.208 78.6314L109.459 64.1276L72.208 49.6253L34.9574 64.1276L72.208 78.6314Z" fill="white"/>
<path d="M50.9042 88.5807C50.9042 89.3099 51.2061 90.1515 51.7131 90.6913C52.4579 91.6426 54.0744 93.1181 56.6108 94.5622C60.7324 96.9434 65.915 98.3548 72.2084 98.3548C78.5018 98.3548 83.6843 96.9434 87.8216 94.5622C90.3424 93.1181 91.9745 91.6426 92.7834 90.6115C93.195 90.1515 93.5126 89.2942 93.5126 88.5807V72.459H90.4691V88.5807C90.4691 88.5479 90.4221 88.6918 90.4534 88.659C90.2626 88.8812 89.9621 89.2144 89.4708 89.6588C88.6305 90.4207 87.5681 91.1983 86.3006 91.9289C82.6233 94.0395 77.962 95.3085 72.2084 95.3085C66.4547 95.3085 61.7948 94.0395 58.1162 91.9289C56.8487 91.1983 55.7862 90.4207 54.946 89.6588C54.4546 89.2144 54.1541 88.8812 54.0274 88.7231C53.979 88.6761 53.9476 88.565 53.9476 88.5807V72.459H50.9042V88.5807Z" fill="white"/>
</svg>
