<svg width="30" height="18" viewBox="0 0 30 18" fill="none" xmlns="http://www.w3.org/2000/svg">
<path d="M0.714355 1.42857C0.714355 0.639594 1.35395 0 2.14293 0H27.8572C28.6462 0 29.2858 0.639594 29.2858 1.42857C29.2858 2.21755 28.6462 2.85714 27.8572 2.85714H2.14293C1.35395 2.85714 0.714355 2.21755 0.714355 1.42857ZM7.85721 8.57143C7.85721 7.78245 8.4968 7.14286 9.28578 7.14286H27.8572C28.6462 7.14286 29.2858 7.78245 29.2858 8.57143C29.2858 9.36041 28.6462 10 27.8572 10H9.28578C8.4968 10 7.85721 9.36041 7.85721 8.57143ZM16.7858 15.7143C16.7858 14.9253 17.4254 14.2857 18.2143 14.2857H27.8572C28.6462 14.2857 29.2858 14.9253 29.2858 15.7143C29.2858 16.5033 28.6462 17.1429 27.8572 17.1429H18.2143C17.4254 17.1429 16.7858 16.5033 16.7858 15.7143Z" fill="#8D2824"/>
</svg>
