<svg width="30" height="18" viewBox="0 0 30 18" fill="none" xmlns="http://www.w3.org/2000/svg">
<path d="M0.714325 1.42857C0.714325 0.639594 1.35392 0 2.1429 0H27.8572C28.6462 0 29.2857 0.639594 29.2857 1.42857C29.2857 2.21755 28.6462 2.85714 27.8572 2.85714H2.1429C1.35392 2.85714 0.714325 2.21755 0.714325 1.42857ZM7.85718 8.57143C7.85718 7.78245 8.49677 7.14286 9.28575 7.14286H27.8572C28.6462 7.14286 29.2857 7.78245 29.2857 8.57143C29.2857 9.36041 28.6462 10 27.8572 10H9.28575C8.49677 10 7.85718 9.36041 7.85718 8.57143ZM16.7857 15.7143C16.7857 14.9253 17.4253 14.2857 18.2143 14.2857H27.8572C28.6462 14.2857 29.2857 14.9253 29.2857 15.7143C29.2857 16.5033 28.6462 17.1429 27.8572 17.1429H18.2143C17.4253 17.1429 16.7857 16.5033 16.7857 15.7143Z" fill="white"/>
</svg>
