<svg width="619" height="920" viewBox="0 0 619 920" fill="none" xmlns="http://www.w3.org/2000/svg">
<path d="M0 20C0 8.9543 8.95431 0 20 0H599C610.046 0 619 8.95431 619 20V900C619 911.046 610.046 920 599 920H20C8.95431 920 0 911.046 0 900V20Z" fill="white"/>
<path d="M8.02522e-05 821H619L619 900C619 911.046 610.046 920 599 920H20C8.95431 920 0 911.046 0 900L8.02522e-05 821Z" fill="#E5E5E5"/>
<path d="M619 29L0 29.0001V20C0 8.9543 8.95431 0 20 0H599C610.046 0 619 8.95431 619 20V29Z" fill="#E5E5E5"/>
<path d="M168 869C168 856.85 177.85 847 190 847H542C554.15 847 564 856.85 564 869V871C564 883.15 554.15 893 542 893H190C177.85 893 168 883.15 168 871V869Z" fill="white"/>
<path d="M195.48 876V862H197.44L202.48 871.76L207.48 862H209.46V876H207.78V865L203.1 874H201.84L197.16 865.02V876H195.48Z" fill="#777777"/>
<path d="M216.774 876.24C215.827 876.24 214.987 876.027 214.254 875.6C213.52 875.16 212.94 874.553 212.514 873.78C212.1 873.007 211.894 872.093 211.894 871.04C211.894 870 212.1 869.093 212.514 868.32C212.927 867.533 213.5 866.927 214.234 866.5C214.98 866.06 215.84 865.84 216.814 865.84C217.774 865.84 218.6 866.06 219.294 866.5C220 866.927 220.54 867.493 220.914 868.2C221.287 868.907 221.474 869.667 221.474 870.48C221.474 870.627 221.467 870.773 221.454 870.92C221.454 871.067 221.454 871.233 221.454 871.42H213.554C213.594 872.18 213.767 872.813 214.074 873.32C214.394 873.813 214.787 874.187 215.254 874.44C215.734 874.693 216.24 874.82 216.774 874.82C217.467 874.82 218.047 874.66 218.514 874.34C218.98 874.02 219.32 873.587 219.534 873.04H221.194C220.927 873.96 220.414 874.727 219.654 875.34C218.907 875.94 217.947 876.24 216.774 876.24ZM216.774 867.26C215.974 867.26 215.26 867.507 214.634 868C214.02 868.48 213.667 869.187 213.574 870.12H219.814C219.774 869.227 219.467 868.527 218.894 868.02C218.32 867.513 217.614 867.26 216.774 867.26Z" fill="#777777"/>
<path d="M227.5 876.24C226.314 876.24 225.327 875.94 224.54 875.34C223.754 874.74 223.294 873.927 223.16 872.9H224.88C224.987 873.42 225.26 873.873 225.7 874.26C226.154 874.633 226.76 874.82 227.52 874.82C228.227 874.82 228.747 874.673 229.08 874.38C229.414 874.073 229.58 873.713 229.58 873.3C229.58 872.7 229.36 872.3 228.92 872.1C228.494 871.9 227.887 871.72 227.1 871.56C226.567 871.453 226.034 871.3 225.5 871.1C224.967 870.9 224.52 870.62 224.16 870.26C223.8 869.887 223.62 869.4 223.62 868.8C223.62 867.933 223.94 867.227 224.58 866.68C225.234 866.12 226.114 865.84 227.22 865.84C228.274 865.84 229.134 866.107 229.8 866.64C230.48 867.16 230.874 867.907 230.98 868.88H229.32C229.254 868.373 229.034 867.98 228.66 867.7C228.3 867.407 227.814 867.26 227.2 867.26C226.6 867.26 226.134 867.387 225.8 867.64C225.48 867.893 225.32 868.227 225.32 868.64C225.32 869.04 225.527 869.353 225.94 869.58C226.367 869.807 226.94 870 227.66 870.16C228.274 870.293 228.854 870.46 229.4 870.66C229.96 870.847 230.414 871.133 230.76 871.52C231.12 871.893 231.3 872.44 231.3 873.16C231.314 874.053 230.974 874.793 230.28 875.38C229.6 875.953 228.674 876.24 227.5 876.24Z" fill="#777777"/>
<path d="M237.5 876.24C236.314 876.24 235.327 875.94 234.54 875.34C233.754 874.74 233.294 873.927 233.16 872.9H234.88C234.987 873.42 235.26 873.873 235.7 874.26C236.154 874.633 236.76 874.82 237.52 874.82C238.227 874.82 238.747 874.673 239.08 874.38C239.414 874.073 239.58 873.713 239.58 873.3C239.58 872.7 239.36 872.3 238.92 872.1C238.494 871.9 237.887 871.72 237.1 871.56C236.567 871.453 236.034 871.3 235.5 871.1C234.967 870.9 234.52 870.62 234.16 870.26C233.8 869.887 233.62 869.4 233.62 868.8C233.62 867.933 233.94 867.227 234.58 866.68C235.234 866.12 236.114 865.84 237.22 865.84C238.274 865.84 239.134 866.107 239.8 866.64C240.48 867.16 240.874 867.907 240.98 868.88H239.32C239.254 868.373 239.034 867.98 238.66 867.7C238.3 867.407 237.814 867.26 237.2 867.26C236.6 867.26 236.134 867.387 235.8 867.64C235.48 867.893 235.32 868.227 235.32 868.64C235.32 869.04 235.527 869.353 235.94 869.58C236.367 869.807 236.94 870 237.66 870.16C238.274 870.293 238.854 870.46 239.4 870.66C239.96 870.847 240.414 871.133 240.76 871.52C241.12 871.893 241.3 872.44 241.3 873.16C241.314 874.053 240.974 874.793 240.28 875.38C239.6 875.953 238.674 876.24 237.5 876.24Z" fill="#777777"/>
<path d="M247 876.24C246.174 876.24 245.487 876.1 244.94 875.82C244.394 875.54 243.987 875.167 243.72 874.7C243.454 874.233 243.32 873.727 243.32 873.18C243.32 872.167 243.707 871.387 244.48 870.84C245.254 870.293 246.307 870.02 247.64 870.02H250.32V869.9C250.32 869.033 250.094 868.38 249.64 867.94C249.187 867.487 248.58 867.26 247.82 867.26C247.167 867.26 246.6 867.427 246.12 867.76C245.654 868.08 245.36 868.553 245.24 869.18H243.52C243.587 868.46 243.827 867.853 244.24 867.36C244.667 866.867 245.194 866.493 245.82 866.24C246.447 865.973 247.114 865.84 247.82 865.84C249.207 865.84 250.247 866.213 250.94 866.96C251.647 867.693 252 868.673 252 869.9V876H250.5L250.4 874.22C250.12 874.78 249.707 875.26 249.16 875.66C248.627 876.047 247.907 876.24 247 876.24ZM247.26 874.82C247.9 874.82 248.447 874.653 248.9 874.32C249.367 873.987 249.72 873.553 249.96 873.02C250.2 872.487 250.32 871.927 250.32 871.34V871.32H247.78C246.794 871.32 246.094 871.493 245.68 871.84C245.28 872.173 245.08 872.593 245.08 873.1C245.08 873.62 245.267 874.04 245.64 874.36C246.027 874.667 246.567 874.82 247.26 874.82Z" fill="#777777"/>
<path d="M258.441 872.88C257.881 872.88 257.367 872.807 256.901 872.66L255.901 873.6C256.047 873.707 256.227 873.8 256.441 873.88C256.667 873.947 256.987 874.013 257.401 874.08C257.814 874.133 258.394 874.193 259.141 874.26C260.474 874.353 261.427 874.66 262.001 875.18C262.574 875.7 262.861 876.38 262.861 877.22C262.861 877.793 262.701 878.34 262.381 878.86C262.074 879.38 261.594 879.807 260.941 880.14C260.301 880.473 259.474 880.64 258.461 880.64C257.567 880.64 256.774 880.52 256.081 880.28C255.387 880.053 254.847 879.7 254.461 879.22C254.074 878.753 253.881 878.16 253.881 877.44C253.881 877.067 253.981 876.66 254.181 876.22C254.381 875.793 254.754 875.387 255.301 875C255.007 874.88 254.754 874.753 254.541 874.62C254.341 874.473 254.154 874.313 253.981 874.14V873.68L255.681 872C254.894 871.333 254.501 870.453 254.501 869.36C254.501 868.707 254.654 868.113 254.961 867.58C255.267 867.047 255.714 866.627 256.301 866.32C256.887 866 257.601 865.84 258.441 865.84C259.014 865.84 259.534 865.92 260.001 866.08H263.661V867.34L261.801 867.42C262.187 867.98 262.381 868.627 262.381 869.36C262.381 870.013 262.221 870.607 261.901 871.14C261.594 871.673 261.147 872.1 260.561 872.42C259.987 872.727 259.281 872.88 258.441 872.88ZM258.441 871.5C259.147 871.5 259.707 871.32 260.121 870.96C260.547 870.587 260.761 870.053 260.761 869.36C260.761 868.68 260.547 868.16 260.121 867.8C259.707 867.427 259.147 867.24 258.441 867.24C257.721 867.24 257.147 867.427 256.721 867.8C256.307 868.16 256.101 868.68 256.101 869.36C256.101 870.053 256.307 870.587 256.721 870.96C257.147 871.32 257.721 871.5 258.441 871.5ZM255.521 877.28C255.521 877.947 255.801 878.44 256.361 878.76C256.921 879.093 257.621 879.26 258.461 879.26C259.287 879.26 259.947 879.08 260.441 878.72C260.947 878.36 261.201 877.88 261.201 877.28C261.201 876.853 261.027 876.48 260.681 876.16C260.334 875.853 259.694 875.673 258.761 875.62C258.027 875.567 257.394 875.5 256.861 875.42C256.314 875.713 255.954 876.027 255.781 876.36C255.607 876.707 255.521 877.013 255.521 877.28Z" fill="#777777"/>
<path d="M269.625 876.24C268.679 876.24 267.839 876.027 267.105 875.6C266.372 875.16 265.792 874.553 265.365 873.78C264.952 873.007 264.745 872.093 264.745 871.04C264.745 870 264.952 869.093 265.365 868.32C265.779 867.533 266.352 866.927 267.085 866.5C267.832 866.06 268.692 865.84 269.665 865.84C270.625 865.84 271.452 866.06 272.145 866.5C272.852 866.927 273.392 867.493 273.765 868.2C274.139 868.907 274.325 869.667 274.325 870.48C274.325 870.627 274.319 870.773 274.305 870.92C274.305 871.067 274.305 871.233 274.305 871.42H266.405C266.445 872.18 266.619 872.813 266.925 873.32C267.245 873.813 267.639 874.187 268.105 874.44C268.585 874.693 269.092 874.82 269.625 874.82C270.319 874.82 270.899 874.66 271.365 874.34C271.832 874.02 272.172 873.587 272.385 873.04H274.045C273.779 873.96 273.265 874.727 272.505 875.34C271.759 875.94 270.799 876.24 269.625 876.24ZM269.625 867.26C268.825 867.26 268.112 867.507 267.485 868C266.872 868.48 266.519 869.187 266.425 870.12H272.665C272.625 869.227 272.319 868.527 271.745 868.02C271.172 867.513 270.465 867.26 269.625 867.26Z" fill="#777777"/>
<path d="M136 869.5C136 880.822 126.822 890 115.5 890C104.178 890 95.0001 880.822 95.0001 869.5C95.0001 858.178 104.178 849 115.5 849C126.822 849 136 858.178 136 869.5Z" fill="white"/>
<path d="M78.0001 869.5C78.0001 880.822 68.8219 890 57.5001 890C46.1782 890 37.0001 880.822 37.0001 869.5C37.0001 858.178 46.1782 849 57.5001 849C68.8219 849 78.0001 858.178 78.0001 869.5Z" fill="white"/>
</svg>
