<svg width="101" height="85" viewBox="0 0 101 85" fill="none" xmlns="http://www.w3.org/2000/svg">
<path d="M34.1473 79C43.7473 79 49.1473 73 49.1473 66.1C49.1473 52.9 36.5473 49.9 33.8473 48.7C31.7473 47.8 29.3473 44.2 29.3473 40.3C29.3473 25.6 41.9473 12.4 48.2473 6.39998C50.6473 4.59999 50.6473 3.99998 50.6473 2.49998C50.6473 0.999982 49.7473 0.0999756 47.6473 0.0999756C45.5473 0.0999756 43.7473 1.59997 42.2473 2.49998C36.8473 5.79997 10.7473 24.7 10.7473 53.2C10.7473 70 24.8473 79 34.1473 79ZM83.3473 79C92.9473 79 98.6473 73 98.6473 66.1C98.6473 52.9 85.7473 49.9 83.0473 48.7C80.9473 47.8 78.5473 44.2 78.5473 40.3C78.5473 25.6 91.1473 12.4 97.7473 6.39998C100.147 4.59999 100.147 3.99998 100.147 2.49998C100.147 0.999982 99.2473 0.0999756 97.1473 0.0999756C94.7473 0.0999756 92.9473 1.59997 91.4473 2.49998C86.0473 5.79997 59.9473 24.7 59.9473 53.2C59.9473 70 74.3473 79 83.3473 79Z" fill="#A4B83D"/>
<path d="M24.1473 85C33.7473 85 39.1473 79 39.1473 72.1C39.1473 58.9 26.5473 55.9 23.8473 54.7C21.7473 53.8 19.3473 50.2 19.3473 46.3C19.3473 31.6 31.9473 18.4 38.2473 12.4C40.6473 10.6 40.6473 9.99998 40.6473 8.49998C40.6473 6.99998 39.7473 6.09998 37.6473 6.09998C35.5473 6.09998 33.7473 7.59997 32.2473 8.49998C26.8473 11.8 0.747253 30.7 0.747253 59.2C0.747253 76 14.8473 85 24.1473 85ZM73.3473 85C82.9473 85 88.6473 79 88.6473 72.1C88.6473 58.9 75.7473 55.9 73.0473 54.7C70.9473 53.8 68.5473 50.2 68.5473 46.3C68.5473 31.6 81.1473 18.4 87.7473 12.4C90.1473 10.6 90.1473 9.99998 90.1473 8.49998C90.1473 6.99998 89.2473 6.09998 87.1473 6.09998C84.7473 6.09998 82.9473 7.59997 81.4473 8.49998C76.0473 11.8 49.9473 30.7 49.9473 59.2C49.9473 76 64.3473 85 73.3473 85Z" fill="#A4B83D" fill-opacity="0.4"/>
</svg>
