<svg width="1440" height="1174" viewBox="0 0 1440 1174" fill="none" xmlns="http://www.w3.org/2000/svg">
<path d="M0 790H1440V1174H0V790Z" fill="#8D2824"/>
<path d="M0 0H1440V820H0V0Z" fill="#C4C4C4"/>
<path d="M0 0H1440V820H0V0Z" fill="#8D2824"/>
<path d="M1099.95 285.783C1099.95 285.783 1080.19 351.329 996.741 323.445C913.279 295.444 900.942 256.115 758.229 317.387C615.517 378.659 561.231 384.445 522.722 344.62C484.214 304.795 414.918 251.961 289.257 277.638C163.479 303.333 75.2939 160.642 -19.8193 149.769C-114.95 138.778 -169.55 225.068 -169.55 225.068L-51.1165 1010.34L1656.73 752.762C1656.73 752.762 1594.91 639.359 1491.51 617.607C1388 595.872 1398.31 569.098 1380.16 509.272C1361.88 449.463 1167.53 436.506 1167.09 344.707C1166.38 252.709 1099.95 285.783 1099.95 285.783Z" fill="#751E1F"/>
<path d="M-138.337 232.249C-128.686 224.67 50.6868 157.148 125.831 259.776C200.976 362.404 262.758 354.407 357.383 347.1C452.008 339.794 423.921 345.471 537.087 389.527C650.253 433.583 706.683 393.25 779.429 360.423C852.059 327.613 980.982 360.526 1071.12 301.42C1161.25 242.314 1176.21 314.751 1176.21 314.751C1176.21 314.751 1158.92 382.565 1243.93 415.376C1329.07 448.168 1298.32 505.404 1332.41 583.601C1366.52 661.915 1596.88 750.742 1596.88 750.742L-73.7216 924.164L-138.337 232.249Z" fill="#7E201E"/>
<path d="M-110.215 251.185C-110.215 251.185 -60.7107 372.57 69.8073 367.296C200.325 362.021 203.649 357.317 261.369 407.334C318.973 457.368 350.385 485.534 434.586 451.579C518.787 417.625 588.165 356.966 665.73 385.977C743.178 415.005 894.607 521 1034.29 339.739C1103.41 307.183 1106.63 376.865 1106.63 376.865C1106.63 376.865 1073.18 444.852 1250.1 498.745C1312.77 519.435 1316.49 608.578 1344.33 662.621C1372.05 716.681 1545.54 802.796 1545.54 802.796C1545.54 802.796 356.414 1072.92 348.705 1075.29C340.995 1077.65 -144.5 1024 -144.5 1024L-110.215 251.185Z" fill="#902927"/>
<path d="M121.57 960.614C28.359 1001.48 -48 1100 -48 1100H1195.34C1195.34 1100 1147.41 1073.13 1195.34 1049.62C1243.26 1026.11 1261.16 1016.03 1290.65 1000.92C1320.14 985.804 1364.38 963.413 1395.45 940.462C1426.52 917.511 1442.84 890.082 1447.58 850.897C1452.32 811.712 1438.63 760.608 1386.5 717C1334.37 673.392 1304.34 689.12 1217.98 667.288C1131.61 645.457 990.482 626.984 949.406 623.625C908.33 620.266 705.057 607.572 653.449 604.033C601.841 600.493 592.362 592.837 589.729 583.88C587.096 574.924 611.847 564.848 637.124 555.891C662.402 546.935 776.15 529.582 810.38 502.712C844.61 475.842 845.304 457.37 819.5 429.94C793.696 402.511 729.808 392.435 724.016 391.315C718.223 390.196 653.449 380.5 653.449 380.5C653.449 380.5 727.175 418.185 724.016 429.94C720.856 441.696 673.987 444.495 673.987 444.495C673.987 444.495 315.5 496.124 287.5 502.712C259.5 509.3 222.679 519.505 206.881 543.576C191.083 567.647 182.657 597.875 206.881 638.179C231.105 678.484 309.571 715.429 384.876 724.946C460.182 734.462 539.701 737.821 596.575 739.5C653.449 741.179 903.064 754.054 949.406 766.37C995.748 778.685 1043.67 811.712 1042.62 831.864C1041.56 852.016 1035.24 866.011 1007.86 876.647C980.477 887.283 855.67 887.283 782.997 887.283C710.324 887.283 547.073 873.909 432.272 887.283C317.47 900.656 214.78 919.75 121.57 960.614Z" fill="#EDB042"/>
<path d="M161 899.5C72.5 936 0 1024 0 1024H1180.5C1180.5 1024 1135 1000 1180.5 979C1226 958 1243 949 1271 935.5C1299 922 1341 902 1370.5 881.5C1400 861 1415.5 836.5 1420 801.5C1424.5 766.5 1420 740.951 1370.5 702C1321 663.049 1284 657 1202 637.5C1120 618 986 601.5 947 598.5C908 595.5 715 584.161 666 581C617 577.839 608 571 605.5 563C603 555 626.5 546 650.5 538C674.5 530 782.5 514.5 815 490.5C847.5 466.5 839.5 450 815 425.5C790.5 401 738.5 392 733 391C727.5 390 650.5 380 650.5 380C650.5 380 736 415 733 425.5C730 436 685.5 438.5 685.5 438.5C685.5 438.5 347 485 331 490.5C315 496 257 505.5 242 527C227 548.5 219 575.5 242 611.5C265 647.5 339.5 680.5 411 689C482.5 697.5 558 700.5 612 702C666 703.5 903 715 947 726C991 737 1036.5 766.5 1035.5 784.5C1034.5 802.5 1028.5 815 1002.5 824.5C976.5 834 858 834 789 834C720 834 565 822.055 456 834C347 845.945 249.5 863 161 899.5Z" fill="white"/>
<path d="M1289.5 1075.5C1232 1057 1180.5 1024 1180.5 1024H0V1174H1440V1108.5C1440 1108.5 1347 1094 1289.5 1075.5Z" fill="white"/>
</svg>
