<svg width="428" height="581" viewBox="0 0 428 581" fill="none" xmlns="http://www.w3.org/2000/svg">
<path d="M530 0H-103V532.982H530V0Z" fill="#8D2924"/>
<path d="M-103 159.653C-75.7019 155.375 -56.8525 159.561 -44.6365 164.231C-38.9088 166.417 -40.0209 166.654 2.51757 190.77C19.802 200.568 30.3652 206.386 45.056 206.329C53.7642 206.294 53.3466 204.236 65.5011 202.974C74.6224 202.024 95.3883 199.869 113.974 208.77C127.614 215.304 127.619 221.83 146.288 229.821C155.594 233.8 160.987 234.491 163.106 234.702C177.199 236.105 188.439 230.52 193.112 228.295C211.372 219.61 239.761 206.105 264.667 206.94C286.998 207.688 283.846 219.205 327.317 229.517C345.094 233.735 354.505 235.968 368.537 237.45C385.122 239.205 388.494 237.829 395.905 241.417C409.005 247.758 407.677 256.501 423.273 265.212C432.61 270.428 434.096 267.855 443.719 273.752C456.168 281.382 455.482 286.786 464.164 289.311C473.404 291.998 475.474 286.25 490.543 287.481C500.689 288.308 502.891 291.171 511.647 290.837C519.683 290.529 526.083 287.802 530.114 285.652L529.947 444.443H-103V159.653Z" fill="#751D20"/>
<path d="M-103 182.472C-93.5973 179.227 -76.9415 174.843 -56.1756 176.584C-45.8146 177.455 -24.7278 179.223 -7.04335 192.754C4.9353 201.918 3.30004 207.257 17.6876 216.549C22.5142 219.667 33.3983 226.531 48.6826 228.449C59.5667 229.812 61.2283 227.226 78.0292 226.311C86.6363 225.845 103.512 224.926 121.557 229.667C135.575 233.352 133.764 236.105 155.189 244.007C175.072 251.333 185.226 254.944 195.75 252.244C207.104 249.333 206.489 242.956 221.799 235.463C231.984 230.48 240.315 229.355 256.091 227.226C282.238 223.699 283.2 227.895 305.223 223.871C323.989 220.445 333.374 218.73 340.504 212.279C342.21 210.735 345.771 207.156 351.714 205.568C353.235 205.164 360.334 203.264 366.884 206.786C371.922 209.495 373.891 213.941 375.456 217.464C378.704 224.781 376.704 227.578 378.423 232.411C381.865 242.085 393.162 240.107 407.769 251.633C411.062 254.227 422.161 262.983 426.566 276.954C429.247 285.458 426.83 287.582 430.193 296.479C433.982 306.492 440.483 312.877 444.374 316.615C451.657 323.62 461.843 333.409 475.039 333.396C485.448 333.383 487.387 327.283 496.143 329.126C504.443 330.872 506.113 337.072 515.929 339.5C521.63 340.911 526.782 340.23 530.11 339.5V444.751H-103V182.472Z" fill="#7E1F1F"/>
<path d="M-102.89 245.841C-100.916 241.773 -89.7202 220.089 -68.2905 215.19C-54.9623 212.143 -43.076 216.769 -37.9768 219.223C-23.2332 226.32 -23.453 235.414 -11.2853 238.655C1.09773 241.949 3.99458 233.242 18.6986 235.357C28.0442 236.698 34.9237 241.751 48.6826 251.857C65.3956 264.13 65.9626 268.77 76.0335 272.389C87.722 276.589 98.1841 274.368 103.714 273.123C121.196 269.183 123.97 260.173 142.925 251.127C151.352 247.103 170.1 240.177 187.081 241.593C200.26 242.692 217.395 255.524 229.918 262.855C239.079 268.22 251.695 269.24 266.826 266.888C273.903 265.788 288.796 263.471 301.755 251.487C311.189 242.767 312.969 235.054 325.809 226.923C331.625 223.242 337.225 219.807 341.955 222.156C347.129 224.728 346.905 232.046 352.501 247.085C356.066 256.668 358.017 261.914 361.727 266.883C369.249 276.967 376.234 275.507 397.976 287.046C410.697 293.801 417.053 297.178 421.04 302.446C430.518 314.97 424.46 323.638 432.905 342.407C441.143 360.718 454.84 370.107 458.937 372.838C465.904 377.477 477.487 385.195 491.888 383.836C502.223 382.86 507.058 377.864 515.612 380.538C522.637 382.732 527.319 388.585 530.11 393.005V572.578L-103 572.904L-102.89 245.841Z" fill="#902927"/>
<path d="M226.89 320.384C247.788 321.43 253.867 321.118 266.509 321.637C298.52 322.952 319.796 327.64 345.406 332.78C347.358 333.172 367.912 338.897 382.709 345.511C405.194 355.564 406.785 362.934 410.222 372.314C416.025 388.145 409.299 404.175 408.899 405.146C407.695 408.075 404.301 415.366 390.911 424.913C365.02 443.374 345.45 439.126 339.326 457.077C338.364 459.9 337.814 461.51 338.003 463.779C339.779 485.142 391.399 499.223 415.001 502.57C419.981 503.278 432.571 496.87 446.633 508.796C449.807 511.488 528.119 523.15 529.67 524.913L530 572.904H-103V527.761C-103 527.761 -30.7765 492.253 -12.525 472.82C2.62309 456.694 12.5796 450.762 26.8925 439.315C51.1399 419.931 77.4138 414.469 97.661 409.328C131.896 400.639 160.284 401.734 192.105 402.961C211.676 403.717 237.739 406.826 257.318 406.479C266.707 406.312 285.644 403.207 292.634 399.944C300.173 396.426 302.177 392.6 301.891 385.538C301.817 383.695 301.074 378.066 290.515 371.8C264.588 356.417 214.142 357.789 202.422 358.062C190.69 358.339 150.706 358.229 119.882 352.033C111.477 350.344 96.7335 346.171 83.3745 336.285C72.297 328.088 70.5431 322.714 69.62 316.518C68.165 306.791 70.1563 297.165 75.7038 292.059C85.3615 283.18 95.2653 280.212 104.145 278.488C118.827 275.639 152.82 275.472 166.579 273.796C173.472 272.956 199.517 268.937 211.816 262.406C212.361 262.116 214.445 260.555 214.595 258.554C215.254 249.676 191.446 242.305 191.446 242.305C191.446 242.305 214.463 245.322 228.481 251.017C234.613 253.51 245.137 262.178 244.882 269.443C244.526 279.632 227.896 287.424 218.955 290.217C204.871 294.614 190.914 294.57 182.712 299.596C179.076 301.826 178.109 303.172 177.942 304.328C177.942 304.328 177.661 305.287 178.215 306.633C182.975 318.172 226.89 320.37 226.89 320.37V320.384Z" fill="#EDB142"/>
<path d="M227.984 314.485C248.108 315.445 253.959 315.159 266.136 315.639C296.959 316.845 317.444 321.156 342.104 325.876C343.986 326.237 364.022 330.821 378.023 337.575C395.558 346.034 404.455 352.634 407.422 362.907C411.77 377.97 403.629 391.483 403.242 392.377C402.081 395.072 398.815 401.769 385.918 410.54C360.985 427.506 342.144 423.6 336.245 440.094C335.317 442.688 334.79 444.167 334.97 446.25C336.68 465.879 372.831 478.274 395.228 483.576C416.236 488.551 470.357 501.549 485.514 505.217C505.687 510.1 530 515.612 530 515.612V573.44H-103V527.761C-103 527.761 -85.2057 502.65 -51.2654 476.605C-33.8008 461.199 -14.6877 451.661 19.5822 435.158C60.4415 419.021 67.866 416.775 97.6786 409.849C135.575 401.047 166.218 401.778 193.829 399.907C224.265 397.842 239.369 395.178 257.278 393.601C266.294 392.809 284.554 390.594 291.284 387.6C298.546 384.368 300.476 380.85 300.199 374.359C300.129 372.669 299.412 367.491 289.245 361.736C264.281 347.597 215.702 348.861 204.418 349.112C193.121 349.367 154.618 349.266 124.942 343.568C116.849 342.014 102.65 338.179 89.7881 329.099C79.1194 321.57 77.4314 316.63 76.5434 310.936C75.1455 301.993 77.0577 293.147 82.4031 288.462C91.7002 280.303 101.239 277.578 109.789 275.993C123.926 273.377 156.662 273.223 169.907 271.682C176.544 270.911 201.622 267.217 213.465 261.216C213.988 260.952 215.997 259.516 216.138 257.676C216.775 249.517 193.846 242.744 193.846 242.744C193.846 242.744 216.01 245.514 229.51 250.749C235.418 253.039 245.55 261.004 245.304 267.684C244.961 277.045 228.951 284.209 220.34 286.772C206.779 290.809 193.336 290.774 185.441 295.393C181.938 297.441 181.006 298.682 180.848 299.739C180.848 299.739 180.575 300.62 181.112 301.857C185.696 312.46 227.984 314.481 227.984 314.481V314.485Z" fill="white"/>
</svg>
