<?xml version="1.0" encoding="UTF-8"?><svg id="a" xmlns="http://www.w3.org/2000/svg" viewBox="0 0 1920 1303"><defs><style>.d{fill:#fff;}.e{fill:#edb142;}.f{fill:#751d20;}.g{fill:#7e1f1f;}.h{fill:#8d2924;}.i{fill:#902927;}</style></defs><rect class="h" x="-1" width="1922" height="1304"/><g id="b"><path class="f" d="M1,146.5c82.78-14.03,139.95-.3,177,15,17.37,7.17,13.99,7.95,143,87,52.42,32.12,84.46,51.19,129,51,26.4-.11,25.14-6.86,62-11,27.67-3.11,90.64-10.18,147,19,41.37,21.42,41.38,42.81,98,69,28.22,13.05,44.58,15.31,51,16,42.74,4.6,76.82-13.71,91-21,55.37-28.47,141.47-72.74,217-70,67.72,2.45,58.17,40.2,190,74,53.9,13.82,82.45,21.14,125,26,50.3,5.74,60.52,1.24,83,13,39.72,20.79,35.7,49.45,83,78,28.32,17.09,32.82,8.67,62,28,37.75,25.01,35.68,42.72,62,51,28.02,8.81,34.29-10.03,80-6,30.77,2.71,37.45,12.1,64,11,24.37-1.01,43.78-9.95,56-17l-.5,520.5H1V146.5Z"/><path class="g" d="M1,221.3c28.51-10.65,79.02-25.02,142-19.3,31.43,2.85,95.37,8.65,149,53,36.33,30.04,31.37,47.54,75,78,14.63,10.22,47.64,32.73,94,39,33.01,4.47,38.04-4.01,89-7,26.1-1.53,77.28-4.54,132,11,42.52,12.08,37.01,21.11,102,47,60.29,24.02,91.09,35.85,123,27,34.43-9.55,32.57-30.44,79-55,30.88-16.34,56.15-20.02,104-27,79.29-11.56,82.21,2.18,149-11,56.91-11.23,85.37-16.85,107-38,5.18-5.06,15.97-16.79,34-22,4.61-1.33,26.14-7.55,46,4,15.27,8.88,21.26,23.45,26,35,9.86,23.99,3.79,33.16,9,49,10.43,31.71,44.7,25.23,89,63,9.98,8.51,43.64,37.2,57,83,8.13,27.87,.8,34.85,11,64,11.49,32.83,31.21,53.75,43,66,22.09,22.96,52.97,55.05,93,55,31.57-.04,37.45-20.03,64-14,25.17,5.72,30.23,26.04,60,34,17.29,4.62,32.92,2.4,43,0v345H1V221.3Z"/><path class="i" d="M1,411c5.99-11.1,38.97-69.64,104-83,40.44-8.31,76.53,4.3,92,11,44.75,19.36,44.07,44.17,81,53,37.58,8.99,46.36-14.76,91-9,28.37,3.66,49.24,17.44,91,45,50.73,33.48,52.44,46.13,83,56,35.47,11.45,67.22,5.4,84,2,53.06-10.75,61.48-35.32,119-60,25.57-10.97,82.47-29.87,134-26,40,3,92,38,130,58,27.81,14.63,66.09,17.42,112,11,21.48-3,66.68-9.32,106-42,28.62-23.79,34.03-44.83,73-67,17.66-10.04,34.64-19.41,49-13,15.7,7.01,15.01,26.98,32,68,10.82,26.13,16.75,40.44,28,54,22.83,27.5,44.02,23.52,110,55,38.6,18.42,57.9,27.63,70,42,28.76,34.16,10.38,57.8,36,109,25,49.95,66.56,75.55,79,83,21.14,12.66,56.3,33.71,100,30,31.37-2.66,46.03-16.29,72-9,21.32,5.99,35.53,21.95,44,34l-1,491H0L1,411Z"/></g><g id="c"><path class="e" d="M1001.14,614.67c63.42,2.85,81.86,2.01,120.24,3.42,97.14,3.59,161.71,16.39,239.43,30.42,5.93,1.07,68.3,16.7,113.2,34.75,68.24,27.44,73.06,47.56,83.5,73.17,17.61,43.22-2.8,86.97-4.01,89.63-3.65,8-13.95,27.9-54.59,53.96-78.58,50.39-137.96,38.8-156.55,87.8-2.92,7.7-4.59,12.1-4.01,18.29,5.39,58.31,162.04,96.76,233.67,105.89,15.11,1.93,53.33-15.56,96,17,9.63,7.35,247.29,39.18,252,44l1,131H0l1-124s218.17-96.15,273.57-149.2c45.98-44.03,76.18-60.22,119.62-91.46,73.58-52.91,153.31-67.82,214.76-81.85,103.89-23.72,190.05-20.73,286.61-17.38,59.39,2.06,138.49,10.56,197.9,9.6,28.5-.46,85.97-8.93,107.18-17.83,22.88-9.6,28.96-20.05,28.1-39.33-.23-5.03-2.49-20.4-34.52-37.5-78.68-41.99-231.78-38.25-267.35-37.5-35.61,.75-156.95,.46-250.49-16.46-25.5-4.61-70.25-16-110.79-42.98-33.62-22.37-38.94-37.04-41.75-53.96-4.41-26.56,1.63-52.84,18.47-66.76,29.3-24.24,59.36-32.34,86.31-37.04,44.56-7.77,147.72-8.23,189.47-12.8,20.92-2.29,99.95-13.26,137.29-31.1,1.66-.79,7.98-5.05,8.43-10.52,2.01-24.24-70.25-44.36-70.25-44.36,0,0,69.85,8.23,112.4,23.78,18.62,6.8,50.55,30.47,49.78,50.3-1.09,27.81-51.54,49.09-78.68,56.7-42.74,12-85.1,11.89-109.99,25.61-11.04,6.08-13.97,9.76-14.48,12.92h0s-.86,2.61,.83,6.29c14.45,31.5,147.72,37.5,147.72,37.5Z"/><path class="d" d="M1004.45,597.99c61.07,2.62,78.83,1.84,115.78,3.14,93.54,3.29,155.71,15.04,230.55,27.91,5.71,.98,66.51,13.49,109,31.9,53.22,23.06,80.22,41.06,89.22,69.06,13.2,41.07-11.52,77.91-12.68,80.35-3.52,7.34-13.44,25.6-52.57,49.52-75.66,46.25-132.85,35.61-150.75,80.58-2.81,7.07-4.42,11.11-3.87,16.79,5.19,53.52,114.91,87.31,182.86,101.77,63.76,13.56,228,49,274,59,61.21,13.31,134,28,134,28l1,158H0l1-124s53-69,156-140c53-42,111-68,215-113,124-44,146.53-50.12,237-69,115-24,208-22,291.79-27.11,92.37-5.63,138.21-12.89,192.56-17.19,27.36-2.16,82.78-8.2,103.2-16.37,22.03-8.81,27.89-18.4,27.06-36.09-.22-4.61-2.39-18.72-33.24-34.41-75.77-38.54-223.18-35.11-257.43-34.41-34.29,.69-151.13,.42-241.19-15.11-24.56-4.23-67.64-14.69-106.68-39.45-32.37-20.53-37.49-33.99-40.2-49.52-4.25-24.38,1.57-48.49,17.78-61.27,28.22-22.24,57.16-29.68,83.1-33.99,42.9-7.13,142.24-7.55,182.44-11.75,20.14-2.1,96.25-12.17,132.19-28.54,1.59-.73,7.68-4.64,8.12-9.65,1.93-22.24-67.64-40.71-67.64-40.71,0,0,67.26,7.55,108.23,21.82,17.93,6.24,48.68,27.96,47.93,46.16-1.05,25.53-49.63,45.05-75.76,52.04-41.16,11.01-81.94,10.91-105.91,23.5-10.63,5.58-13.45,8.96-13.94,11.85h0s-.83,2.4,.8,5.77c13.91,28.91,142.24,34.41,142.24,34.41Z"/></g></svg>