<?xml version="1.0" encoding="UTF-8"?><svg id="a" xmlns="http://www.w3.org/2000/svg" viewBox="0 0 1440 1174"><defs><style>.d{fill:#fff;}.e{fill:#edb142;}.f{fill:#751d20;}.g{fill:#7e1f1f;}.h{fill:#8d2924;}.i{fill:#902927;}</style></defs><rect class="h" x="1" width="1439" height="1037"/><g id="b"><path class="f" d="M.75,234.01c62.05-9.73,104.91-.21,132.68,10.41,13.02,4.97,10.49,5.51,107.19,60.35,39.3,22.28,63.31,35.51,96.7,35.38,19.79-.08,18.84-4.76,46.48-7.63,20.74-2.16,67.95-7.06,110.19,13.18,31.01,14.86,31.02,29.7,73.46,47.87,21.15,9.05,33.41,10.62,38.23,11.1,32.04,3.19,57.59-9.51,68.21-14.57,41.51-19.75,106.05-50.46,162.67-48.56,50.76,1.7,43.6,27.89,142.43,51.34,40.41,9.59,61.81,14.67,93.7,18.04,37.71,3.99,45.37,.86,62.22,9.02,29.78,14.42,26.76,34.3,62.22,54.11,21.23,11.86,24.6,6.01,46.48,19.42,28.3,17.35,26.74,29.64,46.48,35.38,21.01,6.11,25.71-6.96,59.97-4.16,23.07,1.88,28.07,8.39,47.98,7.63,18.27-.7,32.82-6.9,41.98-11.79l-.37,361.09H.75V234.01Z"/><path class="g" d="M.75,285.9c21.37-7.38,59.24-17.35,106.44-13.39,23.56,1.98,71.49,6,111.69,36.77,27.23,20.84,23.51,32.98,56.22,54.11,10.97,7.09,35.71,22.7,70.46,27.06,24.75,3.1,28.52-2.78,66.72-4.86,19.56-1.06,57.93-3.15,98.95,7.63,31.87,8.38,27.75,14.64,76.46,32.61,45.19,16.66,68.28,24.87,92.2,18.73,25.81-6.62,24.42-21.12,59.22-38.16,23.15-11.33,42.09-13.89,77.96-18.73,59.44-8.02,61.63,1.52,111.69-7.63,42.66-7.79,63.99-11.69,80.21-26.36,3.88-3.51,11.97-11.65,25.49-15.26,3.45-.92,19.59-5.24,34.48,2.77,11.45,6.16,15.93,16.27,19.49,24.28,7.39,16.64,2.84,23,6.75,33.99,7.82,22,33.5,17.5,66.72,43.71,7.48,5.9,32.71,25.81,42.73,57.58,6.1,19.34,.6,24.17,8.25,44.4,8.61,22.77,23.39,37.29,32.23,45.79,16.56,15.93,39.71,38.19,69.71,38.16,23.66-.03,28.07-13.9,47.98-9.71,18.87,3.97,22.66,18.07,44.98,23.59,12.96,3.21,24.67,1.66,32.23,0v239.34H.75V285.9Z"/><path class="i" d="M.75,429.5c4.49-9.25,29.21-58.06,77.96-69.2,30.32-6.93,57.36,3.59,68.96,9.17,33.54,16.14,33.04,36.82,60.72,44.19,28.17,7.49,34.76-12.31,68.21-7.5,21.26,3.05,36.91,14.54,68.21,37.52,38.02,27.91,39.31,38.46,62.22,46.69,26.59,9.55,50.39,4.5,62.97,1.67,39.77-8.96,46.08-29.45,89.2-50.02,19.17-9.15,61.82-24.9,100.45-21.68,29.98,2.5,68.96,31.68,97.45,48.35,20.84,12.2,49.54,14.52,83.96,9.17,16.1-2.5,49.98-7.77,79.46-35.02,21.46-19.83,25.51-37.37,54.72-55.86,13.23-8.37,25.97-16.18,36.73-10.84,11.77,5.85,11.26,22.49,23.99,56.69,8.11,21.79,12.55,33.72,20.99,45.02,17.11,22.93,33,19.61,82.46,45.85,28.94,15.36,43.4,23.04,52.47,35.02,21.56,28.48,7.78,48.19,26.99,90.87,18.74,41.64,49.9,62.99,59.22,69.2,15.85,10.55,42.2,28.1,74.96,25.01,23.51-2.22,34.51-13.58,53.97-7.5,15.98,4.99,26.63,18.3,32.98,28.35l-.75,409.35H0L.75,429.5Z"/></g><g id="c"><path class="e" d="M750.46,599.51c47.54,2.38,61.37,1.67,90.13,2.85,72.82,2.99,121.22,13.65,179.48,25.34,4.44,.89,51.2,13.91,84.86,28.95,51.15,22.86,54.77,39.62,62.59,60.95,13.2,36-2.1,72.45-3.01,74.66-2.74,6.66-10.46,23.24-40.92,44.95-58.9,41.98-103.42,32.32-117.35,73.14-2.19,6.42-3.44,10.08-3.01,15.24,4.04,48.58,121.47,80.6,175.16,88.21,11.33,1.61,39.97-12.96,71.96,14.16,7.22,6.12,185.37,32.64,188.9,36.65l.75,109.13H0l.75-103.3s163.55-80.1,205.07-124.29c34.46-36.67,57.11-50.16,89.67-76.19,55.16-44.08,114.93-56.5,160.99-68.19,77.88-19.76,142.46-17.27,214.85-14.48,44.52,1.72,103.81,8.79,148.35,8,21.36-.38,64.44-7.44,80.34-14.86,17.15-8,21.71-16.7,21.06-32.76-.17-4.19-1.86-16.99-25.88-31.24-58.98-34.98-173.74-31.86-200.4-31.24-26.69,.63-117.65,.38-187.77-13.71-19.12-3.84-52.66-13.33-83.05-35.81-25.2-18.64-29.19-30.86-31.29-44.95-3.31-22.12,1.22-44.01,13.84-55.62,21.97-20.19,44.5-26.94,64.7-30.86,33.4-6.48,110.73-6.86,142.03-10.67,15.68-1.91,74.93-11.05,102.91-25.9,1.24-.66,5.98-4.21,6.32-8.76,1.5-20.19-52.66-36.95-52.66-36.95,0,0,52.36,6.86,84.25,19.81,13.95,5.67,37.89,25.38,37.31,41.9-.81,23.17-38.64,40.89-58.98,47.24-32.04,10-63.79,9.9-82.45,21.33-8.27,5.07-10.47,8.13-10.85,10.76h0s-.64,2.18,.62,5.24c10.83,26.24,110.73,31.24,110.73,31.24Z"/><path class="d" d="M752.95,585.61c45.78,2.18,59.09,1.53,86.79,2.62,70.12,2.74,116.72,12.53,172.82,23.25,4.28,.82,49.86,11.23,81.71,26.57,39.89,19.21,60.13,34.2,66.88,57.53,9.89,34.21-8.63,64.9-9.51,66.93-2.64,6.12-10.07,21.33-39.41,41.25-56.72,38.53-99.58,29.66-113,67.12-2.11,5.89-3.31,9.25-2.9,13.98,3.89,44.58,86.13,72.73,137.08,84.77,47.79,11.3,170.91,40.82,205.39,49.15,45.89,11.09,100.45,23.32,100.45,23.32l.75,131.62H0l.75-103.3s39.73-57.48,116.94-116.62c39.73-34.99,83.21-56.65,161.17-94.13,92.95-36.65,109.84-41.75,177.66-57.48,86.21-19.99,155.92-18.33,218.73-22.58,69.24-4.69,103.6-10.74,144.34-14.32,20.51-1.8,62.05-6.83,77.36-13.63,16.52-7.34,20.91-15.33,20.28-30.07-.16-3.84-1.79-15.6-24.92-28.67-56.79-32.11-167.3-29.24-192.97-28.67-25.7,.58-113.29,.35-180.8-12.59-18.41-3.53-50.71-12.24-79.97-32.86-24.27-17.1-28.11-28.32-30.13-41.25-3.18-20.31,1.17-40.4,13.33-51.04,21.15-18.53,42.85-24.72,62.3-28.32,32.16-5.94,106.63-6.29,136.76-9.79,15.1-1.75,72.15-10.14,99.09-23.77,1.19-.6,5.76-3.86,6.08-8.04,1.45-18.53-50.71-33.91-50.71-33.91,0,0,50.42,6.29,81.13,18.18,13.44,5.2,36.49,23.29,35.93,38.46-.78,21.26-37.2,37.53-56.79,43.35-30.85,9.17-61.43,9.09-79.39,19.58-7.97,4.65-10.09,7.47-10.45,9.87h0s-.62,2,.6,4.81c10.43,24.08,106.63,28.67,106.63,28.67Z"/></g></svg>