<svg xmlns="http://www.w3.org/2000/svg" width="500" zoomAndPan="magnify" viewBox="0 0 375 374.999991" height="500" preserveAspectRatio="xMidYMid meet" version="1.0"><defs><g/><clipPath id="id1"><path d="M 54 142.480469 L 132.75 142.480469 L 132.75 242.980469 L 54 242.980469 Z M 54 142.480469 "/></clipPath></defs><g clip-path="url(#id1)"><path fill="rgb(100%, 79.998779%, 0%)" d="M 125.6875 169.269531 C 126.1875 173.050781 123.832031 176.191406 124.296875 182.191406 C 124.761719 188.195312 132.671875 197.796875 132.644531 199.273438 C 132.613281 201.332031 125.121094 200.4375 124.992188 202.503906 C 124.433594 211.28125 125.089844 216.675781 121.167969 221.359375 C 118.273438 224.820312 104.199219 221.984375 101.84375 225.539062 C 97.308594 232.382812 105.457031 241.777344 98.667969 241.777344 C 94.492188 241.777344 75.285156 242.980469 71.53125 241.738281 C 65.582031 239.765625 73.570312 225.84375 69.789062 216.121094 C 64.046875 201.335938 55.875 200.886719 54.136719 178.214844 C 52.546875 157.53125 67.472656 142.5 88.808594 142.5 C 109.65625 142.496094 122.90625 148.265625 125.6875 169.269531 Z M 125.6875 169.269531 " fill-opacity="1"/></g><path fill="rgb(59.999084%, 0%, 0%)" d="M 120.203125 170.226562 C 117.609375 177.222656 109.617188 179.175781 97.847656 179.175781 C 89.234375 179.175781 88.0625 188.480469 80.035156 196.195312 C 72.574219 203.367188 59.617188 198.566406 57.722656 186.117188 C 53.914062 161.097656 68.183594 145.785156 90.429688 145.785156 C 102.753906 145.785156 126.917969 152.128906 120.203125 170.226562 Z M 120.203125 170.226562 " fill-opacity="1"/><path fill="rgb(59.999084%, 0%, 0%)" d="M 102.824219 163.089844 C 102.824219 164.859375 96.894531 171.214844 89.582031 171.214844 C 82.269531 171.214844 76.34375 164.730469 76.34375 163.089844 C 76.34375 161.449219 82.273438 154.964844 89.582031 154.964844 C 96.894531 154.964844 102.824219 161.316406 102.824219 163.089844 Z M 102.824219 163.089844 " fill-opacity="1"/><path fill="rgb(100%, 79.998779%, 0%)" d="M 89.582031 171.757812 C 82.15625 171.757812 75.792969 165.152344 75.792969 163.089844 C 75.792969 161.027344 82.15625 154.421875 89.582031 154.421875 C 97.167969 154.421875 103.371094 160.964844 103.371094 163.089844 C 103.371094 165.214844 97.167969 171.757812 89.582031 171.757812 Z M 89.582031 155.511719 C 82.46875 155.511719 76.890625 161.914062 76.890625 163.089844 C 76.890625 164.265625 82.46875 170.667969 89.582031 170.667969 C 96.574219 170.667969 102.273438 164.574219 102.273438 163.089844 C 102.273438 161.605469 96.574219 155.511719 89.582031 155.511719 Z M 89.582031 155.511719 " fill-opacity="1"/><path fill="rgb(100%, 79.998779%, 0%)" d="M 97.335938 163.089844 C 97.335938 163.546875 97.289062 164 97.199219 164.449219 C 97.109375 164.894531 96.980469 165.332031 96.804688 165.753906 C 96.625 166.175781 96.410156 166.578125 96.15625 166.957031 C 95.902344 167.339844 95.609375 167.691406 95.285156 168.011719 C 94.960938 168.335938 94.609375 168.625 94.226562 168.878906 C 93.84375 169.132812 93.441406 169.347656 93.015625 169.523438 C 92.589844 169.695312 92.152344 169.828125 91.703125 169.917969 C 91.253906 170.007812 90.796875 170.050781 90.339844 170.050781 C 89.878906 170.050781 89.421875 170.007812 88.972656 169.917969 C 88.523438 169.828125 88.085938 169.695312 87.660156 169.523438 C 87.234375 169.347656 86.832031 169.132812 86.449219 168.878906 C 86.070312 168.625 85.714844 168.335938 85.390625 168.011719 C 85.066406 167.691406 84.773438 167.339844 84.519531 166.957031 C 84.265625 166.578125 84.050781 166.175781 83.875 165.753906 C 83.699219 165.332031 83.566406 164.894531 83.476562 164.449219 C 83.386719 164 83.339844 163.546875 83.339844 163.089844 C 83.339844 162.632812 83.386719 162.179688 83.476562 161.730469 C 83.566406 161.28125 83.699219 160.847656 83.875 160.425781 C 84.050781 160.003906 84.265625 159.601562 84.519531 159.222656 C 84.773438 158.839844 85.066406 158.488281 85.390625 158.167969 C 85.714844 157.84375 86.070312 157.554688 86.449219 157.300781 C 86.832031 157.046875 87.234375 156.832031 87.660156 156.65625 C 88.085938 156.480469 88.523438 156.351562 88.972656 156.261719 C 89.421875 156.171875 89.878906 156.128906 90.339844 156.128906 C 90.796875 156.128906 91.253906 156.171875 91.703125 156.261719 C 92.152344 156.351562 92.589844 156.480469 93.015625 156.65625 C 93.441406 156.832031 93.84375 157.046875 94.226562 157.300781 C 94.609375 157.554688 94.960938 157.84375 95.285156 158.167969 C 95.609375 158.488281 95.902344 158.839844 96.15625 159.222656 C 96.410156 159.601562 96.625 160.003906 96.804688 160.425781 C 96.980469 160.847656 97.109375 161.28125 97.199219 161.730469 C 97.289062 162.179688 97.335938 162.632812 97.335938 163.089844 Z M 97.335938 163.089844 " fill-opacity="1"/><path fill="rgb(100%, 79.998779%, 0%)" d="M 89.859375 152.371094 C 89.480469 152.371094 89.171875 152.066406 89.171875 151.691406 L 89.171875 147.867188 C 89.171875 147.492188 89.480469 147.183594 89.859375 147.183594 C 90.238281 147.183594 90.542969 147.492188 90.542969 147.867188 L 90.542969 151.691406 C 90.542969 152.066406 90.238281 152.371094 89.859375 152.371094 Z M 89.859375 152.371094 " fill-opacity="1"/><path fill="rgb(100%, 79.998779%, 0%)" d="M 96.910156 153.945312 C 96.777344 153.945312 96.640625 153.90625 96.519531 153.824219 C 96.210938 153.609375 96.132812 153.183594 96.347656 152.871094 L 98.535156 149.730469 C 98.75 149.421875 99.175781 149.34375 99.488281 149.558594 C 99.800781 149.773438 99.878906 150.199219 99.660156 150.507812 L 97.476562 153.648438 C 97.339844 153.839844 97.128906 153.945312 96.910156 153.945312 Z M 96.910156 153.945312 " fill-opacity="1"/><path fill="rgb(100%, 79.998779%, 0%)" d="M 101.898438 158.421875 C 101.675781 158.421875 101.460938 158.320312 101.328125 158.125 C 101.117188 157.8125 101.199219 157.386719 101.511719 157.175781 L 104.691406 155.027344 C 105.003906 154.816406 105.429688 154.898438 105.644531 155.210938 C 105.855469 155.523438 105.773438 155.945312 105.460938 156.160156 L 102.28125 158.304688 C 102.164062 158.386719 102.03125 158.421875 101.898438 158.421875 Z M 101.898438 158.421875 " fill-opacity="1"/><path fill="rgb(100%, 79.998779%, 0%)" d="M 82 153.578125 C 81.761719 153.578125 81.53125 153.453125 81.40625 153.234375 L 79.496094 149.917969 C 79.308594 149.589844 79.421875 149.171875 79.75 148.984375 C 80.078125 148.796875 80.5 148.910156 80.6875 149.238281 L 82.59375 152.554688 C 82.785156 152.882812 82.667969 153.300781 82.339844 153.488281 C 82.234375 153.546875 82.117188 153.578125 82 153.578125 Z M 82 153.578125 " fill-opacity="1"/><path fill="rgb(100%, 79.998779%, 0%)" d="M 76.941406 158.421875 C 76.808594 158.421875 76.675781 158.386719 76.554688 158.304688 L 73.375 156.160156 C 73.0625 155.945312 72.980469 155.523438 73.195312 155.210938 C 73.40625 154.898438 73.835938 154.816406 74.148438 155.027344 L 77.328125 157.175781 C 77.640625 157.386719 77.722656 157.8125 77.507812 158.125 C 77.375 158.320312 77.160156 158.421875 76.941406 158.421875 Z M 76.941406 158.421875 " fill-opacity="1"/><path fill="rgb(100%, 79.998779%, 0%)" d="M 88.980469 179.355469 C 88.601562 179.355469 88.292969 179.050781 88.292969 178.671875 L 88.292969 174.851562 C 88.292969 174.472656 88.601562 174.167969 88.980469 174.167969 C 89.359375 174.167969 89.664062 174.472656 89.664062 174.851562 L 89.664062 178.671875 C 89.664062 179.050781 89.359375 179.355469 88.980469 179.355469 Z M 88.980469 179.355469 " fill-opacity="1"/><path fill="rgb(100%, 79.998779%, 0%)" d="M 79.738281 177.105469 C 79.605469 177.105469 79.46875 177.066406 79.351562 176.984375 C 79.039062 176.769531 78.960938 176.34375 79.175781 176.035156 L 81.363281 172.890625 C 81.578125 172.582031 82.003906 172.503906 82.316406 172.71875 C 82.628906 172.933594 82.707031 173.359375 82.492188 173.667969 L 80.304688 176.8125 C 80.171875 177.003906 79.957031 177.105469 79.738281 177.105469 Z M 79.738281 177.105469 " fill-opacity="1"/><path fill="rgb(100%, 79.998779%, 0%)" d="M 73.761719 171.628906 C 73.542969 171.628906 73.328125 171.523438 73.195312 171.328125 C 72.980469 171.019531 73.0625 170.59375 73.378906 170.382812 L 76.554688 168.234375 C 76.871094 168.023438 77.296875 168.105469 77.507812 168.417969 C 77.722656 168.730469 77.640625 169.152344 77.328125 169.367188 L 74.148438 171.511719 C 74.03125 171.589844 73.894531 171.628906 73.761719 171.628906 Z M 73.761719 171.628906 " fill-opacity="1"/><path fill="rgb(100%, 79.998779%, 0%)" d="M 98.746094 177.644531 C 98.507812 177.644531 98.277344 177.523438 98.152344 177.304688 L 96.242188 173.984375 C 96.054688 173.660156 96.167969 173.242188 96.496094 173.054688 C 96.824219 172.867188 97.246094 172.980469 97.433594 173.308594 L 99.339844 176.625 C 99.53125 176.949219 99.414062 177.367188 99.085938 177.554688 C 98.980469 177.617188 98.863281 177.644531 98.746094 177.644531 Z M 98.746094 177.644531 " fill-opacity="1"/><path fill="rgb(100%, 79.998779%, 0%)" d="M 105.074219 171.628906 C 104.941406 171.628906 104.808594 171.589844 104.691406 171.511719 L 101.511719 169.367188 C 101.199219 169.152344 101.117188 168.730469 101.328125 168.417969 C 101.542969 168.105469 101.96875 168.023438 102.28125 168.234375 L 105.460938 170.382812 C 105.773438 170.59375 105.855469 171.019531 105.644531 171.328125 C 105.511719 171.523438 105.292969 171.628906 105.074219 171.628906 Z M 105.074219 171.628906 " fill-opacity="1"/><path fill="rgb(59.999084%, 0%, 0%)" d="M 94.535156 163.089844 C 94.535156 163.363281 94.507812 163.636719 94.453125 163.902344 C 94.398438 164.171875 94.320312 164.433594 94.214844 164.6875 C 94.109375 164.941406 93.980469 165.179688 93.828125 165.410156 C 93.675781 165.636719 93.5 165.847656 93.304688 166.042969 C 93.109375 166.234375 92.898438 166.410156 92.667969 166.5625 C 92.441406 166.714844 92.199219 166.84375 91.945312 166.945312 C 91.6875 167.050781 91.425781 167.132812 91.15625 167.183594 C 90.886719 167.238281 90.613281 167.265625 90.339844 167.265625 C 90.0625 167.265625 89.789062 167.238281 89.519531 167.183594 C 89.25 167.132812 88.988281 167.050781 88.730469 166.945312 C 88.476562 166.84375 88.234375 166.714844 88.007812 166.5625 C 87.777344 166.410156 87.566406 166.234375 87.371094 166.042969 C 87.175781 165.847656 87.003906 165.636719 86.847656 165.410156 C 86.695312 165.179688 86.566406 164.941406 86.460938 164.6875 C 86.355469 164.433594 86.277344 164.171875 86.222656 163.902344 C 86.167969 163.636719 86.140625 163.363281 86.140625 163.089844 C 86.140625 162.816406 86.167969 162.542969 86.222656 162.273438 C 86.277344 162.007812 86.355469 161.746094 86.460938 161.492188 C 86.566406 161.238281 86.695312 160.996094 86.847656 160.769531 C 87.003906 160.542969 87.175781 160.332031 87.371094 160.136719 C 87.566406 159.941406 87.777344 159.769531 88.007812 159.617188 C 88.234375 159.464844 88.476562 159.335938 88.730469 159.230469 C 88.988281 159.128906 89.25 159.046875 89.519531 158.996094 C 89.789062 158.941406 90.0625 158.914062 90.339844 158.914062 C 90.613281 158.914062 90.886719 158.941406 91.15625 158.996094 C 91.425781 159.046875 91.6875 159.128906 91.945312 159.230469 C 92.199219 159.335938 92.441406 159.464844 92.667969 159.617188 C 92.898438 159.769531 93.109375 159.941406 93.304688 160.136719 C 93.5 160.332031 93.675781 160.542969 93.828125 160.769531 C 93.980469 160.996094 94.109375 161.238281 94.214844 161.492188 C 94.320312 161.746094 94.398438 162.007812 94.453125 162.273438 C 94.507812 162.542969 94.535156 162.816406 94.535156 163.089844 Z M 94.535156 163.089844 " fill-opacity="1"/><g fill="rgb(100%, 100%, 100%)" fill-opacity="1"><g transform="translate(158.665087, 196.223073)"><g><path d="M 10.050781 -14.515625 C 9.695312 -15.515625 8.167969 -20.394531 8.167969 -21.449219 C 8.167969 -22.214844 8.640625 -22.566406 9.226562 -22.566406 L 10.402344 -22.566406 C 10.753906 -22.566406 10.8125 -22.804688 10.8125 -23.15625 L 10.8125 -24.214844 C 10.8125 -24.566406 10.695312 -24.683594 10.226562 -24.683594 C 9.578125 -24.683594 8.050781 -24.507812 4.9375 -24.507812 C 1.644531 -24.507812 0.644531 -24.683594 0 -24.683594 C -0.527344 -24.683594 -0.644531 -24.625 -0.644531 -24.214844 L -0.644531 -23.15625 C -0.644531 -22.804688 -0.585938 -22.566406 -0.292969 -22.566406 L 0.882812 -22.566406 C 1.9375 -22.566406 2.527344 -22.097656 3.292969 -20.394531 C 3.703125 -19.453125 6.113281 -12.753906 6.289062 -12.28125 C 6.464844 -11.8125 10.753906 -0.644531 10.871094 -0.351562 C 11.167969 0.351562 11.519531 0.882812 12.105469 0.882812 C 12.753906 0.882812 13.046875 0.351562 13.515625 -0.46875 C 13.753906 -0.882812 18.101562 -10.753906 18.804688 -12.519531 C 19.6875 -14.691406 22.625 -21.097656 23.507812 -21.921875 C 24.035156 -22.449219 24.625 -22.566406 25.328125 -22.566406 L 26.445312 -22.566406 C 26.742188 -22.566406 26.742188 -22.742188 26.742188 -23.15625 L 26.742188 -24.15625 C 26.742188 -24.625 26.679688 -24.683594 26.210938 -24.683594 C 25.683594 -24.683594 24.273438 -24.507812 21.980469 -24.507812 C 19.394531 -24.507812 18.101562 -24.683594 17.277344 -24.683594 C 17.042969 -24.683594 16.925781 -24.566406 16.925781 -24.214844 L 16.925781 -23.15625 C 16.925781 -22.863281 16.984375 -22.566406 17.160156 -22.566406 L 18.335938 -22.566406 C 19.394531 -22.566406 19.804688 -21.628906 19.394531 -20.039062 C 18.804688 -17.75 14.691406 -7.699219 13.753906 -5.40625 L 13.574219 -5.40625 C 12.929688 -6.640625 10.402344 -13.398438 10.050781 -14.515625 Z M 10.050781 -14.515625 "/></g></g></g><g fill="rgb(100%, 100%, 100%)" fill-opacity="1"><g transform="translate(184.758833, 196.223073)"><g><path d="M 5.996094 -8.460938 C 5.996094 -6.699219 5.996094 -4.878906 5.9375 -3.113281 C 5.878906 -2.175781 5.640625 -1.9375 4.996094 -1.9375 L 2.117188 -1.9375 C 1.703125 -1.9375 1.527344 -1.820312 1.527344 -1.46875 L 1.527344 -0.292969 C 1.527344 0.0585938 1.703125 0.175781 2 0.175781 C 2.644531 0.175781 4.9375 0 8.34375 0 C 10.8125 0 13.515625 0.175781 13.988281 0.175781 C 14.398438 0.175781 14.515625 0 14.515625 -0.410156 L 14.515625 -1.410156 C 14.515625 -1.761719 14.398438 -1.9375 13.929688 -1.9375 L 11.226562 -1.9375 C 10.578125 -1.9375 10.402344 -2.351562 10.285156 -3.46875 C 10.226562 -4.113281 10.226562 -6.230469 10.226562 -8.523438 L 10.226562 -14.925781 C 10.226562 -19.804688 10.226562 -23.507812 10.34375 -24.507812 C 10.402344 -24.917969 10.34375 -25.210938 10.050781 -25.210938 C 9.695312 -25.210938 9.402344 -25.09375 8.933594 -24.859375 C 6.699219 -23.625 4.464844 -22.683594 2.585938 -21.980469 C 2.292969 -21.863281 2.175781 -21.746094 2.175781 -21.570312 L 2.175781 -21.039062 C 2.175781 -20.804688 2.292969 -20.6875 2.703125 -20.628906 C 5.640625 -20.15625 5.996094 -19.101562 5.996094 -17.101562 Z M 6.582031 -31.972656 C 8.933594 -31.972656 9.992188 -33.675781 9.992188 -35.203125 C 9.992188 -36.496094 8.992188 -38.082031 6.933594 -38.082031 C 4.585938 -38.082031 3.351562 -36.496094 3.351562 -35.027344 C 3.351562 -33.144531 5.289062 -31.972656 6.582031 -31.972656 Z M 6.582031 -31.972656 "/></g></g></g><g fill="rgb(100%, 100%, 100%)" fill-opacity="1"><g transform="translate(201.096835, 196.223073)"><g><path d="M 9.753906 0.707031 C 14.75 0.707031 18.628906 -2.292969 18.6875 -7.050781 C 18.628906 -11.578125 15.925781 -13.339844 11.636719 -14.574219 C 8.757812 -15.398438 5.996094 -16.042969 5.996094 -19.453125 C 5.996094 -21.980469 8.285156 -23.332031 10.519531 -23.332031 C 12.8125 -23.332031 13.929688 -22.15625 14.632812 -21.039062 L 16.632812 -18.335938 C 16.808594 -18.042969 16.925781 -17.984375 17.160156 -18.042969 L 17.867188 -18.277344 C 18.160156 -18.394531 18.277344 -18.570312 18.277344 -18.804688 L 17.394531 -22.921875 C 17.335938 -23.273438 17.21875 -23.566406 16.339844 -23.976562 C 15.28125 -24.507812 13.753906 -25.210938 10.929688 -25.210938 C 6.523438 -25.210938 2.703125 -22.097656 2.703125 -18.042969 C 2.703125 -13.398438 6.171875 -11.578125 9.636719 -10.578125 C 14.046875 -9.34375 15.339844 -7.816406 15.339844 -5.171875 C 15.339844 -2.410156 12.753906 -1.175781 10.695312 -1.175781 C 7.582031 -1.175781 6.757812 -2.644531 5.582031 -4.820312 L 4.113281 -7.699219 C 3.996094 -7.992188 3.820312 -8.109375 3.585938 -8.050781 L 2.820312 -7.875 C 2.585938 -7.816406 2.410156 -7.699219 2.46875 -7.40625 L 3.46875 -1.820312 C 3.527344 -1.527344 3.527344 -1.175781 3.820312 -1 C 4.523438 -0.46875 6.875 0.707031 9.753906 0.707031 Z M 9.753906 0.707031 "/></g></g></g><g fill="rgb(100%, 100%, 100%)" fill-opacity="1"><g transform="translate(222.665324, 196.223073)"><g><path d="M 5.996094 -8.460938 C 5.996094 -6.699219 5.996094 -4.878906 5.9375 -3.113281 C 5.878906 -2.175781 5.640625 -1.9375 4.996094 -1.9375 L 2.117188 -1.9375 C 1.703125 -1.9375 1.527344 -1.820312 1.527344 -1.46875 L 1.527344 -0.292969 C 1.527344 0.0585938 1.703125 0.175781 2 0.175781 C 2.644531 0.175781 4.9375 0 8.34375 0 C 10.8125 0 13.515625 0.175781 13.988281 0.175781 C 14.398438 0.175781 14.515625 0 14.515625 -0.410156 L 14.515625 -1.410156 C 14.515625 -1.761719 14.398438 -1.9375 13.929688 -1.9375 L 11.226562 -1.9375 C 10.578125 -1.9375 10.402344 -2.351562 10.285156 -3.46875 C 10.226562 -4.113281 10.226562 -6.230469 10.226562 -8.523438 L 10.226562 -14.925781 C 10.226562 -19.804688 10.226562 -23.507812 10.34375 -24.507812 C 10.402344 -24.917969 10.34375 -25.210938 10.050781 -25.210938 C 9.695312 -25.210938 9.402344 -25.09375 8.933594 -24.859375 C 6.699219 -23.625 4.464844 -22.683594 2.585938 -21.980469 C 2.292969 -21.863281 2.175781 -21.746094 2.175781 -21.570312 L 2.175781 -21.039062 C 2.175781 -20.804688 2.292969 -20.6875 2.703125 -20.628906 C 5.640625 -20.15625 5.996094 -19.101562 5.996094 -17.101562 Z M 6.582031 -31.972656 C 8.933594 -31.972656 9.992188 -33.675781 9.992188 -35.203125 C 9.992188 -36.496094 8.992188 -38.082031 6.933594 -38.082031 C 4.585938 -38.082031 3.351562 -36.496094 3.351562 -35.027344 C 3.351562 -33.144531 5.289062 -31.972656 6.582031 -31.972656 Z M 6.582031 -31.972656 "/></g></g></g><g fill="rgb(100%, 100%, 100%)" fill-opacity="1"><g transform="translate(239.003326, 196.223073)"><g><path d="M 14.222656 0.707031 C 21.449219 0.707031 27.210938 -5.816406 27.210938 -12.222656 C 27.210938 -16.042969 25.859375 -19.101562 23.214844 -21.804688 C 21.449219 -23.566406 18.21875 -25.210938 14.988281 -25.210938 C 13.046875 -25.210938 10.167969 -24.742188 7.109375 -22.390625 C 3.644531 -19.6875 2.058594 -15.925781 2.058594 -12.929688 C 2.058594 -8.757812 2.585938 -6.582031 5.289062 -3.351562 C 7.757812 -0.410156 11.402344 0.707031 14.222656 0.707031 Z M 14.925781 -1.058594 C 12.164062 -1.058594 10.460938 -2.175781 9.109375 -4.113281 C 7.230469 -6.816406 6.875 -9.050781 6.875 -12.339844 C 6.875 -16.808594 7.699219 -19.21875 9.992188 -21.570312 C 11.402344 -23.097656 12.929688 -23.449219 14.515625 -23.449219 C 17.511719 -23.449219 22.273438 -19.335938 22.273438 -12.8125 C 22.273438 -6.523438 19.394531 -1.058594 14.925781 -1.058594 Z M 14.925781 -1.058594 "/></g></g></g><g fill="rgb(100%, 100%, 100%)" fill-opacity="1"><g transform="translate(268.917093, 196.223073)"><g><path d="M 26.328125 -18.335938 C 26.328125 -19.804688 24.859375 -22.742188 23.097656 -23.917969 C 21.6875 -24.859375 19.863281 -25.210938 18.101562 -25.210938 C 15.164062 -25.210938 11.753906 -23.039062 10.050781 -20.921875 L 9.933594 -20.921875 L 9.519531 -24.507812 C 9.460938 -24.976562 9.34375 -25.210938 9.050781 -25.210938 C 8.816406 -25.210938 8.460938 -25.035156 7.992188 -24.800781 L 2.9375 -21.980469 C 2.644531 -21.863281 2.410156 -21.6875 2.410156 -21.390625 L 2.410156 -21.097656 C 2.410156 -20.921875 2.46875 -20.746094 2.878906 -20.570312 L 3.351562 -20.335938 C 4.820312 -19.628906 5.757812 -18.628906 5.757812 -16.867188 L 5.757812 -3.113281 C 5.757812 -2.117188 5.347656 -1.9375 4.585938 -1.9375 L 2.878906 -1.9375 C 2.410156 -1.9375 2.292969 -1.761719 2.292969 -1.410156 L 2.292969 -0.351562 C 2.292969 0 2.410156 0.175781 2.703125 0.175781 C 3.054688 0.175781 4.9375 0 7.933594 0 C 11.046875 0 12.636719 0.175781 13.046875 0.175781 C 13.339844 0.175781 13.457031 0 13.457031 -0.351562 L 13.457031 -1.351562 C 13.457031 -1.761719 13.339844 -1.9375 12.871094 -1.9375 L 11.402344 -1.9375 C 10.167969 -1.9375 9.992188 -2.292969 9.992188 -3.878906 L 9.992188 -16.042969 C 9.992188 -17.160156 10.167969 -18.746094 11.34375 -20.039062 C 13.105469 -21.921875 15.164062 -22.332031 16.101562 -22.332031 C 17.570312 -22.332031 18.984375 -22.332031 20.394531 -21.273438 C 22.097656 -20.039062 22.097656 -18.335938 22.097656 -15.984375 L 22.097656 -8.226562 C 22.097656 -6.699219 22.039062 -4.820312 21.980469 -3.292969 C 21.921875 -2.234375 21.449219 -1.9375 20.804688 -1.9375 L 19.101562 -1.9375 C 18.511719 -1.9375 18.335938 -1.820312 18.335938 -1.410156 L 18.335938 -0.46875 C 18.335938 0 18.453125 0.175781 18.804688 0.175781 C 19.21875 0.175781 21.097656 0 24.09375 0 C 27.445312 0 29.265625 0.175781 29.679688 0.175781 C 30.03125 0.175781 30.148438 -0.0585938 30.148438 -0.46875 L 30.148438 -1.410156 C 30.148438 -1.761719 30.03125 -1.9375 29.503906 -1.9375 L 27.621094 -1.9375 C 26.859375 -1.9375 26.328125 -2.234375 26.328125 -3.171875 Z M 26.328125 -18.335938 "/></g></g></g><g fill="rgb(100%, 100%, 100%)" fill-opacity="1"><g transform="translate(141.368213, 253.223069)"><g><path d="M 9.878906 -14.269531 C 9.53125 -15.25 8.03125 -20.046875 8.03125 -21.085938 C 8.03125 -21.839844 8.492188 -22.183594 9.070312 -22.183594 L 10.226562 -22.183594 C 10.574219 -22.183594 10.628906 -22.414062 10.628906 -22.761719 L 10.628906 -23.800781 C 10.628906 -24.148438 10.515625 -24.265625 10.050781 -24.265625 C 9.417969 -24.265625 7.914062 -24.089844 4.851562 -24.089844 C 1.617188 -24.089844 0.636719 -24.265625 0 -24.265625 C -0.519531 -24.265625 -0.636719 -24.207031 -0.636719 -23.800781 L -0.636719 -22.761719 C -0.636719 -22.414062 -0.578125 -22.183594 -0.289062 -22.183594 L 0.867188 -22.183594 C 1.90625 -22.183594 2.484375 -21.722656 3.234375 -20.046875 C 3.640625 -19.121094 6.007812 -12.535156 6.183594 -12.074219 C 6.355469 -11.613281 10.574219 -0.636719 10.6875 -0.347656 C 10.976562 0.347656 11.324219 0.867188 11.902344 0.867188 C 12.535156 0.867188 12.824219 0.347656 13.289062 -0.460938 C 13.519531 -0.867188 17.792969 -10.574219 18.488281 -12.304688 C 19.355469 -14.441406 22.242188 -20.742188 23.109375 -21.550781 C 23.628906 -22.070312 24.207031 -22.183594 24.898438 -22.183594 L 25.996094 -22.183594 C 26.285156 -22.183594 26.285156 -22.359375 26.285156 -22.761719 L 26.285156 -23.746094 C 26.285156 -24.207031 26.230469 -24.265625 25.765625 -24.265625 C 25.246094 -24.265625 23.859375 -24.089844 21.605469 -24.089844 C 19.066406 -24.089844 17.792969 -24.265625 16.984375 -24.265625 C 16.753906 -24.265625 16.636719 -24.148438 16.636719 -23.800781 L 16.636719 -22.761719 C 16.636719 -22.472656 16.695312 -22.183594 16.871094 -22.183594 L 18.023438 -22.183594 C 19.066406 -22.183594 19.46875 -21.261719 19.066406 -19.699219 C 18.488281 -17.449219 14.441406 -7.566406 13.519531 -5.316406 L 13.34375 -5.316406 C 12.710938 -6.527344 10.226562 -13.171875 9.878906 -14.269531 Z M 9.878906 -14.269531 "/></g></g></g><g fill="rgb(100%, 100%, 100%)" fill-opacity="1"><g transform="translate(167.014584, 253.223069)"><g><path d="M 20.914062 -15.367188 C 21.839844 -15.367188 22.53125 -15.484375 22.53125 -16.292969 C 22.53125 -18.546875 20.683594 -24.785156 14.039062 -24.785156 C 11.148438 -24.785156 8.261719 -24.265625 5.777344 -21.722656 C 2.714844 -18.660156 2.136719 -14.789062 2.136719 -12.535156 C 2.136719 -8.492188 2.65625 -6.355469 4.679688 -3.410156 C 6.816406 -0.289062 10.457031 0.691406 13.75 0.691406 C 18.890625 0.691406 21.894531 -3.292969 22.9375 -5.605469 C 23.222656 -6.238281 23.109375 -6.414062 22.9375 -6.46875 L 22.183594 -6.875 C 22.011719 -6.933594 21.78125 -6.816406 21.664062 -6.585938 C 20.683594 -4.679688 18.199219 -2.65625 14.675781 -2.65625 C 10.050781 -2.65625 6.46875 -6.933594 6.46875 -12.59375 C 6.46875 -13.921875 6.527344 -14.847656 6.644531 -15.367188 Z M 6.875 -17.101562 C 7.972656 -21.375 10.398438 -23.050781 12.941406 -23.050781 C 16.695312 -23.050781 17.390625 -19.238281 17.390625 -17.910156 C 17.390625 -17.390625 16.925781 -17.101562 15.828125 -17.101562 Z M 6.875 -17.101562 "/></g></g></g><g fill="rgb(100%, 100%, 100%)" fill-opacity="1"><g transform="translate(192.256612, 253.223069)"><g><path d="M 25.882812 -18.023438 C 25.882812 -19.46875 24.4375 -22.359375 22.703125 -23.511719 C 21.316406 -24.4375 19.527344 -24.785156 17.792969 -24.785156 C 14.90625 -24.785156 11.554688 -22.648438 9.878906 -20.566406 L 9.761719 -20.566406 L 9.359375 -24.089844 C 9.300781 -24.554688 9.1875 -24.785156 8.898438 -24.785156 C 8.664062 -24.785156 8.320312 -24.609375 7.855469 -24.378906 L 2.886719 -21.605469 C 2.601562 -21.492188 2.367188 -21.316406 2.367188 -21.027344 L 2.367188 -20.742188 C 2.367188 -20.566406 2.425781 -20.394531 2.832031 -20.21875 L 3.292969 -19.988281 C 4.738281 -19.296875 5.660156 -18.3125 5.660156 -16.582031 L 5.660156 -3.0625 C 5.660156 -2.078125 5.257812 -1.90625 4.507812 -1.90625 L 2.832031 -1.90625 C 2.367188 -1.90625 2.253906 -1.734375 2.253906 -1.386719 L 2.253906 -0.347656 C 2.253906 0 2.367188 0.171875 2.65625 0.171875 C 3.003906 0.171875 4.851562 0 7.800781 0 C 10.859375 0 12.421875 0.171875 12.824219 0.171875 C 13.113281 0.171875 13.230469 0 13.230469 -0.347656 L 13.230469 -1.328125 C 13.230469 -1.734375 13.113281 -1.90625 12.652344 -1.90625 L 11.207031 -1.90625 C 9.996094 -1.90625 9.820312 -2.253906 9.820312 -3.8125 L 9.820312 -15.773438 C 9.820312 -16.871094 9.996094 -18.429688 11.148438 -19.699219 C 12.882812 -21.550781 14.90625 -21.953125 15.828125 -21.953125 C 17.273438 -21.953125 18.660156 -21.953125 20.046875 -20.914062 C 21.722656 -19.699219 21.722656 -18.023438 21.722656 -15.714844 L 21.722656 -8.089844 C 21.722656 -6.585938 21.664062 -4.738281 21.605469 -3.234375 C 21.550781 -2.195312 21.085938 -1.90625 20.453125 -1.90625 L 18.777344 -1.90625 C 18.199219 -1.90625 18.023438 -1.789062 18.023438 -1.386719 L 18.023438 -0.460938 C 18.023438 0 18.140625 0.171875 18.488281 0.171875 C 18.890625 0.171875 20.742188 0 23.6875 0 C 26.980469 0 28.769531 0.171875 29.175781 0.171875 C 29.523438 0.171875 29.636719 -0.0585938 29.636719 -0.460938 L 29.636719 -1.386719 C 29.636719 -1.734375 29.523438 -1.90625 29 -1.90625 L 27.152344 -1.90625 C 26.402344 -1.90625 25.882812 -2.195312 25.882812 -3.121094 Z M 25.882812 -18.023438 "/></g></g></g><g fill="rgb(100%, 100%, 100%)" fill-opacity="1"><g transform="translate(223.621393, 253.223069)"><g><path d="M 9.761719 -13 C 9.761719 -15.65625 9.820312 -18.429688 9.9375 -21.085938 L 17.390625 -21.085938 C 17.734375 -21.085938 17.851562 -21.261719 17.910156 -21.550781 L 18.488281 -23.570312 C 18.601562 -23.800781 18.429688 -24.089844 18.082031 -24.089844 L 10.050781 -24.089844 L 10.339844 -29.8125 C 10.339844 -30.273438 10.226562 -30.675781 9.761719 -30.675781 C 9.417969 -30.675781 9.128906 -30.5625 8.953125 -30.097656 C 8.203125 -28.136719 3.753906 -23.628906 2.367188 -22.820312 C 1.675781 -22.414062 1.328125 -22.242188 1.328125 -21.78125 C 1.328125 -21.316406 1.675781 -21.085938 2.195312 -21.085938 L 5.71875 -21.085938 C 5.660156 -18.660156 5.605469 -14.789062 5.605469 -13.75 L 5.605469 -12.480469 C 5.605469 -11.671875 5.429688 -6.585938 5.429688 -4.21875 C 5.429688 -2.023438 8.203125 0.691406 11.035156 0.691406 C 14.5 0.691406 16.871094 -1.039062 17.449219 -1.617188 C 17.621094 -1.789062 17.734375 -2.023438 17.5625 -2.253906 L 17.273438 -2.773438 C 17.101562 -3.003906 16.871094 -3.0625 16.582031 -2.886719 C 15.773438 -2.367188 14.097656 -2.136719 12.769531 -2.136719 C 11.726562 -2.136719 9.761719 -2.886719 9.761719 -7.222656 Z M 9.761719 -13 "/></g></g></g><g fill="rgb(100%, 100%, 100%)" fill-opacity="1"><g transform="translate(242.682923, 253.223069)"><g><path d="M 24.089844 -16.003906 C 24.089844 -21.664062 24.378906 -23.167969 24.4375 -23.6875 C 24.496094 -23.976562 24.265625 -24.265625 23.917969 -24.265625 C 23.746094 -24.265625 23.511719 -24.207031 23.222656 -24.207031 C 22.9375 -24.148438 22.648438 -24.089844 22.242188 -24.089844 L 16.871094 -24.089844 C 16.292969 -24.089844 16.175781 -24.035156 16.175781 -23.570312 L 16.175781 -22.589844 C 16.175781 -22.300781 16.464844 -22.183594 17.449219 -22.183594 C 18.890625 -22.070312 19.816406 -21.78125 19.929688 -20.164062 L 19.929688 -6.414062 C 19.929688 -5.894531 19.585938 -5.140625 19.355469 -4.851562 C 18.257812 -3.464844 15.945312 -1.964844 14.386719 -1.964844 C 12.824219 -1.964844 11.207031 -2.078125 9.761719 -4.160156 C 7.914062 -6.816406 8.492188 -10.515625 8.492188 -12.824219 L 8.492188 -16.925781 C 8.492188 -20.335938 8.664062 -23.050781 8.722656 -23.570312 C 8.78125 -23.976562 8.492188 -24.265625 8.089844 -24.265625 C 7.914062 -24.265625 7.683594 -24.207031 7.453125 -24.207031 C 7.222656 -24.148438 6.992188 -24.089844 6.644531 -24.089844 L 1.503906 -24.089844 C 0.980469 -24.089844 0.867188 -23.976562 0.867188 -23.628906 L 0.867188 -22.589844 C 0.867188 -22.300781 1.15625 -22.242188 2.136719 -22.183594 C 3.464844 -22.011719 4.273438 -21.605469 4.332031 -19.988281 L 4.332031 -13.289062 C 4.332031 -6.933594 4.21875 -5.027344 6.585938 -1.964844 C 8.492188 0.519531 10.398438 0.691406 12.015625 0.691406 C 14.90625 0.691406 18.257812 -1.097656 19.875 -3.351562 L 19.988281 -3.351562 L 20.453125 0 C 20.507812 0.578125 20.742188 0.691406 20.972656 0.691406 C 21.433594 0.691406 21.78125 0.578125 22.125 0.460938 L 28.191406 -1.558594 C 28.425781 -1.617188 28.539062 -1.734375 28.480469 -2.078125 L 28.308594 -2.832031 C 28.25 -3.0625 28.078125 -3.175781 27.617188 -3.0625 C 26.921875 -2.886719 26.054688 -2.886719 25.707031 -2.886719 C 25.015625 -2.886719 24.378906 -3.121094 24.207031 -4.910156 C 24.089844 -6.125 24.089844 -8.953125 24.089844 -11.726562 Z M 24.089844 -16.003906 "/></g></g></g><g fill="rgb(100%, 100%, 100%)" fill-opacity="1"><g transform="translate(272.545889, 253.223069)"><g><path d="M 5.605469 -9.9375 C 5.605469 -6.933594 5.605469 -4.910156 5.546875 -3.003906 C 5.546875 -2.253906 5.140625 -1.90625 4.273438 -1.90625 L 2.023438 -1.90625 C 1.503906 -1.90625 1.386719 -1.789062 1.386719 -1.386719 L 1.386719 -0.40625 C 1.386719 0.0585938 1.503906 0.171875 1.734375 0.171875 C 2.078125 0.171875 4.507812 0 8.089844 0 C 11.207031 0 13.867188 0.171875 14.210938 0.171875 C 14.441406 0.171875 14.5 0 14.5 -0.347656 L 14.5 -1.386719 C 14.5 -1.734375 14.441406 -1.90625 14.097656 -1.90625 L 11.382812 -1.90625 C 10.167969 -1.90625 9.761719 -2.484375 9.761719 -4.273438 L 9.761719 -16.40625 C 9.761719 -16.582031 9.996094 -17.621094 10.339844 -18.257812 C 11.324219 -20.105469 12.824219 -20.683594 13.75 -20.683594 C 14.5 -20.683594 15.195312 -20.507812 15.65625 -20.21875 C 16.117188 -19.988281 16.695312 -19.757812 17.332031 -19.757812 C 18.371094 -19.757812 19.757812 -20.914062 19.757812 -22.589844 C 19.757812 -23.917969 18.777344 -25.132812 16.8125 -25.132812 C 14.328125 -25.132812 11.613281 -22.761719 9.878906 -20.105469 L 9.648438 -20.105469 L 9.359375 -24.089844 C 9.359375 -24.4375 9.300781 -24.785156 8.953125 -24.785156 C 8.722656 -24.785156 8.492188 -24.726562 8.144531 -24.554688 L 2.425781 -21.605469 C 2.078125 -21.433594 1.964844 -21.316406 1.964844 -21.085938 L 1.964844 -20.742188 C 1.964844 -20.507812 2.078125 -20.453125 2.425781 -20.335938 L 3.523438 -19.757812 C 5.140625 -18.890625 5.605469 -18.3125 5.605469 -15.367188 Z M 5.605469 -9.9375 "/></g></g></g><g fill="rgb(100%, 100%, 100%)" fill-opacity="1"><g transform="translate(292.878171, 253.223069)"><g><path d="M 20.914062 -15.367188 C 21.839844 -15.367188 22.53125 -15.484375 22.53125 -16.292969 C 22.53125 -18.546875 20.683594 -24.785156 14.039062 -24.785156 C 11.148438 -24.785156 8.261719 -24.265625 5.777344 -21.722656 C 2.714844 -18.660156 2.136719 -14.789062 2.136719 -12.535156 C 2.136719 -8.492188 2.65625 -6.355469 4.679688 -3.410156 C 6.816406 -0.289062 10.457031 0.691406 13.75 0.691406 C 18.890625 0.691406 21.894531 -3.292969 22.9375 -5.605469 C 23.222656 -6.238281 23.109375 -6.414062 22.9375 -6.46875 L 22.183594 -6.875 C 22.011719 -6.933594 21.78125 -6.816406 21.664062 -6.585938 C 20.683594 -4.679688 18.199219 -2.65625 14.675781 -2.65625 C 10.050781 -2.65625 6.46875 -6.933594 6.46875 -12.59375 C 6.46875 -13.921875 6.527344 -14.847656 6.644531 -15.367188 Z M 6.875 -17.101562 C 7.972656 -21.375 10.398438 -23.050781 12.941406 -23.050781 C 16.695312 -23.050781 17.390625 -19.238281 17.390625 -17.910156 C 17.390625 -17.390625 16.925781 -17.101562 15.828125 -17.101562 Z M 6.875 -17.101562 "/></g></g></g><g fill="rgb(100%, 79.998779%, 0%)" fill-opacity="1"><g transform="translate(194.931802, 138.370654)"><g><path d="M 5.398438 0.21875 C 6.667969 0.21875 7.558594 -0.117188 8.144531 -0.65625 C 8.960938 -1.355469 9.28125 -2.277344 9.371094 -3.472656 C 9.414062 -4.042969 9.441406 -6.597656 9.441406 -6.800781 C 9.441406 -7.003906 9.441406 -9.078125 9.472656 -9.222656 C 9.515625 -9.398438 9.558594 -9.808594 10.101562 -9.808594 L 10.699219 -9.808594 C 10.769531 -9.808594 10.785156 -9.867188 10.785156 -9.953125 L 10.785156 -10.273438 C 10.785156 -10.320312 10.769531 -10.378906 10.640625 -10.378906 C 10.507812 -10.378906 10.042969 -10.332031 9.035156 -10.332031 C 8.054688 -10.332031 7.386719 -10.378906 7.238281 -10.378906 C 7.152344 -10.378906 7.136719 -10.347656 7.136719 -10.273438 L 7.136719 -9.925781 C 7.136719 -9.851562 7.152344 -9.808594 7.238281 -9.808594 L 7.882812 -9.808594 C 8.261719 -9.808594 8.496094 -9.546875 8.539062 -9.164062 C 8.582031 -8.800781 8.609375 -7.953125 8.609375 -6.84375 L 8.609375 -3.722656 C 8.609375 -2.640625 8.421875 -1.765625 7.851562 -1.152344 C 7.339844 -0.628906 6.496094 -0.351562 5.664062 -0.351562 C 4.816406 -0.351562 3.882812 -0.613281 3.34375 -1.402344 C 3.007812 -1.898438 2.890625 -2.582031 2.875 -3.253906 C 2.859375 -3.722656 2.800781 -5.574219 2.800781 -6.347656 L 2.800781 -7.3125 C 2.800781 -8.054688 2.816406 -9.078125 2.832031 -9.210938 C 2.859375 -9.53125 3.109375 -9.808594 3.53125 -9.808594 L 4.261719 -9.808594 C 4.363281 -9.808594 4.378906 -9.835938 4.378906 -9.910156 L 4.378906 -10.289062 C 4.378906 -10.347656 4.363281 -10.378906 4.246094 -10.378906 C 4.085938 -10.378906 3.386719 -10.332031 2.246094 -10.332031 C 1.109375 -10.332031 0.394531 -10.378906 0.25 -10.378906 C 0.132812 -10.378906 0.117188 -10.347656 0.117188 -10.261719 L 0.117188 -9.9375 C 0.117188 -9.835938 0.132812 -9.808594 0.21875 -9.808594 L 0.90625 -9.808594 C 1.355469 -9.808594 1.460938 -9.574219 1.460938 -9.0625 L 1.460938 -5.589844 C 1.460938 -3.679688 1.519531 -2.699219 1.691406 -2.042969 C 1.925781 -1.125 2.4375 -0.480469 3.429688 -0.0859375 C 3.910156 0.117188 4.640625 0.21875 5.398438 0.21875 Z M 5.398438 0.21875 "/></g></g></g><g fill="rgb(100%, 79.998779%, 0%)" fill-opacity="1"><g transform="translate(205.815785, 138.370654)"><g><path d="M 4.261719 0.21875 C 6.1875 0.21875 7.238281 -1.253906 7.238281 -2.976562 C 7.238281 -3.941406 6.976562 -4.511719 6.597656 -4.960938 C 6.070312 -5.605469 5.253906 -5.851562 4.246094 -6.171875 C 3.824219 -6.304688 3.007812 -6.625 2.582031 -7.050781 C 2.21875 -7.429688 2.132812 -7.910156 2.132812 -8.320312 C 2.132812 -9.0625 2.597656 -10.027344 3.898438 -10.027344 C 4.582031 -10.027344 5.09375 -9.824219 5.488281 -9.398438 C 6.085938 -8.773438 6.277344 -8.203125 6.394531 -7.777344 C 6.40625 -7.734375 6.4375 -7.722656 6.480469 -7.734375 L 6.65625 -7.777344 C 6.714844 -7.792969 6.726562 -7.824219 6.726562 -7.894531 C 6.714844 -8.21875 6.523438 -9.707031 6.523438 -10.214844 C 6.523438 -10.347656 6.480469 -10.464844 6.40625 -10.464844 C 6.335938 -10.464844 6.289062 -10.433594 6.21875 -10.378906 L 6.027344 -10.203125 C 5.953125 -10.128906 5.882812 -10.113281 5.75 -10.1875 C 5.503906 -10.304688 4.859375 -10.550781 4.027344 -10.550781 C 3.238281 -10.550781 2.511719 -10.347656 1.984375 -9.851562 C 1.53125 -9.429688 1.078125 -8.714844 1.078125 -7.984375 C 1.078125 -7.019531 1.328125 -6.335938 1.808594 -5.851562 C 2.4375 -5.195312 3.488281 -4.832031 3.941406 -4.671875 C 5.109375 -4.261719 6.1875 -3.707031 6.1875 -2.203125 C 6.1875 -0.890625 5.078125 -0.351562 4.203125 -0.351562 C 3.402344 -0.351562 2.597656 -0.746094 2.160156 -1.429688 C 1.679688 -2.175781 1.648438 -2.65625 1.632812 -3.125 C 1.632812 -3.210938 1.605469 -3.238281 1.546875 -3.238281 L 1.328125 -3.253906 C 1.269531 -3.253906 1.242188 -3.253906 1.226562 -3.167969 C 1.183594 -2.742188 1.035156 -0.890625 0.976562 -0.527344 C 0.949219 -0.363281 1.023438 -0.292969 1.109375 -0.292969 C 1.210938 -0.292969 1.285156 -0.304688 1.371094 -0.46875 C 1.460938 -0.613281 1.519531 -0.714844 1.605469 -0.714844 C 1.679688 -0.714844 1.765625 -0.671875 1.941406 -0.539062 C 2.523438 -0.0859375 3.238281 0.21875 4.261719 0.21875 Z M 4.261719 0.21875 "/></g></g></g><g fill="rgb(100%, 79.998779%, 0%)" fill-opacity="1"><g transform="translate(213.810993, 138.370654)"><g><path d="M 5.953125 0.21875 C 8.011719 0.21875 9.429688 -0.964844 10.304688 -2.234375 C 10.347656 -2.304688 10.320312 -2.335938 10.273438 -2.363281 L 10.085938 -2.511719 C 10.042969 -2.554688 10.011719 -2.539062 9.96875 -2.464844 C 9.296875 -1.519531 8.011719 -0.613281 6.363281 -0.613281 C 5.386719 -0.613281 4.554688 -0.730469 3.5625 -1.839844 C 2.421875 -3.09375 2.160156 -4.742188 2.160156 -5.589844 C 2.144531 -7.722656 3.195312 -10.042969 5.808594 -10.042969 C 6.960938 -10.042969 7.734375 -9.546875 8.347656 -8.917969 C 8.960938 -8.289062 9.28125 -7.589844 9.488281 -7.109375 C 9.53125 -6.992188 9.558594 -6.976562 9.632812 -6.992188 L 9.851562 -7.050781 C 9.910156 -7.0625 9.925781 -7.121094 9.910156 -7.195312 C 9.835938 -7.605469 9.546875 -9.75 9.546875 -10.027344 C 9.546875 -10.230469 9.515625 -10.261719 9.382812 -10.261719 C 9.253906 -10.261719 9.222656 -10.261719 9.195312 -10.171875 L 9.078125 -9.75 C 9.050781 -9.648438 8.976562 -9.632812 8.785156 -9.75 C 8.261719 -10.054688 7.167969 -10.550781 5.839844 -10.550781 C 4.246094 -10.550781 2.933594 -9.867188 2.1875 -9.078125 C 1.136719 -7.96875 0.699219 -6.566406 0.699219 -5.210938 C 0.699219 -3.808594 1.210938 -2.117188 2.261719 -1.125 C 3.136719 -0.320312 4.234375 0.21875 5.953125 0.21875 Z M 5.953125 0.21875 "/></g></g></g><g fill="rgb(100%, 100%, 100%)" fill-opacity="1"><g transform="translate(224.685707, 138.370654)"><g><path d="M 0.410156 -9.910156 C 0.410156 -9.851562 0.421875 -9.808594 0.480469 -9.808594 L 0.859375 -9.808594 C 1.167969 -9.808594 1.3125 -9.660156 1.460938 -9.328125 C 1.648438 -8.886719 2.335938 -6.773438 2.683594 -5.734375 L 2.832031 -5.238281 C 3.019531 -4.714844 4.203125 -1.386719 4.671875 -0.0429688 C 4.742188 0.144531 4.800781 0.292969 4.917969 0.292969 C 4.992188 0.292969 5.066406 0.21875 5.121094 0.101562 C 5.195312 -0.0429688 7.078125 -4.683594 7.253906 -5.167969 C 7.5 -5.78125 8.667969 -8.773438 9.050781 -9.238281 C 9.328125 -9.574219 9.601562 -9.808594 10.085938 -9.808594 L 10.480469 -9.808594 C 10.566406 -9.808594 10.582031 -9.851562 10.582031 -9.910156 L 10.582031 -10.273438 C 10.582031 -10.347656 10.566406 -10.378906 10.480469 -10.378906 C 10.347656 -10.378906 9.984375 -10.332031 8.917969 -10.332031 C 8 -10.332031 7.328125 -10.378906 7.195312 -10.378906 C 7.121094 -10.378906 7.109375 -10.347656 7.109375 -10.273438 L 7.109375 -9.9375 C 7.109375 -9.851562 7.121094 -9.808594 7.179688 -9.808594 L 7.558594 -9.808594 C 7.925781 -9.808594 8.027344 -9.648438 8.027344 -9.472656 C 8.027344 -9.269531 7.941406 -9.003906 7.824219 -8.640625 C 7.605469 -8 7.050781 -6.320312 6.902344 -5.925781 C 6.785156 -5.589844 5.648438 -2.582031 5.339844 -1.898438 L 5.3125 -1.898438 C 4.976562 -2.789062 4.128906 -5.296875 3.957031 -5.851562 C 3.691406 -6.667969 3.152344 -8.40625 3.066406 -8.933594 C 3.019531 -9.136719 3.007812 -9.3125 3.007812 -9.429688 C 3.007812 -9.675781 3.210938 -9.808594 3.621094 -9.808594 L 4.320312 -9.808594 C 4.421875 -9.808594 4.4375 -9.867188 4.4375 -9.9375 L 4.4375 -10.273438 C 4.4375 -10.332031 4.421875 -10.378906 4.289062 -10.378906 C 4.160156 -10.378906 3.503906 -10.332031 2.277344 -10.332031 C 1.136719 -10.332031 0.65625 -10.378906 0.511719 -10.378906 C 0.421875 -10.378906 0.410156 -10.347656 0.410156 -10.273438 Z M 0.410156 -9.910156 "/></g></g></g><g fill="rgb(100%, 100%, 100%)" fill-opacity="1"><g transform="translate(234.986098, 138.370654)"><g><path d="M 1.488281 -2.101562 C 1.488281 -1.664062 1.488281 -1.210938 1.472656 -0.773438 C 1.460938 -0.539062 1.402344 -0.480469 1.242188 -0.480469 L 0.527344 -0.480469 C 0.421875 -0.480469 0.378906 -0.453125 0.378906 -0.363281 L 0.378906 -0.0742188 C 0.378906 0.015625 0.421875 0.0429688 0.496094 0.0429688 C 0.65625 0.0429688 1.226562 0 2.074219 0 C 2.683594 0 3.355469 0.0429688 3.472656 0.0429688 C 3.574219 0.0429688 3.605469 0 3.605469 -0.101562 L 3.605469 -0.351562 C 3.605469 -0.4375 3.574219 -0.480469 3.460938 -0.480469 L 2.789062 -0.480469 C 2.628906 -0.480469 2.582031 -0.582031 2.554688 -0.859375 C 2.539062 -1.023438 2.539062 -1.546875 2.539062 -2.117188 L 2.539062 -3.707031 C 2.539062 -4.917969 2.539062 -5.839844 2.570312 -6.085938 C 2.582031 -6.1875 2.570312 -6.261719 2.496094 -6.261719 C 2.40625 -6.261719 2.335938 -6.230469 2.21875 -6.171875 C 1.664062 -5.867188 1.109375 -5.632812 0.640625 -5.457031 C 0.570312 -5.429688 0.539062 -5.398438 0.539062 -5.355469 L 0.539062 -5.226562 C 0.539062 -5.167969 0.570312 -5.136719 0.671875 -5.121094 C 1.402344 -5.007812 1.488281 -4.742188 1.488281 -4.246094 Z M 1.632812 -7.941406 C 2.21875 -7.941406 2.480469 -8.363281 2.480469 -8.742188 C 2.480469 -9.0625 2.234375 -9.457031 1.722656 -9.457031 C 1.136719 -9.457031 0.832031 -9.0625 0.832031 -8.699219 C 0.832031 -8.230469 1.3125 -7.941406 1.632812 -7.941406 Z M 1.632812 -7.941406 "/></g></g></g><g fill="rgb(100%, 100%, 100%)" fill-opacity="1"><g transform="translate(238.881575, 138.370654)"><g><path d="M 2.464844 -3.285156 C 2.464844 -3.957031 2.480469 -4.65625 2.511719 -5.328125 L 4.394531 -5.328125 C 4.480469 -5.328125 4.511719 -5.371094 4.523438 -5.445312 L 4.671875 -5.953125 C 4.699219 -6.011719 4.65625 -6.085938 4.566406 -6.085938 L 2.539062 -6.085938 L 2.613281 -7.53125 C 2.613281 -7.648438 2.582031 -7.75 2.464844 -7.75 C 2.378906 -7.75 2.304688 -7.722656 2.261719 -7.605469 C 2.074219 -7.109375 0.949219 -5.96875 0.597656 -5.765625 C 0.421875 -5.664062 0.335938 -5.617188 0.335938 -5.503906 C 0.335938 -5.386719 0.421875 -5.328125 0.554688 -5.328125 L 1.445312 -5.328125 C 1.429688 -4.714844 1.414062 -3.734375 1.414062 -3.472656 L 1.414062 -3.152344 C 1.414062 -2.949219 1.371094 -1.664062 1.371094 -1.066406 C 1.371094 -0.511719 2.074219 0.175781 2.789062 0.175781 C 3.664062 0.175781 4.261719 -0.261719 4.40625 -0.410156 C 4.453125 -0.453125 4.480469 -0.511719 4.4375 -0.570312 L 4.363281 -0.699219 C 4.320312 -0.757812 4.261719 -0.773438 4.1875 -0.730469 C 3.984375 -0.597656 3.5625 -0.539062 3.226562 -0.539062 C 2.960938 -0.539062 2.464844 -0.730469 2.464844 -1.824219 Z M 2.464844 -3.285156 "/></g></g></g><g fill="rgb(100%, 100%, 100%)" fill-opacity="1"><g transform="translate(243.535715, 138.370654)"><g><path d="M 5.285156 -3.882812 C 5.515625 -3.882812 5.691406 -3.910156 5.691406 -4.117188 C 5.691406 -4.683594 5.226562 -6.261719 3.546875 -6.261719 C 2.816406 -6.261719 2.085938 -6.128906 1.460938 -5.488281 C 0.6875 -4.714844 0.539062 -3.734375 0.539062 -3.167969 C 0.539062 -2.144531 0.671875 -1.605469 1.183594 -0.859375 C 1.722656 -0.0742188 2.640625 0.175781 3.472656 0.175781 C 4.773438 0.175781 5.53125 -0.832031 5.792969 -1.414062 C 5.867188 -1.578125 5.839844 -1.621094 5.792969 -1.632812 L 5.605469 -1.738281 C 5.5625 -1.75 5.503906 -1.722656 5.472656 -1.664062 C 5.226562 -1.183594 4.597656 -0.671875 3.707031 -0.671875 C 2.539062 -0.671875 1.632812 -1.75 1.632812 -3.183594 C 1.632812 -3.515625 1.648438 -3.75 1.679688 -3.882812 Z M 1.738281 -4.320312 C 2.015625 -5.398438 2.628906 -5.824219 3.269531 -5.824219 C 4.21875 -5.824219 4.394531 -4.859375 4.394531 -4.523438 C 4.394531 -4.394531 4.277344 -4.320312 4 -4.320312 Z M 1.738281 -4.320312 "/></g></g></g><g fill="rgb(100%, 100%, 100%)" fill-opacity="1"><g transform="translate(249.750967, 138.370654)"><g><path d="M 1.414062 -2.511719 C 1.414062 -1.75 1.414062 -1.242188 1.402344 -0.757812 C 1.402344 -0.570312 1.300781 -0.480469 1.078125 -0.480469 L 0.511719 -0.480469 C 0.378906 -0.480469 0.351562 -0.453125 0.351562 -0.351562 L 0.351562 -0.101562 C 0.351562 0.015625 0.378906 0.0429688 0.4375 0.0429688 C 0.527344 0.0429688 1.136719 0 2.042969 0 C 2.832031 0 3.503906 0.0429688 3.589844 0.0429688 C 3.648438 0.0429688 3.664062 0 3.664062 -0.0859375 L 3.664062 -0.351562 C 3.664062 -0.4375 3.648438 -0.480469 3.5625 -0.480469 L 2.875 -0.480469 C 2.570312 -0.480469 2.464844 -0.628906 2.464844 -1.078125 L 2.464844 -4.144531 C 2.464844 -4.1875 2.523438 -4.453125 2.613281 -4.613281 C 2.859375 -5.078125 3.238281 -5.226562 3.472656 -5.226562 C 3.664062 -5.226562 3.839844 -5.179688 3.957031 -5.109375 C 4.070312 -5.050781 4.21875 -4.992188 4.378906 -4.992188 C 4.640625 -4.992188 4.992188 -5.285156 4.992188 -5.707031 C 4.992188 -6.042969 4.742188 -6.347656 4.246094 -6.347656 C 3.621094 -6.347656 2.933594 -5.75 2.496094 -5.078125 L 2.4375 -5.078125 L 2.363281 -6.085938 C 2.363281 -6.171875 2.351562 -6.261719 2.261719 -6.261719 C 2.203125 -6.261719 2.144531 -6.246094 2.058594 -6.203125 L 0.613281 -5.457031 C 0.527344 -5.414062 0.496094 -5.386719 0.496094 -5.328125 L 0.496094 -5.238281 C 0.496094 -5.179688 0.527344 -5.167969 0.613281 -5.136719 L 0.890625 -4.992188 C 1.300781 -4.773438 1.414062 -4.625 1.414062 -3.882812 Z M 1.414062 -2.511719 "/></g></g></g><g fill="rgb(100%, 100%, 100%)" fill-opacity="1"><g transform="translate(254.726079, 138.370654)"><g><path d="M 1.050781 -2.480469 C 1.050781 -1.414062 1.050781 -0.203125 1.023438 0 C 1.007812 0.0742188 1.023438 0.101562 1.078125 0.117188 L 1.253906 0.160156 C 1.34375 0.175781 1.386719 0.160156 1.445312 0.117188 L 2.027344 -0.203125 C 2.363281 0 2.933594 0.175781 3.75 0.175781 C 5.414062 0.175781 6.785156 -1.429688 6.785156 -3.136719 C 6.785156 -5.226562 5.398438 -6.261719 4.117188 -6.261719 C 3.402344 -6.261719 2.570312 -5.984375 2.101562 -5.53125 L 2.101562 -7.222656 C 2.101562 -8.523438 2.101562 -10.1875 2.117188 -10.304688 C 2.132812 -10.480469 2.101562 -10.550781 2 -10.550781 C 1.910156 -10.550781 1.796875 -10.492188 1.691406 -10.421875 C 1.328125 -10.1875 0.570312 -9.808594 0.144531 -9.617188 C 0.0585938 -9.574219 0.0273438 -9.546875 0.0273438 -9.5 L 0.0273438 -9.382812 C 0.0273438 -9.339844 0.0585938 -9.3125 0.21875 -9.269531 L 0.363281 -9.222656 C 0.890625 -9.050781 1.050781 -8.84375 1.050781 -7.867188 Z M 2.101562 -5.035156 C 2.421875 -5.371094 2.949219 -5.5625 3.488281 -5.5625 C 4.917969 -5.5625 5.664062 -4.21875 5.664062 -2.800781 C 5.664062 -0.890625 4.582031 -0.292969 3.707031 -0.292969 C 3.078125 -0.292969 2.464844 -0.671875 2.320312 -1.023438 C 2.144531 -1.488281 2.101562 -1.925781 2.101562 -3.136719 Z M 2.101562 -5.035156 "/></g></g></g><g fill="rgb(100%, 100%, 100%)" fill-opacity="1"><g transform="translate(262.079331, 138.370654)"><g><path d="M 1.488281 -2.101562 C 1.488281 -1.664062 1.488281 -1.210938 1.472656 -0.773438 C 1.460938 -0.539062 1.402344 -0.480469 1.242188 -0.480469 L 0.527344 -0.480469 C 0.421875 -0.480469 0.378906 -0.453125 0.378906 -0.363281 L 0.378906 -0.0742188 C 0.378906 0.015625 0.421875 0.0429688 0.496094 0.0429688 C 0.65625 0.0429688 1.226562 0 2.074219 0 C 2.683594 0 3.355469 0.0429688 3.472656 0.0429688 C 3.574219 0.0429688 3.605469 0 3.605469 -0.101562 L 3.605469 -0.351562 C 3.605469 -0.4375 3.574219 -0.480469 3.460938 -0.480469 L 2.789062 -0.480469 C 2.628906 -0.480469 2.582031 -0.582031 2.554688 -0.859375 C 2.539062 -1.023438 2.539062 -1.546875 2.539062 -2.117188 L 2.539062 -3.707031 C 2.539062 -4.917969 2.539062 -5.839844 2.570312 -6.085938 C 2.582031 -6.1875 2.570312 -6.261719 2.496094 -6.261719 C 2.40625 -6.261719 2.335938 -6.230469 2.21875 -6.171875 C 1.664062 -5.867188 1.109375 -5.632812 0.640625 -5.457031 C 0.570312 -5.429688 0.539062 -5.398438 0.539062 -5.355469 L 0.539062 -5.226562 C 0.539062 -5.167969 0.570312 -5.136719 0.671875 -5.121094 C 1.402344 -5.007812 1.488281 -4.742188 1.488281 -4.246094 Z M 1.632812 -7.941406 C 2.21875 -7.941406 2.480469 -8.363281 2.480469 -8.742188 C 2.480469 -9.0625 2.234375 -9.457031 1.722656 -9.457031 C 1.136719 -9.457031 0.832031 -9.0625 0.832031 -8.699219 C 0.832031 -8.230469 1.3125 -7.941406 1.632812 -7.941406 Z M 1.632812 -7.941406 "/></g></g></g><g fill="rgb(100%, 100%, 100%)" fill-opacity="1"><g transform="translate(225.404472, 145.984337)"><g><path d="M 1.636719 0.0859375 C 2.375 0.0859375 2.777344 -0.480469 2.777344 -1.140625 C 2.777344 -1.511719 2.675781 -1.730469 2.53125 -1.902344 C 2.328125 -2.152344 2.015625 -2.246094 1.628906 -2.367188 C 1.46875 -2.417969 1.152344 -2.542969 0.992188 -2.703125 C 0.851562 -2.851562 0.816406 -3.035156 0.816406 -3.191406 C 0.816406 -3.476562 0.996094 -3.847656 1.496094 -3.847656 C 1.757812 -3.847656 1.953125 -3.769531 2.105469 -3.605469 C 2.335938 -3.367188 2.40625 -3.148438 2.453125 -2.984375 C 2.457031 -2.96875 2.46875 -2.960938 2.488281 -2.96875 L 2.554688 -2.984375 C 2.574219 -2.992188 2.582031 -3 2.582031 -3.03125 C 2.574219 -3.152344 2.503906 -3.722656 2.503906 -3.921875 C 2.503906 -3.96875 2.488281 -4.015625 2.457031 -4.015625 C 2.429688 -4.015625 2.414062 -4.003906 2.386719 -3.980469 L 2.3125 -3.914062 C 2.285156 -3.886719 2.257812 -3.882812 2.207031 -3.910156 C 2.109375 -3.953125 1.863281 -4.050781 1.546875 -4.050781 C 1.242188 -4.050781 0.964844 -3.96875 0.761719 -3.78125 C 0.589844 -3.617188 0.414062 -3.34375 0.414062 -3.0625 C 0.414062 -2.695312 0.507812 -2.429688 0.695312 -2.246094 C 0.933594 -1.992188 1.339844 -1.855469 1.511719 -1.792969 C 1.960938 -1.636719 2.375 -1.421875 2.375 -0.84375 C 2.375 -0.339844 1.949219 -0.132812 1.613281 -0.132812 C 1.304688 -0.132812 0.996094 -0.285156 0.828125 -0.546875 C 0.644531 -0.835938 0.632812 -1.019531 0.628906 -1.199219 C 0.628906 -1.230469 0.617188 -1.242188 0.59375 -1.242188 L 0.507812 -1.25 C 0.488281 -1.25 0.476562 -1.25 0.46875 -1.214844 C 0.453125 -1.054688 0.398438 -0.339844 0.375 -0.203125 C 0.363281 -0.140625 0.390625 -0.113281 0.425781 -0.113281 C 0.464844 -0.113281 0.492188 -0.117188 0.527344 -0.179688 C 0.558594 -0.234375 0.582031 -0.273438 0.617188 -0.273438 C 0.644531 -0.273438 0.675781 -0.257812 0.746094 -0.207031 C 0.96875 -0.0351562 1.242188 0.0859375 1.636719 0.0859375 Z M 1.636719 0.0859375 "/></g></g></g><g fill="rgb(100%, 100%, 100%)" fill-opacity="1"><g transform="translate(228.47341, 145.984337)"><g><path d="M 1.277344 -2.222656 C 1.410156 -2.222656 1.527344 -2.207031 1.652344 -1.976562 C 1.734375 -1.824219 1.832031 -1.753906 1.960938 -1.753906 C 2.078125 -1.753906 2.160156 -1.820312 2.167969 -1.949219 C 2.167969 -2.066406 1.988281 -2.402344 1.40625 -2.402344 C 0.667969 -2.402344 0.207031 -1.742188 0.207031 -1.085938 C 0.207031 -0.835938 0.253906 -0.597656 0.460938 -0.324219 C 0.71875 0 1.03125 0.0664062 1.328125 0.0664062 C 1.707031 0.0664062 2.066406 -0.144531 2.230469 -0.332031 C 2.257812 -0.363281 2.25 -0.378906 2.230469 -0.402344 L 2.171875 -0.460938 C 2.15625 -0.476562 2.140625 -0.46875 2.128906 -0.460938 C 1.9375 -0.28125 1.792969 -0.21875 1.511719 -0.21875 C 1.320312 -0.21875 1.085938 -0.261719 0.902344 -0.503906 C 0.75 -0.710938 0.617188 -1.054688 0.617188 -1.355469 C 0.617188 -1.933594 0.957031 -2.222656 1.277344 -2.222656 Z M 1.277344 -2.222656 "/></g></g></g><g fill="rgb(100%, 100%, 100%)" fill-opacity="1"><g transform="translate(230.775114, 145.984337)"><g><path d="M 0.546875 -1.359375 C 0.546875 -0.996094 0.546875 -0.378906 0.53125 -0.273438 C 0.519531 -0.207031 0.4375 -0.183594 0.347656 -0.183594 L 0.230469 -0.183594 C 0.167969 -0.183594 0.144531 -0.179688 0.144531 -0.140625 L 0.144531 -0.0390625 C 0.144531 0 0.164062 0.015625 0.183594 0.015625 C 0.234375 0.015625 0.449219 0 0.726562 0 C 0.984375 0 1.214844 0.015625 1.261719 0.015625 C 1.292969 0.015625 1.304688 -0.00390625 1.304688 -0.0429688 L 1.304688 -0.140625 C 1.304688 -0.171875 1.28125 -0.183594 1.242188 -0.183594 L 1.074219 -0.183594 C 0.96875 -0.183594 0.953125 -0.234375 0.953125 -0.414062 L 0.953125 -1.636719 C 0.953125 -1.734375 1.011719 -1.847656 1.0625 -1.910156 C 1.222656 -2.089844 1.421875 -2.144531 1.585938 -2.144531 C 1.726562 -2.144531 1.84375 -2.09375 1.953125 -1.988281 C 2.117188 -1.835938 2.140625 -1.613281 2.140625 -1.300781 L 2.140625 -0.84375 C 2.140625 -0.667969 2.144531 -0.371094 2.140625 -0.292969 C 2.132812 -0.195312 2.023438 -0.183594 1.925781 -0.183594 L 1.796875 -0.183594 C 1.765625 -0.183594 1.757812 -0.167969 1.757812 -0.140625 L 1.757812 -0.0429688 C 1.757812 0 1.769531 0.015625 1.808594 0.015625 C 1.859375 0.015625 2.0625 0 2.335938 0 C 2.65625 0 2.832031 0.015625 2.871094 0.015625 C 2.90625 0.015625 2.917969 -0.00390625 2.917969 -0.0507812 L 2.917969 -0.132812 C 2.917969 -0.171875 2.902344 -0.183594 2.855469 -0.183594 L 2.761719 -0.183594 C 2.644531 -0.183594 2.554688 -0.203125 2.554688 -0.269531 C 2.554688 -0.375 2.542969 -0.722656 2.542969 -1.035156 L 2.542969 -1.355469 C 2.542969 -1.65625 2.554688 -1.941406 2.300781 -2.179688 C 2.144531 -2.328125 1.984375 -2.402344 1.746094 -2.402344 C 1.5 -2.402344 1.175781 -2.273438 0.980469 -2.039062 L 0.953125 -2.039062 L 0.953125 -2.398438 C 0.953125 -2.675781 0.957031 -3.8125 0.96875 -3.910156 C 0.980469 -4.003906 0.957031 -4.050781 0.925781 -4.050781 C 0.878906 -4.050781 0.839844 -4.027344 0.796875 -4.003906 L 0.210938 -3.695312 C 0.164062 -3.667969 0.144531 -3.664062 0.144531 -3.640625 L 0.144531 -3.589844 C 0.144531 -3.574219 0.152344 -3.566406 0.183594 -3.554688 L 0.28125 -3.523438 C 0.480469 -3.457031 0.546875 -3.394531 0.546875 -3.050781 Z M 0.546875 -1.359375 "/></g></g></g><g fill="rgb(100%, 100%, 100%)" fill-opacity="1"><g transform="translate(233.793649, 145.984337)"><g><path d="M 1.355469 0.0664062 C 2.042969 0.0664062 2.59375 -0.554688 2.59375 -1.164062 C 2.59375 -1.527344 2.464844 -1.820312 2.210938 -2.078125 C 2.042969 -2.246094 1.734375 -2.402344 1.429688 -2.402344 C 1.242188 -2.402344 0.96875 -2.359375 0.675781 -2.132812 C 0.347656 -1.875 0.195312 -1.519531 0.195312 -1.230469 C 0.195312 -0.835938 0.246094 -0.628906 0.503906 -0.320312 C 0.738281 -0.0390625 1.085938 0.0664062 1.355469 0.0664062 Z M 1.421875 -0.101562 C 1.160156 -0.101562 0.996094 -0.207031 0.867188 -0.390625 C 0.6875 -0.648438 0.65625 -0.863281 0.65625 -1.175781 C 0.65625 -1.601562 0.734375 -1.832031 0.953125 -2.054688 C 1.085938 -2.199219 1.230469 -2.234375 1.382812 -2.234375 C 1.667969 -2.234375 2.121094 -1.84375 2.121094 -1.222656 C 2.121094 -0.621094 1.847656 -0.101562 1.421875 -0.101562 Z M 1.421875 -0.101562 "/></g></g></g><g fill="rgb(100%, 100%, 100%)" fill-opacity="1"><g transform="translate(236.582574, 145.984337)"><g><path d="M 1.355469 0.0664062 C 2.042969 0.0664062 2.59375 -0.554688 2.59375 -1.164062 C 2.59375 -1.527344 2.464844 -1.820312 2.210938 -2.078125 C 2.042969 -2.246094 1.734375 -2.402344 1.429688 -2.402344 C 1.242188 -2.402344 0.96875 -2.359375 0.675781 -2.132812 C 0.347656 -1.875 0.195312 -1.519531 0.195312 -1.230469 C 0.195312 -0.835938 0.246094 -0.628906 0.503906 -0.320312 C 0.738281 -0.0390625 1.085938 0.0664062 1.355469 0.0664062 Z M 1.421875 -0.101562 C 1.160156 -0.101562 0.996094 -0.207031 0.867188 -0.390625 C 0.6875 -0.648438 0.65625 -0.863281 0.65625 -1.175781 C 0.65625 -1.601562 0.734375 -1.832031 0.953125 -2.054688 C 1.085938 -2.199219 1.230469 -2.234375 1.382812 -2.234375 C 1.667969 -2.234375 2.121094 -1.84375 2.121094 -1.222656 C 2.121094 -0.621094 1.847656 -0.101562 1.421875 -0.101562 Z M 1.421875 -0.101562 "/></g></g></g><g fill="rgb(100%, 100%, 100%)" fill-opacity="1"><g transform="translate(239.371499, 145.984337)"><g><path d="M 0.941406 -2.167969 C 0.941406 -2.476562 0.957031 -3.640625 0.964844 -3.949219 C 0.96875 -4.019531 0.957031 -4.050781 0.917969 -4.050781 C 0.886719 -4.050781 0.851562 -4.039062 0.800781 -4.003906 C 0.59375 -3.871094 0.339844 -3.769531 0.144531 -3.679688 C 0.113281 -3.667969 0.09375 -3.65625 0.09375 -3.640625 L 0.09375 -3.59375 C 0.09375 -3.585938 0.101562 -3.578125 0.128906 -3.566406 L 0.242188 -3.527344 C 0.421875 -3.472656 0.507812 -3.382812 0.519531 -3.191406 C 0.53125 -3.046875 0.539062 -2.535156 0.539062 -2.140625 L 0.539062 -1.785156 C 0.539062 -1.460938 0.539062 -0.5 0.53125 -0.324219 C 0.527344 -0.222656 0.46875 -0.183594 0.410156 -0.183594 L 0.140625 -0.183594 C 0.078125 -0.183594 0.0664062 -0.171875 0.0664062 -0.132812 L 0.0664062 -0.0390625 C 0.0664062 -0.00390625 0.078125 0.015625 0.105469 0.015625 C 0.15625 0.015625 0.378906 0 0.738281 0 C 1.085938 0 1.332031 0.015625 1.371094 0.015625 C 1.394531 0.015625 1.40625 -0.00390625 1.40625 -0.0390625 L 1.40625 -0.132812 C 1.40625 -0.167969 1.394531 -0.183594 1.34375 -0.183594 L 1.09375 -0.183594 C 0.972656 -0.183594 0.953125 -0.261719 0.945312 -0.359375 C 0.941406 -0.53125 0.941406 -1.378906 0.941406 -1.667969 Z M 0.941406 -2.167969 "/></g></g></g><g fill="rgb(100%, 100%, 100%)" fill-opacity="1"><g transform="translate(240.805163, 145.984337)"><g/></g></g><g fill="rgb(100%, 100%, 100%)" fill-opacity="1"><g transform="translate(242.227625, 145.984337)"><g><path d="M 1.355469 0.0664062 C 2.042969 0.0664062 2.59375 -0.554688 2.59375 -1.164062 C 2.59375 -1.527344 2.464844 -1.820312 2.210938 -2.078125 C 2.042969 -2.246094 1.734375 -2.402344 1.429688 -2.402344 C 1.242188 -2.402344 0.96875 -2.359375 0.675781 -2.132812 C 0.347656 -1.875 0.195312 -1.519531 0.195312 -1.230469 C 0.195312 -0.835938 0.246094 -0.628906 0.503906 -0.320312 C 0.738281 -0.0390625 1.085938 0.0664062 1.355469 0.0664062 Z M 1.421875 -0.101562 C 1.160156 -0.101562 0.996094 -0.207031 0.867188 -0.390625 C 0.6875 -0.648438 0.65625 -0.863281 0.65625 -1.175781 C 0.65625 -1.601562 0.734375 -1.832031 0.953125 -2.054688 C 1.085938 -2.199219 1.230469 -2.234375 1.382812 -2.234375 C 1.667969 -2.234375 2.121094 -1.84375 2.121094 -1.222656 C 2.121094 -0.621094 1.847656 -0.101562 1.421875 -0.101562 Z M 1.421875 -0.101562 "/></g></g></g><g fill="rgb(100%, 100%, 100%)" fill-opacity="1"><g transform="translate(245.01655, 145.984337)"><g><path d="M 0.597656 -1.433594 L 0.597656 -0.378906 C 0.59375 -0.253906 0.570312 -0.183594 0.464844 -0.183594 L 0.195312 -0.183594 C 0.152344 -0.183594 0.140625 -0.171875 0.140625 -0.144531 L 0.140625 -0.0234375 C 0.140625 0.00390625 0.152344 0.015625 0.183594 0.015625 C 0.230469 0.015625 0.515625 0 0.824219 0 C 1.253906 0 1.460938 0.015625 1.496094 0.015625 C 1.523438 0.015625 1.535156 -0.00390625 1.535156 -0.0507812 L 1.535156 -0.140625 C 1.535156 -0.171875 1.523438 -0.183594 1.472656 -0.183594 L 1.152344 -0.183594 C 1.035156 -0.183594 1.019531 -0.234375 1.007812 -0.332031 C 1.003906 -0.390625 1.003906 -0.90625 1.003906 -1.566406 L 1.003906 -2.066406 L 1.617188 -2.066406 C 1.664062 -2.066406 1.6875 -2.070312 1.691406 -2.09375 L 1.71875 -2.277344 C 1.726562 -2.300781 1.71875 -2.335938 1.679688 -2.335938 L 1.003906 -2.335938 L 1.003906 -2.449219 C 1.003906 -2.839844 0.992188 -3.328125 1.199219 -3.589844 C 1.320312 -3.746094 1.472656 -3.785156 1.617188 -3.785156 C 1.726562 -3.785156 1.804688 -3.746094 1.875 -3.65625 C 1.898438 -3.628906 1.960938 -3.554688 2.011719 -3.527344 C 2.054688 -3.503906 2.109375 -3.496094 2.167969 -3.496094 C 2.257812 -3.496094 2.402344 -3.601562 2.402344 -3.734375 C 2.402344 -3.949219 2.15625 -4.050781 1.894531 -4.050781 C 1.578125 -4.050781 1.269531 -3.929688 0.972656 -3.605469 C 0.757812 -3.359375 0.597656 -2.996094 0.597656 -2.441406 L 0.597656 -2.335938 L 0.273438 -2.335938 C 0.230469 -2.335938 0.210938 -2.328125 0.207031 -2.296875 L 0.183594 -2.128906 C 0.171875 -2.078125 0.183594 -2.066406 0.210938 -2.066406 L 0.597656 -2.066406 Z M 0.597656 -1.433594 "/></g></g></g><g fill="rgb(100%, 100%, 100%)" fill-opacity="1"><g transform="translate(246.75263, 145.984337)"><g/></g></g><g fill="rgb(100%, 100%, 100%)" fill-opacity="1"><g transform="translate(248.175092, 145.984337)"><g><path d="M 1.332031 -3.785156 L 2.328125 -3.761719 C 2.480469 -3.757812 2.636719 -3.691406 2.753906 -3.613281 C 2.890625 -3.527344 3.304688 -2.996094 3.316406 -2.972656 C 3.320312 -2.960938 3.34375 -2.945312 3.359375 -2.957031 L 3.445312 -3 C 3.464844 -3.011719 3.464844 -3.03125 3.460938 -3.050781 C 3.445312 -3.109375 3.199219 -3.875 3.175781 -3.953125 C 3.167969 -3.96875 3.160156 -3.980469 3.128906 -3.980469 C 3.101562 -3.980469 2.996094 -3.96875 2.90625 -3.96875 C 2.351562 -3.96875 1.796875 -3.964844 1.242188 -3.964844 L 0.996094 -3.964844 C 0.628906 -3.964844 0.429688 -3.980469 0.308594 -3.980469 C 0.28125 -3.980469 0.269531 -3.96875 0.269531 -3.953125 L 0.269531 -3.800781 C 0.269531 -3.769531 0.285156 -3.761719 0.3125 -3.761719 L 0.515625 -3.761719 C 0.722656 -3.761719 0.777344 -3.722656 0.800781 -3.546875 C 0.804688 -3.488281 0.816406 -2.789062 0.816406 -2.324219 L 0.816406 -0.449219 C 0.816406 -0.242188 0.796875 -0.203125 0.539062 -0.203125 L 0.3125 -0.203125 C 0.273438 -0.203125 0.257812 -0.195312 0.257812 -0.171875 L 0.257812 -0.0234375 C 0.257812 0.00390625 0.273438 0.015625 0.308594 0.015625 C 0.359375 0.015625 0.429688 0.0117188 0.546875 0.00390625 C 0.660156 0.00390625 0.816406 0 1.023438 0 C 1.898438 0 2.441406 0.00390625 2.777344 0.00390625 C 3.113281 0.0117188 3.238281 0.015625 3.265625 0.015625 C 3.332031 0.015625 3.371094 -0.015625 3.386719 -0.0664062 L 3.683594 -0.890625 C 3.703125 -0.933594 3.703125 -0.953125 3.671875 -0.96875 L 3.585938 -1.019531 C 3.550781 -1.035156 3.535156 -1.011719 3.515625 -0.984375 C 3.4375 -0.855469 3.125 -0.453125 3.058594 -0.398438 C 2.910156 -0.273438 2.664062 -0.210938 2.570312 -0.203125 C 2.453125 -0.191406 2.171875 -0.183594 2.078125 -0.183594 C 1.9375 -0.183594 1.773438 -0.203125 1.664062 -0.222656 C 1.488281 -0.257812 1.351562 -0.371094 1.34375 -0.660156 C 1.34375 -0.773438 1.332031 -1.316406 1.332031 -1.617188 L 1.332031 -1.964844 C 1.421875 -1.964844 1.808594 -1.964844 2.070312 -1.9375 C 2.21875 -1.921875 2.277344 -1.835938 2.3125 -1.71875 C 2.328125 -1.65625 2.363281 -1.527344 2.375 -1.457031 C 2.378906 -1.417969 2.390625 -1.398438 2.417969 -1.40625 L 2.542969 -1.421875 C 2.566406 -1.429688 2.574219 -1.4375 2.574219 -1.46875 C 2.566406 -1.585938 2.542969 -1.855469 2.542969 -2.050781 C 2.542969 -2.132812 2.542969 -2.59375 2.558594 -2.6875 C 2.566406 -2.710938 2.554688 -2.734375 2.527344 -2.734375 L 2.386719 -2.738281 C 2.363281 -2.738281 2.347656 -2.726562 2.347656 -2.699219 C 2.339844 -2.59375 2.320312 -2.480469 2.300781 -2.425781 C 2.25 -2.25 2.207031 -2.207031 2.042969 -2.179688 C 1.976562 -2.167969 1.378906 -2.144531 1.332031 -2.144531 Z M 1.332031 -3.785156 "/></g></g></g><g fill="rgb(100%, 100%, 100%)" fill-opacity="1"><g transform="translate(252.039265, 145.984337)"><g><path d="M 2.507812 -1.746094 C 2.507812 -1.886719 2.367188 -2.167969 2.199219 -2.277344 C 2.066406 -2.367188 1.894531 -2.402344 1.726562 -2.402344 C 1.445312 -2.402344 1.121094 -2.195312 0.957031 -1.992188 L 0.945312 -1.992188 L 0.90625 -2.335938 C 0.902344 -2.378906 0.890625 -2.402344 0.863281 -2.402344 C 0.839844 -2.402344 0.804688 -2.386719 0.761719 -2.363281 L 0.28125 -2.09375 C 0.253906 -2.082031 0.230469 -2.066406 0.230469 -2.039062 L 0.230469 -2.011719 C 0.230469 -1.992188 0.234375 -1.976562 0.273438 -1.960938 L 0.320312 -1.9375 C 0.460938 -1.871094 0.546875 -1.773438 0.546875 -1.605469 L 0.546875 -0.296875 C 0.546875 -0.203125 0.507812 -0.183594 0.4375 -0.183594 L 0.273438 -0.183594 C 0.230469 -0.183594 0.21875 -0.167969 0.21875 -0.132812 L 0.21875 -0.0351562 C 0.21875 0 0.230469 0.015625 0.257812 0.015625 C 0.292969 0.015625 0.46875 0 0.757812 0 C 1.054688 0 1.203125 0.015625 1.242188 0.015625 C 1.269531 0.015625 1.28125 0 1.28125 -0.0351562 L 1.28125 -0.128906 C 1.28125 -0.167969 1.269531 -0.183594 1.226562 -0.183594 L 1.085938 -0.183594 C 0.96875 -0.183594 0.953125 -0.21875 0.953125 -0.371094 L 0.953125 -1.527344 C 0.953125 -1.636719 0.96875 -1.785156 1.082031 -1.910156 C 1.25 -2.089844 1.445312 -2.128906 1.535156 -2.128906 C 1.675781 -2.128906 1.808594 -2.128906 1.941406 -2.027344 C 2.105469 -1.910156 2.105469 -1.746094 2.105469 -1.523438 L 2.105469 -0.785156 C 2.105469 -0.636719 2.101562 -0.460938 2.09375 -0.3125 C 2.089844 -0.210938 2.042969 -0.183594 1.984375 -0.183594 L 1.820312 -0.183594 C 1.765625 -0.183594 1.746094 -0.171875 1.746094 -0.132812 L 1.746094 -0.0429688 C 1.746094 0 1.757812 0.015625 1.792969 0.015625 C 1.832031 0.015625 2.011719 0 2.296875 0 C 2.617188 0 2.789062 0.015625 2.828125 0.015625 C 2.863281 0.015625 2.871094 -0.00390625 2.871094 -0.0429688 L 2.871094 -0.132812 C 2.871094 -0.167969 2.863281 -0.183594 2.8125 -0.183594 L 2.632812 -0.183594 C 2.558594 -0.183594 2.507812 -0.210938 2.507812 -0.300781 Z M 2.507812 -1.746094 "/></g></g></g><g fill="rgb(100%, 100%, 100%)" fill-opacity="1"><g transform="translate(255.018599, 145.984337)"><g><path d="M 1.222656 1.523438 C 1.695312 1.523438 2.03125 1.367188 2.179688 1.261719 C 2.457031 1.054688 2.554688 0.835938 2.554688 0.570312 C 2.546875 0.4375 2.519531 0.210938 2.277344 0.0351562 C 2.054688 -0.140625 1.773438 -0.191406 1.316406 -0.167969 C 0.941406 -0.144531 0.660156 -0.128906 0.660156 -0.359375 C 0.660156 -0.515625 0.84375 -0.628906 0.957031 -0.671875 C 1.042969 -0.648438 1.121094 -0.644531 1.242188 -0.644531 C 1.429688 -0.644531 1.746094 -0.761719 1.894531 -0.925781 C 2.039062 -1.097656 2.101562 -1.308594 2.101562 -1.527344 C 2.101562 -1.71875 2.0625 -1.84375 2.015625 -1.953125 C 2.089844 -1.988281 2.15625 -1.988281 2.195312 -1.988281 C 2.238281 -1.988281 2.277344 -1.960938 2.3125 -1.9375 C 2.359375 -1.898438 2.414062 -1.855469 2.507812 -1.855469 C 2.636719 -1.855469 2.726562 -1.953125 2.726562 -2.0625 C 2.738281 -2.171875 2.648438 -2.296875 2.464844 -2.296875 C 2.277344 -2.296875 2.089844 -2.183594 1.9375 -2.078125 C 1.882812 -2.144531 1.65625 -2.402344 1.230469 -2.402344 C 0.597656 -2.402344 0.273438 -1.953125 0.273438 -1.589844 C 0.273438 -1.09375 0.578125 -0.835938 0.796875 -0.738281 L 0.796875 -0.726562 C 0.597656 -0.65625 0.292969 -0.464844 0.292969 -0.195312 C 0.292969 -0.0273438 0.429688 0.144531 0.667969 0.195312 L 0.667969 0.21875 C 0.398438 0.335938 0.078125 0.578125 0.078125 0.890625 C 0.078125 1.074219 0.164062 1.222656 0.363281 1.34375 C 0.632812 1.496094 0.953125 1.523438 1.222656 1.523438 Z M 1.1875 -0.800781 C 1.054688 -0.800781 0.953125 -0.84375 0.851562 -0.941406 C 0.734375 -1.0625 0.671875 -1.238281 0.671875 -1.429688 C 0.671875 -1.640625 0.695312 -1.898438 0.875 -2.089844 C 1.007812 -2.222656 1.140625 -2.246094 1.269531 -2.246094 C 1.355469 -2.246094 1.46875 -2.195312 1.539062 -2.121094 C 1.640625 -2.011719 1.691406 -1.863281 1.691406 -1.617188 C 1.691406 -1.265625 1.566406 -0.800781 1.1875 -0.800781 Z M 1.417969 1.34375 C 1.019531 1.34375 0.816406 1.316406 0.632812 1.1875 C 0.519531 1.109375 0.414062 0.941406 0.414062 0.800781 C 0.414062 0.5 0.6875 0.308594 0.863281 0.261719 L 1.398438 0.222656 C 1.960938 0.183594 2.210938 0.4375 2.210938 0.765625 C 2.238281 1.199219 1.625 1.34375 1.417969 1.34375 Z M 1.417969 1.34375 "/></g></g></g><g fill="rgb(100%, 100%, 100%)" fill-opacity="1"><g transform="translate(257.734718, 145.984337)"><g><path d="M 0.570312 -0.804688 C 0.570312 -0.636719 0.570312 -0.464844 0.566406 -0.296875 C 0.558594 -0.207031 0.539062 -0.183594 0.476562 -0.183594 L 0.203125 -0.183594 C 0.164062 -0.183594 0.144531 -0.171875 0.144531 -0.140625 L 0.144531 -0.0273438 C 0.144531 0.00390625 0.164062 0.015625 0.191406 0.015625 C 0.253906 0.015625 0.46875 0 0.796875 0 C 1.03125 0 1.289062 0.015625 1.332031 0.015625 C 1.371094 0.015625 1.382812 0 1.382812 -0.0390625 L 1.382812 -0.132812 C 1.382812 -0.167969 1.371094 -0.183594 1.328125 -0.183594 L 1.070312 -0.183594 C 1.007812 -0.183594 0.992188 -0.222656 0.980469 -0.332031 C 0.972656 -0.390625 0.972656 -0.59375 0.972656 -0.8125 L 0.972656 -1.421875 C 0.972656 -1.886719 0.972656 -2.238281 0.984375 -2.335938 C 0.992188 -2.375 0.984375 -2.402344 0.957031 -2.402344 C 0.925781 -2.402344 0.894531 -2.390625 0.851562 -2.367188 C 0.636719 -2.25 0.425781 -2.160156 0.246094 -2.09375 C 0.21875 -2.082031 0.207031 -2.070312 0.207031 -2.054688 L 0.207031 -2.003906 C 0.207031 -1.984375 0.21875 -1.972656 0.257812 -1.964844 C 0.539062 -1.921875 0.570312 -1.820312 0.570312 -1.628906 Z M 0.628906 -3.046875 C 0.851562 -3.046875 0.953125 -3.207031 0.953125 -3.355469 C 0.953125 -3.476562 0.855469 -3.628906 0.660156 -3.628906 C 0.4375 -3.628906 0.320312 -3.476562 0.320312 -3.335938 C 0.320312 -3.160156 0.503906 -3.046875 0.628906 -3.046875 Z M 0.628906 -3.046875 "/></g></g></g><g fill="rgb(100%, 100%, 100%)" fill-opacity="1"><g transform="translate(259.229986, 145.984337)"><g><path d="M 2.507812 -1.746094 C 2.507812 -1.886719 2.367188 -2.167969 2.199219 -2.277344 C 2.066406 -2.367188 1.894531 -2.402344 1.726562 -2.402344 C 1.445312 -2.402344 1.121094 -2.195312 0.957031 -1.992188 L 0.945312 -1.992188 L 0.90625 -2.335938 C 0.902344 -2.378906 0.890625 -2.402344 0.863281 -2.402344 C 0.839844 -2.402344 0.804688 -2.386719 0.761719 -2.363281 L 0.28125 -2.09375 C 0.253906 -2.082031 0.230469 -2.066406 0.230469 -2.039062 L 0.230469 -2.011719 C 0.230469 -1.992188 0.234375 -1.976562 0.273438 -1.960938 L 0.320312 -1.9375 C 0.460938 -1.871094 0.546875 -1.773438 0.546875 -1.605469 L 0.546875 -0.296875 C 0.546875 -0.203125 0.507812 -0.183594 0.4375 -0.183594 L 0.273438 -0.183594 C 0.230469 -0.183594 0.21875 -0.167969 0.21875 -0.132812 L 0.21875 -0.0351562 C 0.21875 0 0.230469 0.015625 0.257812 0.015625 C 0.292969 0.015625 0.46875 0 0.757812 0 C 1.054688 0 1.203125 0.015625 1.242188 0.015625 C 1.269531 0.015625 1.28125 0 1.28125 -0.0351562 L 1.28125 -0.128906 C 1.28125 -0.167969 1.269531 -0.183594 1.226562 -0.183594 L 1.085938 -0.183594 C 0.96875 -0.183594 0.953125 -0.21875 0.953125 -0.371094 L 0.953125 -1.527344 C 0.953125 -1.636719 0.96875 -1.785156 1.082031 -1.910156 C 1.25 -2.089844 1.445312 -2.128906 1.535156 -2.128906 C 1.675781 -2.128906 1.808594 -2.128906 1.941406 -2.027344 C 2.105469 -1.910156 2.105469 -1.746094 2.105469 -1.523438 L 2.105469 -0.785156 C 2.105469 -0.636719 2.101562 -0.460938 2.09375 -0.3125 C 2.089844 -0.210938 2.042969 -0.183594 1.984375 -0.183594 L 1.820312 -0.183594 C 1.765625 -0.183594 1.746094 -0.171875 1.746094 -0.132812 L 1.746094 -0.0429688 C 1.746094 0 1.757812 0.015625 1.792969 0.015625 C 1.832031 0.015625 2.011719 0 2.296875 0 C 2.617188 0 2.789062 0.015625 2.828125 0.015625 C 2.863281 0.015625 2.871094 -0.00390625 2.871094 -0.0429688 L 2.871094 -0.132812 C 2.871094 -0.167969 2.863281 -0.183594 2.8125 -0.183594 L 2.632812 -0.183594 C 2.558594 -0.183594 2.507812 -0.210938 2.507812 -0.300781 Z M 2.507812 -1.746094 "/></g></g></g><g fill="rgb(100%, 100%, 100%)" fill-opacity="1"><g transform="translate(262.20932, 145.984337)"><g><path d="M 2.027344 -1.488281 C 2.117188 -1.488281 2.183594 -1.5 2.183594 -1.578125 C 2.183594 -1.796875 2.003906 -2.402344 1.359375 -2.402344 C 1.082031 -2.402344 0.800781 -2.351562 0.558594 -2.105469 C 0.261719 -1.808594 0.207031 -1.433594 0.207031 -1.214844 C 0.207031 -0.824219 0.257812 -0.617188 0.453125 -0.332031 C 0.660156 -0.0273438 1.011719 0.0664062 1.332031 0.0664062 C 1.832031 0.0664062 2.121094 -0.320312 2.222656 -0.542969 C 2.25 -0.605469 2.238281 -0.621094 2.222656 -0.628906 L 2.152344 -0.667969 C 2.132812 -0.671875 2.109375 -0.660156 2.101562 -0.636719 C 2.003906 -0.453125 1.765625 -0.257812 1.421875 -0.257812 C 0.972656 -0.257812 0.628906 -0.671875 0.628906 -1.222656 C 0.628906 -1.351562 0.632812 -1.4375 0.644531 -1.488281 Z M 0.667969 -1.65625 C 0.773438 -2.070312 1.007812 -2.234375 1.253906 -2.234375 C 1.617188 -2.234375 1.6875 -1.863281 1.6875 -1.734375 C 1.6875 -1.6875 1.640625 -1.65625 1.535156 -1.65625 Z M 0.667969 -1.65625 "/></g></g></g><g fill="rgb(100%, 100%, 100%)" fill-opacity="1"><g transform="translate(264.595024, 145.984337)"><g><path d="M 2.027344 -1.488281 C 2.117188 -1.488281 2.183594 -1.5 2.183594 -1.578125 C 2.183594 -1.796875 2.003906 -2.402344 1.359375 -2.402344 C 1.082031 -2.402344 0.800781 -2.351562 0.558594 -2.105469 C 0.261719 -1.808594 0.207031 -1.433594 0.207031 -1.214844 C 0.207031 -0.824219 0.257812 -0.617188 0.453125 -0.332031 C 0.660156 -0.0273438 1.011719 0.0664062 1.332031 0.0664062 C 1.832031 0.0664062 2.121094 -0.320312 2.222656 -0.542969 C 2.25 -0.605469 2.238281 -0.621094 2.222656 -0.628906 L 2.152344 -0.667969 C 2.132812 -0.671875 2.109375 -0.660156 2.101562 -0.636719 C 2.003906 -0.453125 1.765625 -0.257812 1.421875 -0.257812 C 0.972656 -0.257812 0.628906 -0.671875 0.628906 -1.222656 C 0.628906 -1.351562 0.632812 -1.4375 0.644531 -1.488281 Z M 0.667969 -1.65625 C 0.773438 -2.070312 1.007812 -2.234375 1.253906 -2.234375 C 1.617188 -2.234375 1.6875 -1.863281 1.6875 -1.734375 C 1.6875 -1.6875 1.640625 -1.65625 1.535156 -1.65625 Z M 0.667969 -1.65625 "/></g></g></g><g fill="rgb(100%, 100%, 100%)" fill-opacity="1"><g transform="translate(266.980727, 145.984337)"><g><path d="M 0.542969 -0.964844 C 0.542969 -0.671875 0.542969 -0.476562 0.539062 -0.292969 C 0.539062 -0.21875 0.5 -0.183594 0.414062 -0.183594 L 0.195312 -0.183594 C 0.144531 -0.183594 0.132812 -0.171875 0.132812 -0.132812 L 0.132812 -0.0390625 C 0.132812 0.00390625 0.144531 0.015625 0.167969 0.015625 C 0.203125 0.015625 0.4375 0 0.785156 0 C 1.085938 0 1.34375 0.015625 1.378906 0.015625 C 1.398438 0.015625 1.40625 0 1.40625 -0.0351562 L 1.40625 -0.132812 C 1.40625 -0.167969 1.398438 -0.183594 1.367188 -0.183594 L 1.101562 -0.183594 C 0.984375 -0.183594 0.945312 -0.242188 0.945312 -0.414062 L 0.945312 -1.589844 C 0.945312 -1.605469 0.96875 -1.707031 1.003906 -1.769531 C 1.097656 -1.949219 1.242188 -2.003906 1.332031 -2.003906 C 1.40625 -2.003906 1.472656 -1.988281 1.519531 -1.960938 C 1.5625 -1.9375 1.617188 -1.914062 1.679688 -1.914062 C 1.78125 -1.914062 1.914062 -2.027344 1.914062 -2.191406 C 1.914062 -2.320312 1.820312 -2.4375 1.628906 -2.4375 C 1.390625 -2.4375 1.125 -2.207031 0.957031 -1.949219 L 0.933594 -1.949219 L 0.90625 -2.335938 C 0.90625 -2.367188 0.902344 -2.402344 0.867188 -2.402344 C 0.84375 -2.402344 0.824219 -2.398438 0.789062 -2.378906 L 0.234375 -2.09375 C 0.203125 -2.078125 0.191406 -2.066406 0.191406 -2.042969 L 0.191406 -2.011719 C 0.191406 -1.988281 0.203125 -1.984375 0.234375 -1.972656 L 0.339844 -1.914062 C 0.5 -1.832031 0.542969 -1.773438 0.542969 -1.488281 Z M 0.542969 -0.964844 "/></g></g></g><g fill="rgb(100%, 100%, 100%)" fill-opacity="1"><g transform="translate(268.89041, 145.984337)"><g><path d="M 0.570312 -0.804688 C 0.570312 -0.636719 0.570312 -0.464844 0.566406 -0.296875 C 0.558594 -0.207031 0.539062 -0.183594 0.476562 -0.183594 L 0.203125 -0.183594 C 0.164062 -0.183594 0.144531 -0.171875 0.144531 -0.140625 L 0.144531 -0.0273438 C 0.144531 0.00390625 0.164062 0.015625 0.191406 0.015625 C 0.253906 0.015625 0.46875 0 0.796875 0 C 1.03125 0 1.289062 0.015625 1.332031 0.015625 C 1.371094 0.015625 1.382812 0 1.382812 -0.0390625 L 1.382812 -0.132812 C 1.382812 -0.167969 1.371094 -0.183594 1.328125 -0.183594 L 1.070312 -0.183594 C 1.007812 -0.183594 0.992188 -0.222656 0.980469 -0.332031 C 0.972656 -0.390625 0.972656 -0.59375 0.972656 -0.8125 L 0.972656 -1.421875 C 0.972656 -1.886719 0.972656 -2.238281 0.984375 -2.335938 C 0.992188 -2.375 0.984375 -2.402344 0.957031 -2.402344 C 0.925781 -2.402344 0.894531 -2.390625 0.851562 -2.367188 C 0.636719 -2.25 0.425781 -2.160156 0.246094 -2.09375 C 0.21875 -2.082031 0.207031 -2.070312 0.207031 -2.054688 L 0.207031 -2.003906 C 0.207031 -1.984375 0.21875 -1.972656 0.257812 -1.964844 C 0.539062 -1.921875 0.570312 -1.820312 0.570312 -1.628906 Z M 0.628906 -3.046875 C 0.851562 -3.046875 0.953125 -3.207031 0.953125 -3.355469 C 0.953125 -3.476562 0.855469 -3.628906 0.660156 -3.628906 C 0.4375 -3.628906 0.320312 -3.476562 0.320312 -3.335938 C 0.320312 -3.160156 0.503906 -3.046875 0.628906 -3.046875 Z M 0.628906 -3.046875 "/></g></g></g><g fill="rgb(100%, 100%, 100%)" fill-opacity="1"><g transform="translate(270.385678, 145.984337)"><g><path d="M 2.507812 -1.746094 C 2.507812 -1.886719 2.367188 -2.167969 2.199219 -2.277344 C 2.066406 -2.367188 1.894531 -2.402344 1.726562 -2.402344 C 1.445312 -2.402344 1.121094 -2.195312 0.957031 -1.992188 L 0.945312 -1.992188 L 0.90625 -2.335938 C 0.902344 -2.378906 0.890625 -2.402344 0.863281 -2.402344 C 0.839844 -2.402344 0.804688 -2.386719 0.761719 -2.363281 L 0.28125 -2.09375 C 0.253906 -2.082031 0.230469 -2.066406 0.230469 -2.039062 L 0.230469 -2.011719 C 0.230469 -1.992188 0.234375 -1.976562 0.273438 -1.960938 L 0.320312 -1.9375 C 0.460938 -1.871094 0.546875 -1.773438 0.546875 -1.605469 L 0.546875 -0.296875 C 0.546875 -0.203125 0.507812 -0.183594 0.4375 -0.183594 L 0.273438 -0.183594 C 0.230469 -0.183594 0.21875 -0.167969 0.21875 -0.132812 L 0.21875 -0.0351562 C 0.21875 0 0.230469 0.015625 0.257812 0.015625 C 0.292969 0.015625 0.46875 0 0.757812 0 C 1.054688 0 1.203125 0.015625 1.242188 0.015625 C 1.269531 0.015625 1.28125 0 1.28125 -0.0351562 L 1.28125 -0.128906 C 1.28125 -0.167969 1.269531 -0.183594 1.226562 -0.183594 L 1.085938 -0.183594 C 0.96875 -0.183594 0.953125 -0.21875 0.953125 -0.371094 L 0.953125 -1.527344 C 0.953125 -1.636719 0.96875 -1.785156 1.082031 -1.910156 C 1.25 -2.089844 1.445312 -2.128906 1.535156 -2.128906 C 1.675781 -2.128906 1.808594 -2.128906 1.941406 -2.027344 C 2.105469 -1.910156 2.105469 -1.746094 2.105469 -1.523438 L 2.105469 -0.785156 C 2.105469 -0.636719 2.101562 -0.460938 2.09375 -0.3125 C 2.089844 -0.210938 2.042969 -0.183594 1.984375 -0.183594 L 1.820312 -0.183594 C 1.765625 -0.183594 1.746094 -0.171875 1.746094 -0.132812 L 1.746094 -0.0429688 C 1.746094 0 1.757812 0.015625 1.792969 0.015625 C 1.832031 0.015625 2.011719 0 2.296875 0 C 2.617188 0 2.789062 0.015625 2.828125 0.015625 C 2.863281 0.015625 2.871094 -0.00390625 2.871094 -0.0429688 L 2.871094 -0.132812 C 2.871094 -0.167969 2.863281 -0.183594 2.8125 -0.183594 L 2.632812 -0.183594 C 2.558594 -0.183594 2.507812 -0.210938 2.507812 -0.300781 Z M 2.507812 -1.746094 "/></g></g></g><g fill="rgb(100%, 100%, 100%)" fill-opacity="1"><g transform="translate(273.365012, 145.984337)"><g><path d="M 1.222656 1.523438 C 1.695312 1.523438 2.03125 1.367188 2.179688 1.261719 C 2.457031 1.054688 2.554688 0.835938 2.554688 0.570312 C 2.546875 0.4375 2.519531 0.210938 2.277344 0.0351562 C 2.054688 -0.140625 1.773438 -0.191406 1.316406 -0.167969 C 0.941406 -0.144531 0.660156 -0.128906 0.660156 -0.359375 C 0.660156 -0.515625 0.84375 -0.628906 0.957031 -0.671875 C 1.042969 -0.648438 1.121094 -0.644531 1.242188 -0.644531 C 1.429688 -0.644531 1.746094 -0.761719 1.894531 -0.925781 C 2.039062 -1.097656 2.101562 -1.308594 2.101562 -1.527344 C 2.101562 -1.71875 2.0625 -1.84375 2.015625 -1.953125 C 2.089844 -1.988281 2.15625 -1.988281 2.195312 -1.988281 C 2.238281 -1.988281 2.277344 -1.960938 2.3125 -1.9375 C 2.359375 -1.898438 2.414062 -1.855469 2.507812 -1.855469 C 2.636719 -1.855469 2.726562 -1.953125 2.726562 -2.0625 C 2.738281 -2.171875 2.648438 -2.296875 2.464844 -2.296875 C 2.277344 -2.296875 2.089844 -2.183594 1.9375 -2.078125 C 1.882812 -2.144531 1.65625 -2.402344 1.230469 -2.402344 C 0.597656 -2.402344 0.273438 -1.953125 0.273438 -1.589844 C 0.273438 -1.09375 0.578125 -0.835938 0.796875 -0.738281 L 0.796875 -0.726562 C 0.597656 -0.65625 0.292969 -0.464844 0.292969 -0.195312 C 0.292969 -0.0273438 0.429688 0.144531 0.667969 0.195312 L 0.667969 0.21875 C 0.398438 0.335938 0.078125 0.578125 0.078125 0.890625 C 0.078125 1.074219 0.164062 1.222656 0.363281 1.34375 C 0.632812 1.496094 0.953125 1.523438 1.222656 1.523438 Z M 1.1875 -0.800781 C 1.054688 -0.800781 0.953125 -0.84375 0.851562 -0.941406 C 0.734375 -1.0625 0.671875 -1.238281 0.671875 -1.429688 C 0.671875 -1.640625 0.695312 -1.898438 0.875 -2.089844 C 1.007812 -2.222656 1.140625 -2.246094 1.269531 -2.246094 C 1.355469 -2.246094 1.46875 -2.195312 1.539062 -2.121094 C 1.640625 -2.011719 1.691406 -1.863281 1.691406 -1.617188 C 1.691406 -1.265625 1.566406 -0.800781 1.1875 -0.800781 Z M 1.417969 1.34375 C 1.019531 1.34375 0.816406 1.316406 0.632812 1.1875 C 0.519531 1.109375 0.414062 0.941406 0.414062 0.800781 C 0.414062 0.5 0.6875 0.308594 0.863281 0.261719 L 1.398438 0.222656 C 1.960938 0.183594 2.210938 0.4375 2.210938 0.765625 C 2.238281 1.199219 1.625 1.34375 1.417969 1.34375 Z M 1.417969 1.34375 "/></g></g></g></svg>