<svg xmlns="http://www.w3.org/2000/svg" xmlns:xlink="http://www.w3.org/1999/xlink" width="500" zoomAndPan="magnify" viewBox="0 0 375 374.999991" height="500" preserveAspectRatio="xMidYMid meet" version="1.0"><defs><clipPath id="id1"><path d="M 65 27.871094 L 314 27.871094 L 314 346 L 65 346 Z M 65 27.871094 " clip-rule="nonzero"/></clipPath></defs><g clip-path="url(#id1)"><path fill="rgb(100%, 79.998779%, 0%)" d="M 291.855469 113.03125 C 293.4375 125.050781 285.996094 135.039062 287.460938 154.117188 C 288.925781 173.195312 313.914062 203.722656 313.835938 208.410156 C 313.726562 214.964844 290.070312 212.117188 289.65625 218.683594 C 287.898438 246.585938 289.960938 263.734375 277.578125 278.625 C 268.429688 289.628906 223.976562 280.617188 216.539062 291.914062 C 202.214844 313.679688 227.957031 343.546875 206.503906 343.546875 C 193.320312 343.546875 132.636719 347.367188 120.78125 343.414062 C 101.988281 337.140625 127.222656 292.886719 115.289062 261.972656 C 97.144531 214.976562 71.328125 213.550781 65.832031 141.464844 C 60.820312 75.707031 107.957031 27.921875 175.363281 27.921875 C 241.21875 27.921875 283.0625 46.261719 291.855469 113.03125 Z M 291.855469 113.03125 " fill-opacity="1" fill-rule="nonzero"/></g><path fill="rgb(59.999084%, 0%, 0%)" d="M 274.535156 116.066406 C 266.335938 138.308594 241.089844 144.519531 203.910156 144.519531 C 176.707031 144.519531 173.003906 174.109375 147.644531 198.632812 C 124.074219 221.429688 83.152344 206.167969 77.167969 166.59375 C 65.136719 87.054688 110.207031 38.375 180.488281 38.375 C 219.410156 38.375 295.738281 58.535156 274.535156 116.066406 Z M 274.535156 116.066406 " fill-opacity="1" fill-rule="nonzero"/><path fill="rgb(59.999084%, 0%, 0%)" d="M 219.632812 93.382812 C 219.632812 99.015625 200.90625 119.210938 177.808594 119.210938 C 154.710938 119.210938 135.988281 98.605469 135.988281 93.382812 C 135.988281 88.164062 154.710938 67.558594 177.808594 67.558594 C 200.90625 67.558594 219.632812 87.753906 219.632812 93.382812 Z M 219.632812 93.382812 " fill-opacity="1" fill-rule="nonzero"/><path fill="rgb(100%, 79.998779%, 0%)" d="M 177.808594 120.945312 C 154.34375 120.945312 134.25 99.9375 134.25 93.382812 C 134.25 86.832031 154.34375 65.824219 177.808594 65.824219 C 201.765625 65.824219 221.363281 86.632812 221.363281 93.382812 C 221.367188 100.136719 201.765625 120.945312 177.808594 120.945312 Z M 177.808594 69.296875 C 155.332031 69.296875 137.71875 89.644531 137.71875 93.382812 C 137.71875 97.125 155.332031 117.472656 177.808594 117.472656 C 199.886719 117.472656 217.898438 98.105469 217.898438 93.382812 C 217.898438 88.664062 199.886719 69.296875 177.808594 69.296875 Z M 177.808594 69.296875 " fill-opacity="1" fill-rule="nonzero"/><path fill="rgb(100%, 79.998779%, 0%)" d="M 202.296875 93.382812 C 202.296875 94.109375 202.261719 94.832031 202.191406 95.554688 C 202.117188 96.273438 202.011719 96.992188 201.871094 97.703125 C 201.730469 98.414062 201.554688 99.117188 201.34375 99.808594 C 201.132812 100.503906 200.890625 101.183594 200.613281 101.855469 C 200.335938 102.523438 200.027344 103.179688 199.6875 103.820312 C 199.34375 104.457031 198.972656 105.078125 198.570312 105.679688 C 198.167969 106.285156 197.738281 106.867188 197.277344 107.425781 C 196.820312 107.988281 196.332031 108.523438 195.820312 109.035156 C 195.308594 109.546875 194.773438 110.035156 194.214844 110.496094 C 193.65625 110.953125 193.074219 111.386719 192.472656 111.789062 C 191.871094 112.191406 191.25 112.5625 190.613281 112.90625 C 189.972656 113.246094 189.320312 113.554688 188.652344 113.835938 C 187.980469 114.113281 187.300781 114.355469 186.609375 114.566406 C 185.914062 114.777344 185.214844 114.953125 184.503906 115.09375 C 183.792969 115.234375 183.078125 115.339844 182.359375 115.414062 C 181.636719 115.484375 180.917969 115.519531 180.191406 115.519531 C 179.46875 115.519531 178.746094 115.484375 178.027344 115.414062 C 177.304688 115.339844 176.589844 115.234375 175.878906 115.09375 C 175.171875 114.953125 174.46875 114.777344 173.777344 114.566406 C 173.082031 114.355469 172.402344 114.113281 171.734375 113.835938 C 171.066406 113.558594 170.410156 113.246094 169.773438 112.90625 C 169.132812 112.5625 168.515625 112.191406 167.914062 111.789062 C 167.308594 111.386719 166.730469 110.953125 166.171875 110.496094 C 165.609375 110.035156 165.074219 109.546875 164.5625 109.035156 C 164.050781 108.523438 163.566406 107.988281 163.105469 107.425781 C 162.648438 106.867188 162.214844 106.285156 161.8125 105.679688 C 161.410156 105.078125 161.039062 104.457031 160.699219 103.820312 C 160.359375 103.179688 160.046875 102.523438 159.769531 101.855469 C 159.496094 101.183594 159.25 100.503906 159.039062 99.808594 C 158.832031 99.117188 158.65625 98.414062 158.511719 97.703125 C 158.371094 96.992188 158.265625 96.273438 158.195312 95.554688 C 158.125 94.832031 158.089844 94.109375 158.089844 93.382812 C 158.089844 92.660156 158.125 91.9375 158.195312 91.214844 C 158.265625 90.492188 158.371094 89.777344 158.511719 89.066406 C 158.65625 88.355469 158.832031 87.652344 159.039062 86.957031 C 159.25 86.265625 159.496094 85.582031 159.769531 84.914062 C 160.046875 84.242188 160.359375 83.589844 160.699219 82.949219 C 161.039062 82.308594 161.410156 81.6875 161.8125 81.085938 C 162.214844 80.484375 162.648438 79.902344 163.105469 79.34375 C 163.566406 78.78125 164.050781 78.246094 164.5625 77.730469 C 165.074219 77.21875 165.609375 76.734375 166.171875 76.273438 C 166.730469 75.8125 167.308594 75.382812 167.914062 74.980469 C 168.515625 74.578125 169.132812 74.203125 169.773438 73.863281 C 170.410156 73.519531 171.066406 73.210938 171.734375 72.933594 C 172.402344 72.65625 173.082031 72.414062 173.777344 72.203125 C 174.46875 71.992188 175.171875 71.816406 175.878906 71.675781 C 176.589844 71.53125 177.304688 71.425781 178.027344 71.355469 C 178.746094 71.285156 179.46875 71.25 180.191406 71.25 C 180.917969 71.25 181.636719 71.285156 182.359375 71.355469 C 183.078125 71.425781 183.792969 71.53125 184.503906 71.675781 C 185.214844 71.816406 185.914062 71.992188 186.609375 72.203125 C 187.300781 72.414062 187.980469 72.65625 188.652344 72.933594 C 189.320312 73.210938 189.972656 73.519531 190.613281 73.863281 C 191.25 74.203125 191.871094 74.578125 192.472656 74.980469 C 193.074219 75.382812 193.65625 75.8125 194.214844 76.273438 C 194.773438 76.734375 195.308594 77.21875 195.820312 77.730469 C 196.332031 78.246094 196.820312 78.78125 197.277344 79.34375 C 197.738281 79.902344 198.167969 80.484375 198.570312 81.085938 C 198.972656 81.6875 199.34375 82.308594 199.6875 82.949219 C 200.027344 83.589844 200.335938 84.242188 200.613281 84.914062 C 200.890625 85.582031 201.132812 86.265625 201.34375 86.957031 C 201.554688 87.652344 201.730469 88.355469 201.871094 89.066406 C 202.011719 89.777344 202.117188 90.492188 202.191406 91.214844 C 202.261719 91.9375 202.296875 92.660156 202.296875 93.382812 Z M 202.296875 93.382812 " fill-opacity="1" fill-rule="nonzero"/><path fill="rgb(100%, 79.998779%, 0%)" d="M 178.675781 59.3125 C 177.476562 59.3125 176.507812 58.34375 176.507812 57.144531 L 176.507812 44.992188 C 176.507812 43.792969 177.476562 42.820312 178.675781 42.820312 C 179.871094 42.820312 180.84375 43.792969 180.84375 44.992188 L 180.84375 57.144531 C 180.84375 58.34375 179.871094 59.3125 178.675781 59.3125 Z M 178.675781 59.3125 " fill-opacity="1" fill-rule="nonzero"/><path fill="rgb(100%, 79.998779%, 0%)" d="M 200.953125 64.3125 C 200.527344 64.3125 200.097656 64.183594 199.722656 63.925781 C 198.738281 63.242188 198.492188 61.890625 199.171875 60.90625 L 206.078125 50.914062 C 206.761719 49.925781 208.109375 49.679688 209.09375 50.363281 C 210.078125 51.046875 210.324219 52.398438 209.644531 53.382812 L 202.738281 63.375 C 202.316406 63.984375 201.640625 64.3125 200.953125 64.3125 Z M 200.953125 64.3125 " fill-opacity="1" fill-rule="nonzero"/><path fill="rgb(100%, 79.998779%, 0%)" d="M 216.703125 78.550781 C 216.011719 78.550781 215.328125 78.214844 214.910156 77.597656 C 214.238281 76.605469 214.496094 75.257812 215.484375 74.582031 L 225.527344 67.757812 C 226.515625 67.085938 227.867188 67.34375 228.539062 68.335938 C 229.210938 69.328125 228.949219 70.675781 227.960938 71.351562 L 217.921875 78.175781 C 217.546875 78.425781 217.125 78.550781 216.703125 78.550781 Z M 216.703125 78.550781 " fill-opacity="1" fill-rule="nonzero"/><path fill="rgb(100%, 79.998779%, 0%)" d="M 153.855469 63.144531 C 153.105469 63.144531 152.375 62.75 151.972656 62.050781 L 145.945312 51.507812 C 145.347656 50.464844 145.710938 49.140625 146.746094 48.542969 C 147.785156 47.949219 149.109375 48.308594 149.703125 49.347656 L 155.734375 59.894531 C 156.328125 60.933594 155.96875 62.257812 154.929688 62.855469 C 154.589844 63.050781 154.222656 63.144531 153.855469 63.144531 Z M 153.855469 63.144531 " fill-opacity="1" fill-rule="nonzero"/><path fill="rgb(100%, 79.998779%, 0%)" d="M 137.871094 78.550781 C 137.453125 78.550781 137.03125 78.425781 136.65625 78.175781 L 126.613281 71.351562 C 125.625 70.675781 125.367188 69.328125 126.039062 68.335938 C 126.710938 67.34375 128.058594 67.085938 129.050781 67.757812 L 139.089844 74.582031 C 140.082031 75.257812 140.339844 76.605469 139.667969 77.597656 C 139.25 78.214844 138.566406 78.550781 137.871094 78.550781 Z M 137.871094 78.550781 " fill-opacity="1" fill-rule="nonzero"/><path fill="rgb(100%, 79.998779%, 0%)" d="M 175.902344 145.097656 C 174.703125 145.097656 173.734375 144.125 173.734375 142.925781 L 173.734375 130.773438 C 173.734375 129.578125 174.703125 128.605469 175.902344 128.605469 C 177.097656 128.605469 178.070312 129.578125 178.070312 130.773438 L 178.070312 142.925781 C 178.070312 144.125 177.097656 145.097656 175.902344 145.097656 Z M 175.902344 145.097656 " fill-opacity="1" fill-rule="nonzero"/><path fill="rgb(100%, 79.998779%, 0%)" d="M 146.714844 137.941406 C 146.289062 137.941406 145.859375 137.8125 145.484375 137.554688 C 144.5 136.871094 144.253906 135.519531 144.9375 134.535156 L 151.839844 124.542969 C 152.519531 123.558594 153.871094 123.3125 154.855469 123.992188 C 155.839844 124.675781 156.085938 126.027344 155.402344 127.011719 L 148.5 137.003906 C 148.078125 137.613281 147.402344 137.941406 146.714844 137.941406 Z M 146.714844 137.941406 " fill-opacity="1" fill-rule="nonzero"/><path fill="rgb(100%, 79.998779%, 0%)" d="M 127.835938 120.535156 C 127.140625 120.535156 126.457031 120.199219 126.039062 119.582031 C 125.367188 118.589844 125.625 117.238281 126.617188 116.566406 L 136.660156 109.742188 C 137.648438 109.074219 138.996094 109.328125 139.667969 110.320312 C 140.339844 111.3125 140.082031 112.664062 139.089844 113.335938 L 129.050781 120.160156 C 128.675781 120.410156 128.253906 120.535156 127.835938 120.535156 Z M 127.835938 120.535156 " fill-opacity="1" fill-rule="nonzero"/><path fill="rgb(100%, 79.998779%, 0%)" d="M 206.753906 139.660156 C 206.003906 139.660156 205.273438 139.269531 204.871094 138.570312 L 198.84375 128.023438 C 198.246094 126.984375 198.609375 125.660156 199.644531 125.0625 C 200.683594 124.46875 202.007812 124.828125 202.601562 125.867188 L 208.632812 136.410156 C 209.226562 137.453125 208.867188 138.777344 207.828125 139.375 C 207.488281 139.566406 207.121094 139.660156 206.753906 139.660156 Z M 206.753906 139.660156 " fill-opacity="1" fill-rule="nonzero"/><path fill="rgb(100%, 79.998779%, 0%)" d="M 226.742188 120.535156 C 226.324219 120.535156 225.902344 120.410156 225.527344 120.160156 L 215.488281 113.335938 C 214.496094 112.664062 214.238281 111.3125 214.910156 110.320312 C 215.585938 109.332031 216.933594 109.074219 217.921875 109.742188 L 227.960938 116.566406 C 228.953125 117.242188 229.210938 118.589844 228.539062 119.582031 C 228.117188 120.199219 227.4375 120.535156 226.742188 120.535156 Z M 226.742188 120.535156 " fill-opacity="1" fill-rule="nonzero"/><path fill="rgb(59.999084%, 0%, 0%)" d="M 193.449219 93.382812 C 193.449219 94.253906 193.363281 95.117188 193.191406 95.972656 C 193.023438 96.828125 192.769531 97.660156 192.4375 98.464844 C 192.105469 99.269531 191.695312 100.035156 191.214844 100.757812 C 190.730469 101.484375 190.179688 102.152344 189.566406 102.769531 C 188.949219 103.386719 188.28125 103.9375 187.554688 104.421875 C 186.832031 104.90625 186.070312 105.3125 185.265625 105.648438 C 184.460938 105.980469 183.632812 106.234375 182.777344 106.402344 C 181.925781 106.574219 181.0625 106.65625 180.191406 106.65625 C 179.320312 106.65625 178.460938 106.574219 177.605469 106.402344 C 176.753906 106.234375 175.925781 105.980469 175.121094 105.648438 C 174.316406 105.3125 173.550781 104.90625 172.828125 104.421875 C 172.105469 103.9375 171.433594 103.386719 170.820312 102.769531 C 170.203125 102.152344 169.65625 101.484375 169.171875 100.757812 C 168.6875 100.035156 168.28125 99.269531 167.945312 98.464844 C 167.613281 97.660156 167.363281 96.828125 167.191406 95.972656 C 167.023438 95.117188 166.9375 94.253906 166.9375 93.382812 C 166.9375 92.511719 167.023438 91.648438 167.191406 90.792969 C 167.363281 89.941406 167.613281 89.109375 167.945312 88.304688 C 168.28125 87.5 168.6875 86.734375 169.171875 86.007812 C 169.65625 85.285156 170.203125 84.613281 170.820312 84 C 171.433594 83.382812 172.105469 82.832031 172.828125 82.347656 C 173.550781 81.863281 174.316406 81.453125 175.121094 81.121094 C 175.925781 80.789062 176.753906 80.535156 177.605469 80.367188 C 178.460938 80.195312 179.320312 80.109375 180.191406 80.109375 C 181.0625 80.109375 181.925781 80.195312 182.777344 80.367188 C 183.632812 80.535156 184.460938 80.789062 185.265625 81.121094 C 186.070312 81.453125 186.832031 81.863281 187.554688 82.347656 C 188.28125 82.832031 188.949219 83.382812 189.566406 84 C 190.179688 84.613281 190.730469 85.285156 191.214844 86.007812 C 191.695312 86.734375 192.105469 87.5 192.4375 88.304688 C 192.769531 89.109375 193.023438 89.941406 193.191406 90.792969 C 193.363281 91.648438 193.449219 92.511719 193.449219 93.382812 Z M 193.449219 93.382812 " fill-opacity="1" fill-rule="nonzero"/></svg>