<?xml version="1.0" encoding="UTF-8"?><svg id="a" xmlns="http://www.w3.org/2000/svg" xmlns:xlink="http://www.w3.org/1999/xlink" viewBox="0 0 728 320"><defs><style>.c{fill:none;}.d{fill:#fff;}.e{fill:#fc0;}.f{fill:#900;}.g{clip-path:url(#b);}</style><clipPath id="b"><rect class="c" x="32.42" y="14.26" width="229.63" height="288.31"/></clipPath></defs><g><g class="g"><path class="e" d="M241.69,91.5c1.44,10.89-5.35,19.96-4.01,37.26s24.15,45,24.07,49.25c-.09,5.95-21.68,3.36-22.07,9.32-1.61,25.31,.28,40.87-11.03,54.37-8.35,9.98-48.93,1.81-55.72,12.05-13.08,19.75,10.43,46.84-9.16,46.84-12.04,0-67.43,3.47-78.25-.12-17.16-5.69,5.88-45.83-5.01-73.87-16.57-42.62-40.13-43.92-45.15-109.31C30.78,57.64,73.82,14.3,135.34,14.3s98.32,16.64,106.34,77.2Z"/></g><path class="f" d="M225.87,94.25c-7.48,20.17-30.53,25.81-64.46,25.81-24.84,0-28.22,26.84-51.36,49.09-21.51,20.67-58.88,6.83-64.34-29.06-10.98-72.15,30.16-116.3,94.32-116.3,35.53,0,105.21,18.28,85.84,70.47Z"/><path class="f" d="M175.76,73.67c0,5.11-17.1,23.43-38.18,23.43s-38.17-18.69-38.17-23.43,17.1-23.42,38.17-23.42,38.18,18.32,38.18,23.42Z"/><path class="e" d="M137.57,98.68c-21.41,0-39.76-19.06-39.76-25.01s18.35-24.99,39.76-24.99,39.76,18.88,39.76,24.99-17.89,25.01-39.76,25.01Zm0-46.85c-20.51,0-36.6,18.45-36.6,21.84s16.08,21.85,36.6,21.85,36.6-17.56,36.6-21.85-16.43-21.84-36.6-21.84Z"/><path class="e" d="M159.93,73.67c0,1.33-.14,2.62-.38,3.92-.26,1.3-.64,2.55-1.15,3.77-.51,1.22-1.14,2.37-1.87,3.47-.73,1.09-1.58,2.11-2.51,3.04s-1.95,1.76-3.05,2.5c-1.1,.73-2.26,1.34-3.49,1.85s-2.49,.89-3.78,1.15c-1.3,.25-2.61,.38-3.93,.38s-2.64-.14-3.94-.38c-1.3-.26-2.56-.64-3.78-1.15s-2.39-1.12-3.49-1.85c-1.09-.74-2.12-1.57-3.05-2.5s-1.77-1.95-2.51-3.04c-.73-1.1-1.35-2.25-1.86-3.47-.51-1.23-.89-2.48-1.15-3.77s-.39-2.59-.39-3.92,.14-2.61,.39-3.91,.64-2.56,1.15-3.77,1.13-2.37,1.86-3.47c.74-1.09,1.58-2.11,2.51-3.04s1.96-1.77,3.05-2.5c1.1-.73,2.26-1.34,3.49-1.85s2.49-.89,3.78-1.15c1.31-.26,2.61-.38,3.94-.38s2.64,.12,3.93,.38,2.56,.64,3.78,1.15,2.39,1.12,3.49,1.85,2.12,1.57,3.05,2.5,1.78,1.95,2.51,3.04c.73,1.1,1.36,2.25,1.87,3.47s.89,2.48,1.15,3.77c.25,1.3,.38,2.59,.38,3.91Z"/><path class="e" d="M138.37,42.78c-1.09,0-1.98-.88-1.98-1.97v-11.02c0-1.09,.89-1.97,1.98-1.97s1.97,.88,1.97,1.97v11.02c0,1.09-.88,1.97-1.97,1.97Z"/><path class="e" d="M158.7,47.3c-.38,0-.78-.11-1.13-.35-.89-.62-1.12-1.85-.5-2.74l6.31-9.07c.62-.89,1.85-1.12,2.75-.5s1.13,1.85,.5,2.74l-6.3,9.07c-.38,.55-1,.84-1.63,.84Z"/><path class="e" d="M173.09,60.22c-.64,0-1.26-.3-1.64-.87-.61-.9-.37-2.12,.53-2.73l9.17-6.2c.9-.61,2.13-.38,2.75,.52,.61,.9,.37,2.13-.53,2.74l-9.17,6.2c-.34,.23-.72,.34-1.1,.34Z"/><path class="e" d="M115.71,46.24c-.69,0-1.35-.35-1.71-.99l-5.51-9.56c-.54-.95-.21-2.14,.73-2.68s2.16-.21,2.7,.72l5.5,9.57c.55,.93,.21,2.14-.73,2.68-.3,.18-.64,.26-.98,.26Z"/><path class="e" d="M101.12,60.22c-.38,0-.77-.11-1.12-.34l-9.16-6.2c-.91-.61-1.15-1.84-.53-2.74,.61-.89,1.85-1.13,2.75-.52l9.17,6.2c.9,.61,1.14,1.82,.52,2.73-.38,.56-1,.87-1.63,.87Z"/><path class="e" d="M135.84,120.59c-1.09,0-1.98-.88-1.98-1.97v-11.03c0-1.08,.89-1.96,1.98-1.96s1.98,.88,1.98,1.96v11.03c0,1.09-.89,1.97-1.98,1.97Z"/><path class="e" d="M109.2,114.09c-.39,0-.79-.11-1.13-.35-.9-.62-1.13-1.85-.51-2.74l6.31-9.07c.62-.89,1.85-1.12,2.75-.5s1.13,1.85,.51,2.74l-6.31,9.07c-.38,.55-1,.84-1.62,.84Z"/><path class="e" d="M91.95,98.31c-.63,0-1.25-.3-1.63-.87-.61-.9-.38-2.13,.53-2.74l9.16-6.18c.91-.61,2.14-.38,2.75,.52,.62,.9,.38,2.13-.52,2.74l-9.17,6.2c-.34,.23-.73,.34-1.12,.34Z"/><path class="e" d="M164,115.65c-.69,0-1.35-.36-1.71-.99l-5.51-9.56c-.54-.95-.21-2.15,.73-2.69s2.16-.2,2.7,.73l5.5,9.56c.55,.95,.21,2.15-.73,2.69-.3,.17-.64,.26-.98,.26Z"/><path class="e" d="M182.25,98.31c-.38,0-.77-.11-1.1-.34l-9.17-6.2c-.9-.61-1.14-1.84-.53-2.74,.62-.89,1.85-1.13,2.75-.52l9.17,6.18c.9,.62,1.14,1.84,.53,2.74-.38,.56-1.01,.87-1.64,.87Z"/><path class="f" d="M151.86,73.67c0,.8-.08,1.58-.24,2.35s-.38,1.53-.69,2.26c-.3,.72-.68,1.42-1.12,2.07-.44,.66-.95,1.27-1.51,1.82-.56,.56-1.17,1.06-1.84,1.5-.65,.44-1.35,.81-2.08,1.12s-1.5,.53-2.28,.69-1.57,.23-2.35,.23-1.59-.07-2.37-.23-1.53-.38-2.26-.69c-.74-.3-1.44-.68-2.1-1.12-.66-.44-1.27-.93-1.84-1.5-.56-.55-1.06-1.16-1.51-1.82-.44-.65-.81-1.35-1.12-2.07-.3-.73-.53-1.49-.69-2.26s-.24-1.55-.24-2.35,.08-1.57,.24-2.34,.38-1.53,.69-2.26c.3-.72,.68-1.42,1.12-2.07,.45-.66,.95-1.27,1.51-1.82,.56-.56,1.17-1.06,1.84-1.5,.65-.44,1.35-.81,2.1-1.12,.73-.3,1.49-.53,2.26-.69s1.57-.23,2.37-.23,1.58,.07,2.35,.23,1.54,.38,2.28,.69,1.43,.68,2.08,1.12c.66,.44,1.27,.93,1.84,1.5,.56,.55,1.07,1.16,1.51,1.82,.44,.65,.81,1.35,1.12,2.07,.3,.73,.53,1.49,.69,2.26s.24,1.55,.24,2.34Z"/></g><g><g><path class="d" d="M370.39,112.43c-.71-1.99-3.75-11.74-3.75-13.85,0-1.53,.94-2.23,2.11-2.23h2.35c.71,0,.82-.47,.82-1.17v-2.11c0-.71-.23-.94-1.17-.94-1.29,0-4.34,.36-10.57,.36-6.57,0-8.56-.36-9.86-.36-1.06,0-1.29,.12-1.29,.94v2.11c0,.71,.12,1.17,.71,1.17h2.35c2.11,0,3.29,.94,4.81,4.34,.83,1.88,5.64,15.26,5.99,16.2,.35,.94,8.92,23.24,9.15,23.83,.59,1.41,1.29,2.47,2.47,2.47,1.29,0,1.87-1.06,2.82-2.7,.47-.83,9.15-20.55,10.57-24.07,1.76-4.34,7.63-17.15,9.39-18.79,1.06-1.06,2.23-1.29,3.64-1.29h2.23c.59,0,.59-.36,.59-1.17v-2c0-.94-.11-1.06-1.06-1.06-1.06,0-3.87,.36-8.45,.36-5.16,0-7.75-.36-9.39-.36-.47,0-.71,.24-.71,.94v2.11c0,.59,.12,1.17,.48,1.17h2.34c2.12,0,2.94,1.87,2.12,5.05-1.17,4.57-9.4,24.66-11.27,29.23h-.36c-1.29-2.46-6.33-15.96-7.04-18.19Z"/><path class="d" d="M414.41,124.52c0,3.52,0,7.16-.12,10.68-.12,1.88-.59,2.35-1.88,2.35h-5.75c-.82,0-1.17,.24-1.17,.94v2.35c0,.71,.35,.94,.94,.94,1.29,0,5.87-.35,12.68-.35,4.93,0,10.34,.35,11.27,.35,.82,0,1.06-.35,1.06-1.17v-1.99c0-.71-.24-1.06-1.17-1.06h-5.4c-1.29,0-1.64-.83-1.88-3.06-.12-1.29-.12-5.52-.12-10.1v-12.8c0-9.74,0-17.14,.24-19.13,.12-.83,0-1.41-.59-1.41-.71,0-1.29,.24-2.23,.71-4.46,2.47-8.92,4.34-12.68,5.75-.59,.23-.83,.47-.83,.82v1.06c0,.47,.24,.71,1.06,.83,5.87,.94,6.58,3.05,6.58,7.04v17.26Zm1.17-46.96c4.7,0,6.81-3.41,6.81-6.45,0-2.58-1.99-5.75-6.1-5.75-4.69,0-7.16,3.18-7.16,6.1,0,3.76,3.87,6.1,6.45,6.1Z"/><path class="d" d="M454.55,142.84c9.98,0,17.73-5.99,17.84-15.49-.12-9.04-5.52-12.56-14.09-15.03-5.75-1.64-11.26-2.94-11.26-9.74,0-5.05,4.57-7.76,9.03-7.76s6.81,2.35,8.22,4.58l3.99,5.41c.35,.59,.58,.7,1.06,.59l1.41-.48c.59-.23,.83-.59,.83-1.06l-1.76-8.22c-.12-.71-.36-1.29-2.11-2.11-2.12-1.06-5.17-2.47-10.8-2.47-8.8,0-16.44,6.22-16.44,14.33,0,9.27,6.93,12.91,13.86,14.91,8.8,2.46,11.38,5.52,11.38,10.8s-5.17,7.98-9.27,7.98c-6.22,0-7.87-2.94-10.22-7.28l-2.94-5.75c-.23-.59-.59-.83-1.06-.71l-1.52,.35c-.47,.12-.83,.36-.71,.94l2,11.16c.11,.58,.11,1.29,.7,1.64,1.41,1.06,6.1,3.4,11.86,3.4Z"/><path class="d" d="M490.12,124.52c0,3.52,0,7.16-.12,10.68-.12,1.88-.59,2.35-1.88,2.35h-5.75c-.82,0-1.17,.24-1.17,.94v2.35c0,.71,.35,.94,.94,.94,1.29,0,5.87-.35,12.68-.35,4.93,0,10.34,.35,11.27,.35,.82,0,1.06-.35,1.06-1.17v-1.99c0-.71-.24-1.06-1.17-1.06h-5.4c-1.29,0-1.64-.83-1.88-3.06-.12-1.29-.12-5.52-.12-10.1v-12.8c0-9.74,0-17.14,.24-19.13,.12-.83,0-1.41-.59-1.41-.71,0-1.29,.24-2.23,.71-4.46,2.47-8.92,4.34-12.68,5.75-.59,.23-.83,.47-.83,.82v1.06c0,.47,.24,.71,1.06,.83,5.87,.94,6.58,3.05,6.58,7.04v17.26Zm1.17-46.96c4.7,0,6.81-3.41,6.81-6.45,0-2.58-1.99-5.75-6.1-5.75-4.69,0-7.16,3.18-7.16,6.1,0,3.76,3.87,6.1,6.45,6.1Z"/><path class="d" d="M539.19,142.84c14.44,0,25.95-13.03,25.95-25.82,0-7.64-2.71-13.74-7.99-19.14-3.52-3.52-9.98-6.81-16.44-6.81-3.87,0-9.62,.94-15.72,5.64-6.93,5.4-10.1,12.91-10.1,18.9,0,8.33,1.06,12.68,6.45,19.14,4.93,5.87,12.21,8.1,17.84,8.1Zm1.41-3.52c-5.52,0-8.92-2.23-11.63-6.1-3.75-5.41-4.46-9.87-4.46-16.44,0-8.92,1.64-13.73,6.22-18.43,2.82-3.05,5.87-3.75,9.04-3.75,5.99,0,15.49,8.22,15.49,21.25s-5.75,23.48-14.67,23.48Z"/><path class="d" d="M623.12,104.81c0-2.94-2.94-8.81-6.46-11.15-2.82-1.88-6.45-2.59-9.98-2.59-5.87,0-12.68,4.34-16.08,8.57h-.24l-.82-7.16c-.12-.94-.35-1.41-.94-1.41-.48,0-1.17,.36-2.12,.83l-10.1,5.64c-.58,.23-1.06,.59-1.06,1.17v.58c0,.36,.12,.71,.94,1.06l.94,.47c2.94,1.41,4.81,3.41,4.81,6.92v27.47c0,2-.82,2.35-2.34,2.35h-3.41c-.94,0-1.17,.35-1.17,1.06v2.11c0,.71,.23,1.06,.82,1.06,.71,0,4.46-.35,10.45-.35s9.39,.35,10.21,.35c.59,0,.83-.35,.83-1.06v-1.99c0-.83-.24-1.17-1.17-1.17h-2.94c-2.46,0-2.82-.71-2.82-3.87v-24.31c0-2.23,.36-5.4,2.7-7.98,3.52-3.76,7.64-4.58,9.51-4.58,2.94,0,5.75,0,8.57,2.11,3.41,2.47,3.41,5.87,3.41,10.57v15.49c0,3.06-.12,6.81-.24,9.87-.11,2.11-1.06,2.7-2.34,2.7h-3.41c-1.17,0-1.53,.24-1.53,1.06v1.88c0,.94,.24,1.29,.94,1.29,.82,0,4.58-.35,10.57-.35,6.69,0,10.33,.35,11.15,.35,.71,0,.94-.47,.94-1.29v-1.88c0-.71-.23-1.06-1.29-1.06h-3.75c-1.52,0-2.58-.59-2.58-2.47v-30.28Z"/></g><g><path class="d" d="M332.77,226.74c-.71-1.99-3.75-11.74-3.75-13.85,0-1.53,.94-2.23,2.11-2.23h2.35c.71,0,.82-.47,.82-1.17v-2.11c0-.71-.23-.94-1.17-.94-1.29,0-4.34,.36-10.57,.36-6.57,0-8.56-.36-9.86-.36-1.06,0-1.29,.12-1.29,.94v2.11c0,.71,.12,1.17,.71,1.17h2.35c2.11,0,3.29,.94,4.81,4.34,.83,1.88,5.64,15.26,5.99,16.2,.35,.94,8.92,23.24,9.15,23.83,.59,1.41,1.29,2.47,2.47,2.47,1.29,0,1.87-1.06,2.82-2.7,.47-.83,9.15-20.55,10.57-24.07,1.76-4.34,7.63-17.15,9.39-18.79,1.06-1.06,2.23-1.29,3.64-1.29h2.23c.59,0,.59-.36,.59-1.17v-2c0-.94-.11-1.06-1.06-1.06-1.06,0-3.87,.36-8.45,.36-5.16,0-7.75-.36-9.39-.36-.47,0-.71,.24-.71,.94v2.11c0,.59,.12,1.17,.48,1.17h2.34c2.12,0,2.94,1.87,2.12,5.05-1.17,4.57-9.4,24.66-11.27,29.23h-.36c-1.29-2.46-6.33-15.96-7.04-18.19Z"/><path class="d" d="M407.31,224.51c1.88,0,3.29-.24,3.29-1.88,0-4.58-3.75-17.26-17.26-17.26-5.87,0-11.74,1.06-16.79,6.22-6.22,6.22-7.4,14.09-7.4,18.67,0,8.22,1.06,12.56,5.17,18.54,4.34,6.34,11.74,8.33,18.43,8.33,10.45,0,16.55-8.1,18.67-12.8,.58-1.29,.35-1.64,0-1.75l-1.53-.83c-.35-.12-.82,.12-1.06,.59-1.99,3.87-7.04,7.99-14.2,7.99-9.4,0-16.68-8.69-16.68-20.19,0-2.7,.12-4.58,.36-5.64h29Zm-28.53-3.52c2.23-8.68,7.16-12.09,12.33-12.09,7.63,0,9.04,7.75,9.04,10.45,0,1.06-.94,1.64-3.18,1.64h-18.19Z"/><path class="d" d="M468.7,219.11c0-2.94-2.94-8.81-6.46-11.15-2.82-1.88-6.45-2.59-9.98-2.59-5.87,0-12.68,4.34-16.08,8.57h-.24l-.82-7.16c-.12-.94-.35-1.41-.94-1.41-.48,0-1.17,.36-2.12,.83l-10.1,5.64c-.58,.23-1.06,.59-1.06,1.17v.58c0,.36,.12,.71,.94,1.06l.94,.47c2.94,1.41,4.81,3.41,4.81,6.92v27.47c0,2-.82,2.35-2.34,2.35h-3.41c-.94,0-1.17,.35-1.17,1.06v2.11c0,.71,.23,1.06,.82,1.06,.71,0,4.46-.35,10.45-.35s9.39,.35,10.21,.35c.59,0,.83-.35,.83-1.06v-1.99c0-.83-.24-1.17-1.17-1.17h-2.94c-2.46,0-2.82-.71-2.82-3.87v-24.31c0-2.23,.36-5.4,2.7-7.98,3.52-3.76,7.64-4.58,9.51-4.58,2.94,0,5.75,0,8.57,2.11,3.41,2.47,3.41,5.87,3.41,10.57v15.49c0,3.06-.12,6.81-.24,9.87-.11,2.11-1.06,2.7-2.34,2.7h-3.41c-1.17,0-1.53,.24-1.53,1.06v1.88c0,.94,.24,1.29,.94,1.29,.82,0,4.58-.35,10.57-.35,6.69,0,10.33,.35,11.15,.35,.71,0,.94-.47,.94-1.29v-1.88c0-.71-.23-1.06-1.29-1.06h-3.75c-1.52,0-2.58-.59-2.58-2.47v-30.28Z"/><path class="d" d="M499.68,229.32c0-5.4,.12-11.03,.36-16.43h15.15c.7,0,.94-.36,1.06-.94l1.17-4.1c.23-.47-.12-1.06-.83-1.06h-16.32l.59-11.63c0-.94-.23-1.75-1.17-1.75-.7,0-1.29,.23-1.64,1.17-1.52,3.98-10.57,13.15-13.38,14.79-1.41,.83-2.11,1.17-2.11,2.11s.71,1.41,1.76,1.41h7.16c-.12,4.93-.23,12.8-.23,14.91v2.58c0,1.64-.36,11.98-.36,16.79,0,4.46,5.64,9.98,11.39,9.98,7.04,0,11.86-3.52,13.03-4.69,.35-.35,.58-.83,.23-1.29l-.59-1.06c-.35-.47-.82-.59-1.41-.23-1.64,1.06-5.05,1.52-7.75,1.52-2.12,0-6.11-1.52-6.11-10.34v-11.74Z"/><path class="d" d="M567.53,223.21c0-11.5,.59-14.56,.71-15.61,.12-.59-.35-1.17-1.06-1.17-.35,0-.83,.12-1.41,.12-.58,.12-1.17,.24-1.99,.24h-10.91c-1.17,0-1.41,.11-1.41,1.06v1.99c0,.59,.59,.83,2.59,.83,2.93,.23,4.81,.82,5.04,4.1v27.94c0,1.06-.7,2.59-1.17,3.18-2.23,2.82-6.93,5.87-10.1,5.87s-6.46-.23-9.4-4.46c-3.75-5.4-2.58-12.91-2.58-17.61v-8.33c0-6.93,.35-12.45,.47-13.5,.12-.83-.47-1.41-1.29-1.41-.36,0-.83,.12-1.29,.12-.47,.12-.94,.24-1.64,.24h-10.45c-1.06,0-1.29,.23-1.29,.94v2.11c0,.59,.59,.71,2.58,.83,2.7,.35,4.34,1.17,4.46,4.46v13.61c0,12.91-.23,16.79,4.58,23.01,3.87,5.05,7.75,5.4,11.03,5.4,5.87,0,12.68-3.64,15.97-8.22h.23l.94,6.81c.11,1.17,.59,1.41,1.06,1.41,.94,0,1.64-.23,2.34-.47l12.33-4.1c.48-.12,.71-.36,.59-1.06l-.35-1.53c-.12-.47-.47-.7-1.41-.47-1.41,.36-3.18,.36-3.88,.36-1.41,0-2.7-.48-3.05-4.11-.24-2.47-.24-8.22-.24-13.85v-8.69Z"/><path class="d" d="M590.65,235.54c0,6.1,0,10.22-.12,14.09,0,1.52-.83,2.23-2.59,2.23h-4.57c-1.06,0-1.29,.24-1.29,1.06v1.99c0,.94,.24,1.17,.71,1.17,.7,0,5.64-.35,12.91-.35,6.33,0,11.74,.35,12.44,.35,.47,0,.59-.35,.59-1.06v-2.11c0-.71-.12-1.06-.82-1.06h-5.52c-2.47,0-3.29-1.17-3.29-4.81v-24.66c0-.36,.48-2.47,1.17-3.76,2-3.75,5.05-4.93,6.93-4.93,1.52,0,2.94,.36,3.87,.94,.94,.47,2.11,.94,3.41,.94,2.11,0,4.93-2.35,4.93-5.75,0-2.7-1.99-5.17-5.99-5.17-5.05,0-10.57,4.82-14.09,10.22h-.47l-.59-8.1c0-.71-.12-1.41-.83-1.41-.47,0-.94,.12-1.64,.47l-11.62,5.99c-.71,.35-.94,.59-.94,1.06v.7c0,.48,.23,.59,.94,.83l2.23,1.17c3.29,1.76,4.23,2.94,4.23,8.92v11.03Z"/><path class="d" d="M663.08,224.51c1.88,0,3.29-.24,3.29-1.88,0-4.58-3.75-17.26-17.26-17.26-5.87,0-11.74,1.06-16.79,6.22-6.22,6.22-7.4,14.09-7.4,18.67,0,8.22,1.06,12.56,5.17,18.54,4.34,6.34,11.74,8.33,18.43,8.33,10.45,0,16.55-8.1,18.67-12.8,.58-1.29,.35-1.64,0-1.75l-1.53-.83c-.35-.12-.82,.12-1.06,.59-1.99,3.87-7.04,7.99-14.2,7.99-9.4,0-16.68-8.69-16.68-20.19,0-2.7,.12-4.58,.36-5.64h29Zm-28.53-3.52c2.23-8.68,7.16-12.09,12.33-12.09,7.63,0,9.04,7.75,9.04,10.45,0,1.06-.94,1.64-3.18,1.64h-18.19Z"/></g></g></svg>