<?xml version="1.0" encoding="UTF-8"?><svg id="a" xmlns="http://www.w3.org/2000/svg" xmlns:xlink="http://www.w3.org/1999/xlink" viewBox="0 0 1000 320"><defs><style>.c{fill:none;}.d{fill:#fff;}.e{fill:#900;}.f{clip-path:url(#b);}</style><clipPath id="b"><rect class="c" x="666.42" y="16.26" width="229.63" height="288.31"/></clipPath></defs><g><g><path d="M140.57,91.86c-1-2.83-5.33-16.66-5.33-19.66,0-2.17,1.33-3.17,3-3.17h3.33c1,0,1.16-.66,1.16-1.67v-3c0-1-.33-1.34-1.67-1.34-1.82,0-6.16,.51-14.99,.51-9.33,0-12.15-.51-13.99-.51-1.5,0-1.84,.17-1.84,1.34v3c0,1,.17,1.67,1,1.67h3.33c3,0,4.66,1.33,6.83,6.16,1.17,2.67,8,21.66,8.5,22.99,.5,1.33,12.66,32.98,12.99,33.81,.83,2,1.84,3.5,3.5,3.5,1.82,0,2.66-1.5,4-3.83,.66-1.17,12.99-29.16,14.99-34.15,2.5-6.16,10.82-24.33,13.33-26.66,1.5-1.5,3.17-1.82,5.16-1.82h3.17c.83,0,.83-.51,.83-1.67v-2.84c0-1.33-.16-1.5-1.5-1.5-1.5,0-5.5,.51-12,.51-7.32,0-10.99-.51-13.33-.51-.66,0-1,.34-1,1.34v3c0,.83,.17,1.67,.68,1.67h3.32c3.01,0,4.17,2.66,3.01,7.16-1.67,6.49-13.34,34.99-15.99,41.47h-.51c-1.82-3.49-8.99-22.65-9.99-25.82Z"/><path d="M203.04,109.01c0,5,0,10.16-.17,15.16-.17,2.67-.83,3.33-2.67,3.33h-8.17c-1.16,0-1.66,.34-1.66,1.33v3.33c0,1,.5,1.33,1.33,1.33,1.84,0,8.32-.5,17.99-.5,6.99,0,14.67,.5,15.99,.5,1.16,0,1.5-.5,1.5-1.67v-2.83c0-1-.34-1.5-1.67-1.5h-7.66c-1.84,0-2.33-1.17-2.67-4.34-.17-1.82-.17-7.83-.17-14.33v-18.16c0-13.82,0-24.32,.34-27.15,.17-1.17,0-2-.83-2-1,0-1.84,.34-3.17,1-6.33,3.5-12.66,6.16-17.99,8.17-.83,.33-1.17,.66-1.17,1.16v1.5c0,.66,.34,1,1.5,1.17,8.34,1.33,9.34,4.33,9.34,9.99v24.49Zm1.66-66.64c6.67,0,9.66-4.83,9.66-9.16,0-3.66-2.83-8.17-8.66-8.17-6.66,0-10.16,4.51-10.16,8.66,0,5.34,5.5,8.66,9.16,8.66Z"/><path d="M260,135c14.16,0,25.15-8.49,25.32-21.99-.17-12.83-7.83-17.82-19.99-21.32-8.16-2.33-15.98-4.17-15.98-13.82,0-7.16,6.49-11,12.82-11s9.66,3.33,11.67,6.5l5.67,7.67c.5,.83,.82,.99,1.5,.83l1.99-.68c.83-.33,1.17-.83,1.17-1.5l-2.5-11.66c-.17-1-.51-1.84-3-3-3.01-1.5-7.33-3.5-15.33-3.5-12.49,0-23.33,8.83-23.33,20.33,0,13.16,9.83,18.32,19.67,21.15,12.49,3.49,16.15,7.83,16.15,15.33s-7.33,11.32-13.16,11.32c-8.83,0-11.16-4.17-14.5-10.33l-4.17-8.16c-.33-.83-.83-1.17-1.5-1l-2.16,.5c-.66,.17-1.17,.51-1,1.33l2.84,15.84c.16,.82,.16,1.82,.99,2.33,2,1.5,8.66,4.82,16.83,4.82Z"/><path d="M310.47,109.01c0,5,0,10.16-.17,15.16-.17,2.67-.83,3.33-2.67,3.33h-8.17c-1.16,0-1.66,.34-1.66,1.33v3.33c0,1,.5,1.33,1.33,1.33,1.84,0,8.32-.5,17.99-.5,6.99,0,14.67,.5,15.99,.5,1.16,0,1.5-.5,1.5-1.67v-2.83c0-1-.34-1.5-1.67-1.5h-7.66c-1.84,0-2.33-1.17-2.67-4.34-.17-1.82-.17-7.83-.17-14.33v-18.16c0-13.82,0-24.32,.34-27.15,.17-1.17,0-2-.83-2-1,0-1.84,.34-3.17,1-6.33,3.5-12.66,6.16-17.99,8.17-.83,.33-1.17,.66-1.17,1.16v1.5c0,.66,.34,1,1.5,1.17,8.34,1.33,9.34,4.33,9.34,9.99v24.49Zm1.66-66.64c6.67,0,9.66-4.83,9.66-9.16,0-3.66-2.83-8.17-8.66-8.17-6.66,0-10.16,4.51-10.16,8.66,0,5.34,5.5,8.66,9.16,8.66Z"/><path d="M380.09,135c20.49,0,36.82-18.48,36.82-36.64,0-10.84-3.84-19.5-11.33-27.16-5-5-14.16-9.66-23.33-9.66-5.5,0-13.65,1.34-22.31,8-9.83,7.66-14.33,18.33-14.33,26.82,0,11.83,1.5,18,9.16,27.16,6.99,8.32,17.32,11.49,25.32,11.49Zm2-4.99c-7.84,0-12.66-3.17-16.5-8.66-5.33-7.67-6.33-14-6.33-23.33,0-12.66,2.33-19.49,8.83-26.15,4-4.33,8.34-5.33,12.83-5.33,8.49,0,21.99,11.66,21.99,30.15s-8.16,33.32-20.82,33.32Z"/><path d="M499.19,81.03c0-4.17-4.17-12.5-9.17-15.83-4-2.67-9.16-3.67-14.16-3.67-8.32,0-17.99,6.16-22.82,12.17h-.34l-1.16-10.16c-.17-1.34-.5-2-1.33-2-.68,0-1.67,.51-3.01,1.17l-14.33,8c-.82,.33-1.5,.83-1.5,1.67v.82c0,.51,.17,1,1.34,1.51l1.33,.66c4.17,1.99,6.83,4.83,6.83,9.82v38.98c0,2.84-1.16,3.33-3.32,3.33h-4.83c-1.34,0-1.67,.5-1.67,1.5v3c0,1,.33,1.5,1.16,1.5,1,0,6.33-.5,14.83-.5s13.33,.5,14.49,.5c.83,0,1.17-.5,1.17-1.5v-2.83c0-1.17-.34-1.67-1.67-1.67h-4.17c-3.49,0-4-1-4-5.5v-34.49c0-3.17,.51-7.66,3.83-11.32,5-5.34,10.84-6.5,13.49-6.5,4.17,0,8.17,0,12.17,3,4.83,3.5,4.83,8.34,4.83,14.99v21.99c0,4.34-.17,9.66-.34,14-.16,3-1.5,3.83-3.32,3.83h-4.83c-1.67,0-2.17,.34-2.17,1.5v2.67c0,1.33,.34,1.82,1.34,1.82,1.16,0,6.5-.5,14.99-.5,9.5,0,14.65,.5,15.83,.5,1,0,1.33-.66,1.33-1.82v-2.67c0-1-.33-1.5-1.84-1.5h-5.33c-2.16,0-3.66-.83-3.66-3.5v-42.97Z"/></g><g><path d="M87.18,254.06c-1-2.83-5.33-16.66-5.33-19.66,0-2.17,1.33-3.17,3-3.17h3.33c1,0,1.16-.66,1.16-1.67v-3c0-1-.33-1.34-1.67-1.34-1.82,0-6.16,.51-14.99,.51-9.33,0-12.15-.51-13.99-.51-1.5,0-1.84,.17-1.84,1.34v3c0,1,.17,1.67,1,1.67h3.33c3,0,4.66,1.33,6.83,6.16,1.17,2.67,8,21.66,8.5,22.99,.5,1.33,12.66,32.98,12.99,33.81,.83,2,1.84,3.5,3.5,3.5,1.82,0,2.66-1.5,4-3.83,.66-1.17,12.99-29.16,14.99-34.15,2.5-6.16,10.82-24.33,13.33-26.66,1.5-1.5,3.17-1.82,5.16-1.82h3.17c.83,0,.83-.51,.83-1.67v-2.84c0-1.33-.16-1.5-1.5-1.5-1.5,0-5.5,.51-12,.51-7.32,0-10.99-.51-13.33-.51-.66,0-1,.34-1,1.34v3c0,.83,.17,1.67,.68,1.67h3.32c3.01,0,4.17,2.66,3.01,7.16-1.67,6.49-13.34,34.99-15.99,41.47h-.51c-1.82-3.49-8.99-22.65-9.99-25.82Z"/><path d="M192.96,250.89c2.67,0,4.66-.34,4.66-2.67,0-6.5-5.33-24.49-24.49-24.49-8.34,0-16.66,1.5-23.82,8.83-8.83,8.83-10.5,19.99-10.5,26.49,0,11.66,1.5,17.82,7.33,26.31,6.16,9,16.66,11.83,26.15,11.83,14.82,0,23.49-11.49,26.49-18.16,.82-1.82,.5-2.33,0-2.49l-2.17-1.17c-.5-.17-1.16,.17-1.5,.83-2.83,5.5-9.99,11.33-20.15,11.33-13.34,0-23.67-12.33-23.67-28.66,0-3.83,.17-6.5,.51-8h41.15Zm-40.48-5c3.17-12.32,10.16-17.16,17.49-17.16,10.82,0,12.83,10.99,12.83,14.82,0,1.5-1.34,2.33-4.51,2.33h-25.82Z"/><path d="M280.07,243.23c0-4.17-4.17-12.5-9.17-15.83-4-2.67-9.16-3.67-14.16-3.67-8.32,0-17.99,6.16-22.82,12.17h-.34l-1.16-10.16c-.17-1.34-.5-2-1.33-2-.68,0-1.67,.51-3.01,1.17l-14.33,8c-.82,.33-1.5,.83-1.5,1.67v.82c0,.51,.17,1,1.34,1.51l1.33,.66c4.17,1.99,6.83,4.83,6.83,9.82v38.98c0,2.84-1.16,3.33-3.32,3.33h-4.83c-1.34,0-1.67,.5-1.67,1.5v3c0,1,.33,1.5,1.16,1.5,1,0,6.33-.5,14.83-.5s13.33,.5,14.49,.5c.83,0,1.17-.5,1.17-1.5v-2.83c0-1.17-.34-1.67-1.67-1.67h-4.17c-3.49,0-4-1-4-5.5v-34.49c0-3.17,.51-7.66,3.83-11.32,5-5.34,10.84-6.5,13.49-6.5,4.17,0,8.17,0,12.17,3,4.83,3.5,4.83,8.34,4.83,14.99v21.99c0,4.34-.17,9.66-.34,14-.16,3-1.5,3.83-3.32,3.83h-4.83c-1.67,0-2.17,.34-2.17,1.5v2.67c0,1.33,.34,1.82,1.34,1.82,1.16,0,6.5-.5,14.99-.5,9.5,0,14.65,.5,15.83,.5,1,0,1.33-.66,1.33-1.82v-2.67c0-1-.33-1.5-1.84-1.5h-5.33c-2.16,0-3.66-.83-3.66-3.5v-42.97Z"/><path d="M324.03,257.72c0-7.66,.17-15.66,.51-23.32h21.49c.99,0,1.33-.51,1.5-1.34l1.67-5.82c.33-.66-.17-1.5-1.17-1.5h-23.16l.83-16.5c0-1.33-.33-2.49-1.67-2.49-.99,0-1.82,.33-2.33,1.67-2.16,5.65-14.99,18.65-18.99,20.98-1.99,1.17-3,1.67-3,3s1,2,2.5,2h10.16c-.17,6.99-.33,18.16-.33,21.15v3.66c0,2.33-.51,17-.51,23.82,0,6.33,8,14.16,16.16,14.16,9.99,0,16.83-4.99,18.5-6.66,.5-.5,.82-1.17,.33-1.84l-.83-1.5c-.5-.66-1.16-.83-1.99-.33-2.33,1.5-7.16,2.16-10.99,2.16-3.01,0-8.67-2.16-8.67-14.67v-16.66Z"/><path d="M420.31,249.06c0-16.32,.83-20.66,1-22.16,.17-.83-.5-1.67-1.5-1.67-.5,0-1.17,.17-2,.17-.82,.17-1.66,.34-2.83,.34h-15.49c-1.67,0-2,.16-2,1.5v2.83c0,.83,.83,1.17,3.67,1.17,4.16,.33,6.83,1.16,7.15,5.82v39.65c0,1.5-.99,3.67-1.66,4.51-3.17,4-9.83,8.32-14.33,8.32s-9.17-.33-13.34-6.33c-5.33-7.66-3.66-18.33-3.66-24.98v-11.83c0-9.83,.5-17.66,.66-19.16,.17-1.17-.66-2-1.82-2-.51,0-1.17,.17-1.84,.17-.66,.17-1.33,.34-2.33,.34h-14.82c-1.51,0-1.84,.33-1.84,1.33v3c0,.83,.83,1,3.66,1.17,3.83,.5,6.16,1.67,6.33,6.33v19.32c0,18.33-.33,23.82,6.5,32.65,5.5,7.16,10.99,7.66,15.66,7.66,8.34,0,18-5.16,22.66-11.66h.33l1.34,9.66c.16,1.67,.83,1.99,1.5,1.99,1.33,0,2.33-.33,3.32-.66l17.49-5.82c.68-.17,1-.51,.83-1.5l-.5-2.17c-.17-.66-.66-.99-1.99-.66-2,.51-4.51,.51-5.51,.51-1.99,0-3.83-.68-4.33-5.83-.34-3.5-.34-11.66-.34-19.66v-12.33Z"/><path d="M453.12,266.55c0,8.66,0,14.5-.17,19.99,0,2.16-1.17,3.17-3.67,3.17h-6.49c-1.5,0-1.84,.34-1.84,1.5v2.83c0,1.34,.34,1.67,1,1.67,.99,0,8-.5,18.33-.5,8.99,0,16.66,.5,17.65,.5,.66,0,.83-.5,.83-1.5v-3c0-1-.17-1.5-1.16-1.5h-7.83c-3.5,0-4.67-1.67-4.67-6.83v-34.99c0-.51,.68-3.5,1.67-5.34,2.84-5.33,7.16-6.99,9.83-6.99,2.16,0,4.17,.51,5.5,1.34,1.33,.66,3,1.33,4.83,1.33,3,0,6.99-3.33,6.99-8.17,0-3.83-2.83-7.33-8.49-7.33-7.16,0-14.99,6.84-19.99,14.5h-.66l-.83-11.49c0-1-.17-2-1.17-2-.66,0-1.33,.17-2.33,.66l-16.49,8.5c-1,.5-1.33,.83-1.33,1.5v.99c0,.68,.33,.83,1.33,1.17l3.17,1.67c4.66,2.5,6,4.17,6,12.66v15.66Z"/><path d="M555.89,250.89c2.67,0,4.66-.34,4.66-2.67,0-6.5-5.33-24.49-24.49-24.49-8.34,0-16.66,1.5-23.82,8.83-8.83,8.83-10.5,19.99-10.5,26.49,0,11.66,1.5,17.82,7.33,26.31,6.16,9,16.66,11.83,26.15,11.83,14.82,0,23.49-11.49,26.49-18.16,.82-1.82,.5-2.33,0-2.49l-2.17-1.17c-.5-.17-1.16,.17-1.5,.83-2.83,5.5-9.99,11.33-20.15,11.33-13.34,0-23.67-12.33-23.67-28.66,0-3.83,.17-6.5,.51-8h41.15Zm-40.48-5c3.17-12.32,10.16-17.16,17.49-17.16,10.82,0,12.83,10.99,12.83,14.82,0,1.5-1.34,2.33-4.51,2.33h-25.82Z"/></g></g><g><g class="f"><path class="e" d="M875.69,93.5c1.44,10.89-5.35,19.96-4.01,37.26s24.15,45,24.07,49.25c-.09,5.95-21.68,3.36-22.07,9.32-1.61,25.31,.28,40.87-11.03,54.37-8.35,9.98-48.93,1.81-55.72,12.05-13.08,19.75,10.43,46.84-9.16,46.84-12.04,0-67.43,3.47-78.25-.12-17.16-5.69,5.88-45.83-5.01-73.87-16.57-42.62-40.13-43.92-45.15-109.31-4.58-59.64,38.46-102.99,99.98-102.99s98.32,16.64,106.34,77.2Z"/></g><path class="d" d="M859.87,96.25c-7.48,20.17-30.53,25.81-64.46,25.81-24.84,0-28.22,26.84-51.36,49.09-21.51,20.67-58.88,6.83-64.34-29.06-10.98-72.15,30.16-116.3,94.32-116.3,35.53,0,105.21,18.28,85.84,70.47Z"/><path class="d" d="M809.76,75.67c0,5.11-17.1,23.43-38.18,23.43s-38.17-18.69-38.17-23.43,17.1-23.42,38.17-23.42,38.18,18.32,38.18,23.42Z"/><path class="e" d="M771.57,100.68c-21.41,0-39.76-19.06-39.76-25.01s18.35-24.99,39.76-24.99,39.76,18.88,39.76,24.99-17.89,25.01-39.76,25.01Zm0-46.85c-20.51,0-36.6,18.45-36.6,21.84s16.08,21.85,36.6,21.85,36.6-17.56,36.6-21.85-16.43-21.84-36.6-21.84Z"/><path class="e" d="M793.93,75.67c0,1.33-.14,2.62-.38,3.92-.26,1.3-.64,2.55-1.15,3.77-.51,1.22-1.14,2.37-1.87,3.47-.73,1.09-1.58,2.11-2.51,3.04s-1.95,1.76-3.05,2.5c-1.1,.73-2.26,1.34-3.49,1.85s-2.49,.89-3.78,1.15c-1.3,.25-2.61,.38-3.93,.38s-2.64-.14-3.94-.38c-1.3-.26-2.56-.64-3.78-1.15s-2.39-1.12-3.49-1.85c-1.09-.74-2.12-1.57-3.05-2.5s-1.77-1.95-2.51-3.04c-.73-1.1-1.35-2.25-1.86-3.47-.51-1.23-.89-2.48-1.15-3.77s-.39-2.59-.39-3.92,.14-2.61,.39-3.91,.64-2.56,1.15-3.77,1.13-2.37,1.86-3.47c.74-1.09,1.58-2.11,2.51-3.04s1.96-1.77,3.05-2.5c1.1-.73,2.26-1.34,3.49-1.85s2.49-.89,3.78-1.15c1.31-.26,2.61-.38,3.94-.38s2.64,.12,3.93,.38,2.56,.64,3.78,1.15,2.39,1.12,3.49,1.85,2.12,1.57,3.05,2.5,1.78,1.95,2.51,3.04c.73,1.1,1.36,2.25,1.87,3.47s.89,2.48,1.15,3.77c.25,1.3,.38,2.59,.38,3.91Z"/><path class="e" d="M772.37,44.78c-1.09,0-1.98-.88-1.98-1.97v-11.02c0-1.09,.89-1.97,1.98-1.97s1.97,.88,1.97,1.97v11.02c0,1.09-.88,1.97-1.97,1.97Z"/><path class="e" d="M792.7,49.3c-.38,0-.78-.11-1.13-.35-.89-.62-1.12-1.85-.5-2.74l6.31-9.07c.62-.89,1.85-1.12,2.75-.5s1.13,1.85,.5,2.74l-6.3,9.07c-.38,.55-1,.84-1.63,.84Z"/><path class="e" d="M807.09,62.22c-.64,0-1.26-.3-1.64-.87-.61-.9-.37-2.12,.53-2.73l9.17-6.2c.9-.61,2.13-.38,2.75,.52,.61,.9,.37,2.13-.53,2.74l-9.17,6.2c-.34,.23-.72,.34-1.1,.34Z"/><path class="e" d="M749.71,48.24c-.69,0-1.35-.35-1.71-.99l-5.51-9.56c-.54-.95-.21-2.14,.73-2.68s2.16-.21,2.7,.72l5.5,9.57c.55,.93,.21,2.14-.73,2.68-.3,.18-.64,.26-.98,.26Z"/><path class="e" d="M735.12,62.22c-.38,0-.77-.11-1.12-.34l-9.16-6.2c-.91-.61-1.15-1.84-.53-2.74,.61-.89,1.85-1.13,2.75-.52l9.17,6.2c.9,.61,1.14,1.82,.52,2.73-.38,.56-1,.87-1.63,.87Z"/><path class="e" d="M769.84,122.59c-1.09,0-1.98-.88-1.98-1.97v-11.03c0-1.08,.89-1.96,1.98-1.96s1.98,.88,1.98,1.96v11.03c0,1.09-.89,1.97-1.98,1.97Z"/><path class="e" d="M743.2,116.09c-.39,0-.79-.11-1.13-.35-.9-.62-1.13-1.85-.51-2.74l6.31-9.07c.62-.89,1.85-1.12,2.75-.5s1.13,1.85,.51,2.74l-6.31,9.07c-.38,.55-1,.84-1.62,.84Z"/><path class="e" d="M725.95,100.31c-.63,0-1.25-.3-1.63-.87-.61-.9-.38-2.13,.53-2.74l9.16-6.18c.91-.61,2.14-.38,2.75,.52,.62,.9,.38,2.13-.52,2.74l-9.17,6.2c-.34,.23-.73,.34-1.12,.34Z"/><path class="e" d="M798,117.65c-.69,0-1.35-.36-1.71-.99l-5.51-9.56c-.54-.95-.21-2.15,.73-2.69s2.16-.2,2.7,.73l5.5,9.56c.55,.95,.21,2.15-.73,2.69-.3,.17-.64,.26-.98,.26Z"/><path class="e" d="M816.25,100.31c-.38,0-.77-.11-1.1-.34l-9.17-6.2c-.9-.61-1.14-1.84-.53-2.74,.62-.89,1.85-1.13,2.75-.52l9.17,6.18c.9,.62,1.14,1.84,.53,2.74-.38,.56-1.01,.87-1.64,.87Z"/><path class="d" d="M785.86,75.67c0,.8-.08,1.58-.24,2.35s-.38,1.53-.69,2.26c-.3,.72-.68,1.42-1.12,2.07-.44,.66-.95,1.27-1.51,1.82-.56,.56-1.17,1.06-1.84,1.5-.65,.44-1.35,.81-2.08,1.12s-1.5,.53-2.28,.69-1.57,.23-2.35,.23-1.59-.07-2.37-.23-1.53-.38-2.26-.69c-.74-.3-1.44-.68-2.1-1.12-.66-.44-1.27-.93-1.84-1.5-.56-.55-1.06-1.16-1.51-1.82-.44-.65-.81-1.35-1.12-2.07-.3-.73-.53-1.49-.69-2.26s-.24-1.55-.24-2.35,.08-1.57,.24-2.34,.38-1.53,.69-2.26c.3-.72,.68-1.42,1.12-2.07,.45-.66,.95-1.27,1.51-1.82,.56-.56,1.17-1.06,1.84-1.5,.65-.44,1.35-.81,2.1-1.12,.73-.3,1.49-.53,2.26-.69s1.57-.23,2.37-.23,1.58,.07,2.35,.23,1.54,.38,2.28,.69,1.43,.68,2.08,1.12c.66,.44,1.27,.93,1.84,1.5,.56,.55,1.07,1.16,1.51,1.82,.44,.65,.81,1.35,1.12,2.07,.3,.73,.53,1.49,.69,2.26s.24,1.55,.24,2.34Z"/></g></svg>