<svg width="145" height="145" viewBox="0 0 145 145" fill="none" xmlns="http://www.w3.org/2000/svg">
<circle cx="72.1884" cy="72.1884" r="72.1884" fill="#990000"/>
<path d="M102.521 101.561C102.521 102.164 102.03 102.653 101.427 102.653H42.4876C41.8862 102.653 41.3958 102.164 41.3958 101.561V73.7158L66.2986 78.8675V81.1458C66.2986 81.7713 66.8051 82.2778 67.4306 82.2778V85.6736C67.4306 86.2991 67.937 86.8056 68.5625 86.8056H75.3542C75.9796 86.8056 76.4861 86.2991 76.4861 85.6736V82.2778C77.1116 82.2778 77.6181 81.7713 77.6181 81.1458V78.8675L102.521 73.7158V101.561ZM69.6944 82.2778H74.2222V84.5417H69.6944V82.2778ZM68.5625 80.0139V77.75H75.3542V80.0139H68.5625ZM40.2639 56.809C40.2639 55.9054 40.7929 55.1111 41.3958 55.1111H102.521C103.124 55.1111 103.653 55.9054 103.653 56.809V71.169L77.6148 76.557C77.5811 75.9604 77.0907 75.4861 76.4861 75.4861H67.4306C66.826 75.4861 66.334 75.9604 66.3018 76.557L40.2639 71.169V56.809ZM57.2431 50.5833H59.5069V52.8472H57.2431V50.5833ZM71.9583 39.2639C79.5186 39.2639 85.7668 43.2337 86.582 48.3194H84.2859C83.4466 44.4316 78.3352 41.5278 71.9583 41.5278C65.5815 41.5278 60.4701 44.4316 59.6291 48.3194H57.3347C58.1499 43.2337 64.3965 39.2639 71.9583 39.2639ZM61.7708 49.4514C61.7708 46.3836 66.4353 43.7917 71.9583 43.7917C77.4798 43.7917 82.1458 46.3836 82.1458 49.4514V52.8472H61.7708V49.4514ZM84.4097 52.8472V50.5833H86.6736V52.8472H84.4097ZM102.521 52.8472H88.9375V49.4514C88.9375 46.0523 87.1206 42.8832 83.8212 40.5277C80.6376 38.2525 76.425 37 71.9583 37C67.4917 37 63.2774 38.2525 60.0938 40.5277C56.7961 42.8832 54.9792 46.0523 54.9792 49.4514V52.8472H41.3958C39.5227 52.8472 38 54.6255 38 56.809V72.0903C38 72.6273 38.3762 73.0904 38.902 73.1997L39.1319 73.2479V101.561C39.1319 103.412 40.6369 104.917 42.4876 104.917H101.427C103.278 104.917 104.785 103.412 104.785 101.561V73.2479L105.013 73.1997C105.539 73.0904 105.917 72.6273 105.917 72.0903V56.809C105.917 54.6255 104.392 52.8472 102.521 52.8472Z" fill="white"/>
</svg>
